SplineFontDB: 3.0
FontName: Nunito-Black
FullName: Nunito Black
FamilyName: Nunito
Weight: Black
Copyright: Digitized data Copyright (c) 2011-2013, vernon adams.
Version: 2.0
ItalicAngle: 0
UnderlinePosition: 0
UnderlineWidth: 0
Ascent: 1638
Descent: 410
UFOAscent: 2030
UFODescent: -675
LayerCount: 2
Layer: 0 0 "Back"  1
Layer: 1 0 "Fore"  0
FSType: 0
OS2Version: 0
OS2_WeightWidthSlopeOnly: 0
OS2_UseTypoMetrics: 1
CreationTime: 1393442978
ModificationTime: 1393443307
PfmFamily: 17
TTFWeight: 900
TTFWidth: 5
LineGap: 0
VLineGap: 0
OS2TypoAscent: 1999
OS2TypoAOffset: 0
OS2TypoDescent: 572
OS2TypoDOffset: 0
OS2TypoLinegap: 0
OS2WinAscent: 1999
OS2WinAOffset: 0
OS2WinDescent: -572
OS2WinDOffset: 0
HheadAscent: 1999
HheadAOffset: 0
HheadDescent: -572
HheadDOffset: 0
OS2Vendor: 'NeWT'
Lookup: 258 0 0 "kernHorizontalKerninglookup0"  {"kernHorizontalKerninglookup0 subtable"  } ['kern' ('DFLT' <'dflt' > ) ]
Lookup: 258 0 0 "kernHorizontalKerninginLatinloo"  {"kernHorizontalKerninginLatinloo subtable"  } ['kern' ('latn' <'dflt' > ) ]
MarkAttachClasses: 1
DEI: 91125
LangName: 1033 "" "" "" "" "" "Version 2.0" "" "Nunito is a trademark of Vernon Adams and may be registered in certain jurisdictions." "newtypography" "Vernon Adams" "" "newtypography.co.uk" "newtypography.co.uk" "Copyright (c) 2013, vernon adams.+AAoACgAA-This Font Software is licensed under the SIL Open Font License, Version 1.1.+AAoA-This license is copied below, and is also available with a FAQ at:+AAoA-http://scripts.sil.org/OFL+AAoA" "http://scripts.sil.org/OFL" "" "" "" "Nunito-Black" 
PickledData: "(dp1
S'com.typemytype.robofont.foreground.layerStrokeColor'
p2
(F0.5
I0
F0.5
F0.69999999999999996
tp3
sS'com.typemytype.robofont.guides'
p4
((dp5
S'angle'
p6
I0
sS'name'
p7
NsS'magnetic'
p8
I5
sS'isGlobal'
p9
I1
sS'y'
I1013
sS'x'
I587
s(dp10
g6
I0
sg7
Nsg8
I5
sg9
I1
sS'y'
I903
sS'x'
I595
s(dp11
g6
I0
sg7
Nsg8
I5
sg9
I1
sS'y'
I120
sS'x'
I780
s(dp12
g6
I0
sg7
Nsg8
I5
sg9
I1
sS'y'
S'-22'
p13
sS'x'
I907
s(dp14
g6
I0

StartChar: A
Encoding: 65 65 1
Width: 1488
VWidth: 0
GlyphClass: 2
Flags: W
PickledData: "(dp1
S'segmentType'
p2
S'line'
p3
sS'b'
(dp4
sS'anchors'
p5
(tsS'lib'
p6
(dp7
sS'unicodes'
p8
(tsS'width'
p9
I1445
sS'points'
p10
(dp11
sS'contours'
p12
(dp13
sS'components'
p14
(tsS'y'
I1232
sS'x'
I718
sS'com.typemytype.robofont.layerData'
p15
(dp16
S'b'
(dp17
S'name'
p18
S'A'
sg6
(dp19
sg8
(tsg9
I1414
sg12
((dp20
g10
((dp21
g2
S'line'
p22
sS'x'
I403
sS'smooth'
p23
I0
sS'y'
I502
s(dp24
g2
S'line'
p25
sS'x'
I703
sg23
I0
sS'y'
I1275
s(dp26
g2
S'line'
p27
sS'x'
I705
sg23
I0
sS'y'
I1275
s(dp28
g2
S'line'
p29
sS'x'
I1004
sg23
I0
sS'y'
I502
stp30
s(dp31
g10
((dp32
g2
S'curve'
p33
sS'x'
I150
sg23
I1
sS'y'
I0
s(dp34
S'y'
I0
sS'x'
I181
sg23
I0
s(dp35
S'y'
I15
sS'x'
I214
sg23
I0
s(dp36
g2
S'curve'
p37
sS'x'
I229
sg23
I1
sS'y'
I53
s(dp38
g2
S'line'
p39
sS'x'
I356
sg23
I0
sS'y'
I373
s(dp40
g2
S'line'
p41
sS'x'
I1051
sg23
I0
sS'y'
I373
s(dp42
g2
S'line'
p43
sS'x'
I1179
sg23
I1
sS'y'
I53
s(dp44
S'y'
I17
sS'x'
I1193
sg23
I0
s(dp45
S'y'
I0
sS'x'
I1228
sg23
I0
s(dp46
g2
S'curve'
p47
sS'x'
I1260
sg23
I1
sS'y'
I0
s(dp48
S'y'
I0
sS'x'
I1306
sg23
I0
s(dp49
S'y'
I31
sS'x'
I1354
sg23
I0
s(dp50
g2
S'curve'
p51
sS'x'
I1354
sg23
I1
sS'y'
I80
s(dp52
S'y'
I87
sS'x'
I1354
sg23
I0
s(dp53
S'y'
I97
sS'x'
I1352
sg23
I0
s(dp54
g2
S'curve'
p55
sS'x'
I1349
sg23
I0
sS'y'
I108
s(dp56
g2
S'line'
p57
sS'x'
I871
sg23
I1
sS'y'
I1288
s(dp58
S'y'
I1420
sS'x'
I817
sg23
I0
s(dp59
S'y'
I1430
sS'x'
I777
sg23
I0
s(dp60
g2
S'curve'
p61
sS'x'
I710
sg23
I1
sS'y'
I1430
s(dp62
S'y'
I1430
sS'x'
I644
sg23
I0
s(dp63
S'y'
I1413
sS'x'
I596
sg23
I0
s(dp64
g2
S'curve'
p65
sS'x'
I542
sg23
I1
sS'y'
I1280
s(dp66
g2
S'line'
p67
sS'x'
I66
sg23
I1
sS'y'
I108
s(dp68
S'y'
I97
sS'x'
I62
sg23
I0
s(dp69
S'y'
I87
sS'x'
I60
sg23
I0
s(dp70
g2
S'curve'
p71
sS'x'
I60
sg23
I1
sS'y'
I78
s(dp72
S'y'
I32
sS'x'
I60
sg23
I0
s(dp73
S'y'
I0
sS'x'
I106
sg23
I0
stp74
stp75
sg14
(tsg5
(tsssg18
S'A'
s."
AnchorPoint: "top" 742 1438 basechar 0
AnchorPoint: "ogonek" 1264 19 basechar 0
LayerCount: 2
Fore
SplineSet
1104 143 m 257
 1183 -100 1502 -2 1417 249 c 257
 1052 1193 l 257
 971 1427 867 1476 744 1476 c 256
 621 1476 516 1427 436 1193 c 257
 71 249 l 257
 -14 -2 305 -100 384 143 c 257
 450.223 331 l 257
 1037.78 331 l 257
 1104 143 l 257
964.157 540 m 257
 523.843 540 l 257
 744 1165 l 257
 964.157 540 l 257
EndSplineSet
EndChar

StartChar: AE
Encoding: 198 198 2
Width: 1991
VWidth: 0
GlyphClass: 2
Flags: W
PickledData: "(dp1
S'com.typemytype.robofont.layerData'
p2
(dp3
S'b'
(dp4
S'name'
p5
S'AE'
p6
sS'lib'
p7
(dp8
sS'unicodes'
p9
(tsS'width'
p10
I1976
sS'contours'
p11
(tsS'components'
p12
(tsS'anchors'
p13
(tsssS'com.fontlab.hintData'
p14
(dp15
S'hhints'
p16
((dp17
S'position'
p18
I0
sg10
I271
s(dp19
g18
I603
sg10
I272
s(dp20
g18
I1182
sg10
I271
stp21
ss."
HStem: 0 271<1431 1765 1431 1784 1431 1784> 603 272<1377 1727 1347 1748 1347 1804.5> 1182 271
AnchorPoint: "top" 1287 1453 basechar 0
LayerCount: 2
Fore
SplineSet
598 539 m 257
 953 1249 l 257
 957 1249 l 257
 1045 539 l 257
 598 539 l 257
1274 0 m 258
 1784 0 l 258
 1889 -1 1954 23 1954 120 c 256
 1954 246 1905 271 1765 271 c 258
 1431 271 l 257
 1377 603 l 257
 1748 603 l 258
 1861 603 1910 624 1910 734 c 256
 1910 852 1821 875 1727 875 c 258
 1347 875 l 257
 1298 1182 l 257
 1768 1182 l 258
 1882 1182 1947 1203 1947 1313 c 256
 1947 1424 1859 1454 1762 1454 c 258
 979 1453 l 258
 781 1453 688 1310 543 1005 c 257
 120 303 l 257
 92 245 65 179 64 130 c 256
 64 49 126 5 199 5 c 256
 293 5 347 78 410 189 c 257
 507 325 l 257
 1069 325 l 257
 1087 241 l 257
 1110 65 1153 0 1274 0 c 258
EndSplineSet
EndChar

StartChar: B
Encoding: 66 66 14
Width: 1424
VWidth: 0
GlyphClass: 2
Flags: W
PickledData: "(dp1
S'segmentType'
p2
S'curve'
p3
sS'b'
(dp4
sS'anchors'
p5
(tsS'lib'
p6
(dp7
sS'unicodes'
p8
(tsS'com.fontlab.hintData'
p9
(dp10
S'vhints'
p11
((dp12
S'position'
p13
I936
sS'width'
p14
I346
s(dp15
g13
I974
sg14
I361
stp16
sS'hhints'
p17
((dp18
g13
I0
sg14
I228
s(dp19
g13
I652
sg14
I178
s(dp20
g13
I1227
sg14
I228
stp21
ssg14
I1395
sS'points'
p22
(dp23
sS'contours'
p24
(dp25
sS'components'
p26
(tsS'y'
I1260
sS'x'
I676
sS'com.typemytype.robofont.layerData'
p27
(dp28
S'b'
(dp29
S'name'
p30
S'B'
sg6
(dp31
sg8
(tsg14
I1292
sg24
((dp32
g22
((dp33
g2
S'curve'
p34
sS'x'
I266
sS'smooth'
p35
I1
sS'y'
I0
s(dp36
g2
S'line'
p37
sS'x'
I1035
sg35
I1
sS'y'
I0
s(dp38
S'y'
I0
sS'x'
I1084
sg35
I0
s(dp39
S'y'
I36
sS'x'
I1108
sg35
I0
s(dp40
g2
S'curve'
p41
sS'x'
I1108
sg35
I1
sS'y'
I73
s(dp42
S'y'
I109
sS'x'
I1108
sg35
I0
s(dp43
S'y'
I145
sS'x'
I1084
sg35
I0
s(dp44
g2
S'curve'
p45
sS'x'
I1035
sg35
I1
sS'y'
I145
s(dp46
g2
S'line'
p47
sS'x'
I353
sg35
I0
sS'y'
I145
s(dp48
g2
S'line'
p49
sS'x'
I353
sg35
I0
sS'y'
I662
s(dp50
g2
S'line'
p51
sS'x'
I975
sg35
I1
sS'y'
I662
s(dp52
S'y'
I662
sS'x'
I1024
sg35
I0
s(dp53
S'y'
I698
sS'x'
I1049
sg35
I0
s(dp54
g2
S'curve'
p55
sS'x'
I1049
sg35
I1
sS'y'
I734
s(dp56
S'y'
I770
sS'x'
I1049
sg35
I0
s(dp57
S'y'
I806
sS'x'
I1026
sg35
I0
s(dp58
g2
S'curve'
p59
sS'x'
I975
sg35
I1
sS'y'
I806
s(dp60
g2
S'line'
p61
sS'x'
I353
sg35
I0
sS'y'
I806
s(dp62
g2
S'line'
p63
sS'x'
I353
sg35
I0
sS'y'
I1281
s(dp64
g2
S'line'
p65
sS'x'
I1007
sg35
I1
sS'y'
I1281
s(dp66
S'y'
I1281
sS'x'
I1056
sg35
I0
s(dp67
S'y'
I1317
sS'x'
I1080
sg35
I0
s(dp68
g2
S'curve'
p69
sS'x'
I1080
sg35
I1
sS'y'
I1354
s(dp70
S'y'
I1390
sS'x'
I1080
sg35
I0
s(dp71
S'y'
I1426
sS'x'
I1056
sg35
I0
s(dp72
g2
S'curve'
p73
sS'x'
I1007
sg35
I1
sS'y'
I1426
s(dp74
g2
S'line'
p75
sS'x'
I261
sg35
I1
sS'y'
I1426
s(dp76
S'y'
I1426
sS'x'
I213
sg35
I0
s(dp77
S'y'
I1383
sS'x'
I178
sg35
I0
s(dp78
g2
S'curve'
p79
sS'x'
I178
sg35
I1
sS'y'
I1340
s(dp80
g2
S'line'
p81
sS'x'
I178
sg35
I1
sS'y'
I86
s(dp82
S'y'
I41
sS'x'
I178
sg35
I0
s(dp83
S'y'
I0
sS'x'
I222
sg35
I0
stp84
stp85
sg26
(tsg5
(tsssg30
S'B'
s."
HStem: 0 228<502 502 502 648 502 829> 652 178<502 630 502 637 502 739> 1227 228<502 651 651 666>
VStem: 936 346<1011 1111.5> 974 361<355 495 303 526.5>
AnchorPoint: "top" 705 1438 basechar 0
LayerCount: 2
Fore
SplineSet
502 830 m 257
 502 1227 l 257
 651 1227 l 258
 807 1227 936 1193 936 1030 c 256
 936 867 808 830 630 830 c 258
 502 830 l 257
502 228 m 257
 502 652 l 257
 637 652 l 258
 841 652 974 607 974 446 c 256
 974 264 861 228 648 228 c 258
 502 228 l 257
380 0 m 258
 829 0 l 258
 1178 0 1335 200 1335 406 c 256
 1335 584 1209 728 1009 757 c 257
 1009 761 l 257
 1174 789 1282 935 1282 1087 c 256
 1282 1469 940 1455 666 1455 c 258
 380 1455 l 258
 257 1455 150 1405 150 1269 c 258
 150 283 l 258
 150 32 231 0 380 0 c 258
EndSplineSet
EndChar

StartChar: C
Encoding: 67 67 15
Width: 1401
VWidth: 0
GlyphClass: 2
Flags: W
PickledData: "(dp1
S'b'
(dp2
sS'anchors'
p3
(tsS'lib'
p4
(dp5
sS'unicodes'
p6
(tsS'com.fontlab.hintData'
p7
(dp8
S'vhints'
p9
((dp10
S'position'
p11
I102
sS'width'
p12
I382
stp13
sS'hhints'
p14
((dp15
g11
I-38
sg12
I292
s(dp16
g11
I1195
sg12
I292
stp17
ssg12
I1354
sS'contours'
p18
(tsS'components'
p19
(tsS'com.typemytype.robofont.layerData'
p20
(dp21
S'b'
(dp22
S'name'
p23
S'C'
sg4
(dp24
sg6
(tsg12
F1353.8900000000001
sg18
(tsg19
(tsg3
(tsssg23
S'C'
s."
HStem: -38 292<728 899 728 920.5> 1195 292<762 916.5>
VStem: 102 382<570.5 929 570.5 956.5>
AnchorPoint: "top" 825 1438 basechar 0
AnchorPoint: "bot" 799 0 basechar 0
LayerCount: 2
Fore
SplineSet
820 -38 m 256
 1021 -38 1163 17 1270 99 c 256
 1426 221 1294 402 1189 346 c 256
 1086 288 948 254 850 254 c 256
 606 254 484 419 484 722 c 256
 484 1136 661 1195 863 1195 c 256
 970 1195 1070 1159 1139 1129 c 256
 1308 1056 1405 1288 1252 1388 c 257
 1194 1418 1076 1487 842 1487 c 256
 422 1487 102 1201 102 712 c 256
 102 225 425 -38 820 -38 c 256
EndSplineSet
EndChar

StartChar: D
Encoding: 68 68 21
Width: 1543
VWidth: 0
GlyphClass: 2
Flags: W
PickledData: "(dp1
S'b'
(dp2
sS'anchors'
p3
(tsS'lib'
p4
(dp5
sS'unicodes'
p6
(tsS'com.fontlab.hintData'
p7
(dp8
S'vhints'
p9
((dp10
S'position'
p11
I1055
sS'width'
p12
I386
stp13
sS'hhints'
p14
((dp15
g11
I0
sg12
I251
s(dp16
g11
I1202
sg12
I253
stp17
ssg12
I1535
sS'contours'
p18
(tsS'components'
p19
(tsS'com.typemytype.robofont.layerData'
p20
(dp21
S'b'
(dp22
S'name'
p23
S'D'
sg4
(dp24
sg6
(tsg12
I1499
sg18
((dp25
S'points'
p26
((dp27
S'segmentType'
p28
S'curve'
p29
sS'x'
I266
sS'smooth'
p30
I1
sS'y'
I0
s(dp31
g28
S'line'
p32
sS'x'
I1035
sg30
I1
sS'y'
I0
s(dp33
S'y'
I0
sS'x'
I1084
sg30
I0
s(dp34
S'y'
I34
sS'x'
I1108
sg30
I0
s(dp35
g28
S'curve'
p36
sS'x'
I1108
sg30
I1
sS'y'
I71
s(dp37
S'y'
I107
sS'x'
I1108
sg30
I0
s(dp38
S'y'
I141
sS'x'
I1084
sg30
I0
s(dp39
g28
S'curve'
p40
sS'x'
I1035
sg30
I1
sS'y'
I141
s(dp41
g28
S'line'
p42
sS'x'
I356
sg30
I0
sS'y'
I141
s(dp43
g28
S'line'
p44
sS'x'
I356
sg30
I0
sS'y'
I665
s(dp45
g28
S'line'
p46
sS'x'
I975
sg30
I1
sS'y'
I665
s(dp47
S'y'
I665
sS'x'
I1024
sg30
I0
s(dp48
S'y'
I698
sS'x'
I1049
sg30
I0
s(dp49
g28
S'curve'
p50
sS'x'
I1049
sg30
I1
sS'y'
I734
s(dp51
S'y'
I770
sS'x'
I1049
sg30
I0
s(dp52
S'y'
I803
sS'x'
I1026
sg30
I0
s(dp53
g28
S'curve'
p54
sS'x'
I975
sg30
I1
sS'y'
I803
s(dp55
g28
S'line'
p56
sS'x'
I356
sg30
I0
sS'y'
I803
s(dp57
g28
S'line'
p58
sS'x'
I356
sg30
I0
sS'y'
I1285
s(dp59
g28
S'line'
p60
sS'x'
I1007
sg30
I1
sS'y'
I1285
s(dp61
S'y'
I1285
sS'x'
I1056
sg30
I0
s(dp62
S'y'
I1319
sS'x'
I1080
sg30
I0
s(dp63
g28
S'curve'
p64
sS'x'
I1080
sg30
I1
sS'y'
I1356
s(dp65
S'y'
I1392
sS'x'
I1080
sg30
I0
s(dp66
S'y'
I1426
sS'x'
I1056
sg30
I0
s(dp67
g28
S'curve'
p68
sS'x'
I1007
sg30
I1
sS'y'
I1426
s(dp69
g28
S'line'
p70
sS'x'
I261
sg30
I1
sS'y'
I1426
s(dp71
S'y'
I1426
sS'x'
I213
sg30
I0
s(dp72
S'y'
I1383
sS'x'
I178
sg30
I0
s(dp73
g28
S'curve'
p74
sS'x'
I178
sg30
I1
sS'y'
I1340
s(dp75
g28
S'line'
p76
sS'x'
I178
sg30
I1
sS'y'
I86
s(dp77
S'y'
I41
sS'x'
I178
sg30
I0
s(dp78
S'y'
I0
sS'x'
I222
sg30
I0
stp79
stp80
sg19
(tsg3
(tsssg23
S'D'
s."
HStem: 0 251<514 514 514 628 514 646 514 907> 1202 253<514 617 308.5 637 308.5 786>
VStem: 1055 386<546 903.5>
AnchorPoint: "top" 746 1438 basechar 0
AnchorPoint: "mid" 341 734 basechar 0
LayerCount: 2
Fore
SplineSet
514 251 m 257
 514 1202 l 257
 637 1202 l 258
 935 1202 1055 1081 1055 726 c 256
 1055 366 933 251 628 251 c 258
 514 251 l 257
332 0 m 258
 646 0 l 258
 1168 0 1441 244 1441 717 c 256
 1441 1205 1158 1455 617 1455 c 258
 402 1455 l 258
 215 1455 150 1374 150 1173 c 258
 150 280 l 258
 150 142 189 0 332 0 c 258
EndSplineSet
EndChar

StartChar: Dcroat
Encoding: 272 272 23
Width: 1543
VWidth: 0
GlyphClass: 2
Flags: W
PickledData: "(dp1
S'com.fontlab.hintData'
p2
(dp3
S'vhints'
p4
((dp5
S'position'
p6
I-15
sS'width'
p7
I720
s(dp8
g6
I1055
sg7
I386
stp9
sS'hhints'
p10
((dp11
g6
I0
sg7
I251
s(dp12
g6
I625
sg7
I228
s(dp13
g6
I1202
sg7
I253
stp14
ss."
HStem: 0 251 625 228<97 120 120 571> 1202 253
VStem: -15 720<703.5 774.5> 1055 386
LayerCount: 2
Fore
SplineSet
97 625 m 258
 571 625 l 258
 653 625 705 668 705 739 c 256
 705 810 653 853 571 853 c 258
 120 853 l 258
 37 853 -15 810 -15 739 c 256
 -15 668 28 625 97 625 c 258
EndSplineSet
Refer: 21 68 N 1 0 0 1 0 0 2
EndChar

StartChar: uni0394
Encoding: 916 916 24
Width: 1401
VWidth: 0
GlyphClass: 2
Flags: W
LayerCount: 2
Fore
SplineSet
372 190 m 257
 691 1199 l 257
 1023 190 l 257
 372 190 l 257
34 0 m 257
 1367 0 l 257
 903 1364 l 257
 829 1531 543 1518 494 1364 c 258
 34 0 l 257
EndSplineSet
EndChar

StartChar: E
Encoding: 69 69 25
Width: 1249
VWidth: 0
GlyphClass: 2
Flags: W
PickledData: "(dp1
S'b'
(dp2
sS'anchors'
p3
(tsS'lib'
p4
(dp5
sS'unicodes'
p6
(tsS'width'
p7
I1258
sS'contours'
p8
(tsS'components'
p9
(tsS'com.typemytype.robofont.layerData'
p10
(dp11
S'b'
(dp12
S'name'
p13
S'E'
sg4
(dp14
sg6
(tsg7
I1234
sg8
(tsg9
(tsg3
(tsssg13
S'E'
s."
AnchorPoint: "top" 666 1438 basechar 0
AnchorPoint: "ogonek" 835 9 basechar 0
AnchorPoint: "bot" 681 0 basechar 0
LayerCount: 2
Fore
SplineSet
329 0 m 258
 1049 0 l 258
 1121 0 1178 57 1178 134 c 256
 1178 210 1121 269 1049 269 c 258
 508 269 l 257
 508 604 l 257
 979 604 l 258
 1056 604 1118 662 1118 738 c 256
 1118 815 1056 874 979 874 c 258
 508 874 l 257
 508 1185 l 257
 1024 1185 l 258
 1101 1185 1163 1242 1163 1319 c 256
 1163 1395 1101 1455 1024 1455 c 258
 380 1455 l 258
 175 1455 150 1333 150 1164 c 258
 150 256 l 258
 150 136 195 0 329 0 c 258
EndSplineSet
EndChar

StartChar: Eng
Encoding: 330 330 34
Width: 1609
VWidth: 0
GlyphClass: 2
Flags: HW
PickledData: "(dp1
S'com.typemytype.robofont.layerData'
p2
(dp3
S'b'
(dp4
S'name'
p5
S'Eng'
p6
sS'lib'
p7
(dp8
sS'unicodes'
p9
(tsS'width'
p10
I1495
sS'contours'
p11
(tsS'components'
p12
(tsS'anchors'
p13
(tsssS'com.fontlab.hintData'
p14
(dp15
S'vhints'
p16
((dp17
S'position'
p18
I1143
sg10
I316
stp19
sS'hhints'
p20
((dp21
g18
I-433
sg10
I202
s(dp22
g18
I933
sg10
I20
stp23
ss."
HStem: -433 202 933 20
VStem: 1143 316<-124.5 350 49 350 49 353>
LayerCount: 2
Fore
SplineSet
705 -433 m 0
 821.036467369 -461.513234503 925.884516847 -477.362655349 1017.95896591 -477.362655349 c 0
 1297.24054946 -477.362655349 1459 -331.541768186 1459 49 c 2
 1459 1290 l 2
 1459 1380 1389 1456 1302 1456 c 0
 1215 1456 1147 1380 1147 1290 c 2
 1147 466 l 1
 555 1284 l 2
 489 1375 416 1455 332 1456 c 0
 232 1456 150 1380 150 1243 c 2
 150 166 l 2
 150 77 218 0 306 0 c 0
 392 0 463 76 463 166 c 2
 463 953 l 1
 1143 -7 l 1
 1143 -179.290778708 1090.3238023 -265.042089768 944.381342575 -265.042089768 c 0
 891.262202529 -265.042089768 825.787477303 -253.682058765 746 -231 c 0
 734.572865085 -227.623801048 723.692808746 -226.068699272 713.448063603 -226.068699272 c 0
 654.444542201 -226.068699272 616.514684955 -277.65238413 616.514684955 -330.003289385 c 0
 616.514684955 -373.561447374 642.773300694 -417.650747505 705 -433 c 0
EndSplineSet
EndChar

StartChar: Euro
Encoding: 8364 8364 37
Width: 1476
VWidth: 0
GlyphClass: 2
Flags: HW
PickledData: "(dp1
S'com.fontlab.hintData'
p2
(dp3
S'vhints'
p4
((dp5
S'position'
p6
I189
sS'width'
p7
I382
stp8
sS'hhints'
p9
((dp10
g6
I-38
sg7
I292
s(dp11
g6
I496
sg7
I135
s(dp12
g6
I816
sg7
I135
s(dp13
g6
I1195
sg7
I292
stp14
ss."
HStem: -38 292 496 135<83 971> 816 135<83 971> 1195 292
VStem: 189 382
LayerCount: 2
Fore
SplineSet
907 -38 m 0
 1108 -38 1250 17 1357 99 c 0
 1408.57476809 139.334113508 1428.67075862 186.117004363 1428.67075862 228.652466344 c 0
 1428.67075862 298.249793588 1374.86952515 356.475851913 1317.12941855 356.475851913 c 0
 1303.4191788 356.475851913 1289.48686034 353.192992179 1276 346 c 0
 1173 288 1035 254 937 254 c 0
 762.975162887 254 651.009022356 337.931843739 601.101578408 496 c 1
 976 496 l 2
 1018.89233955 496 1040.63809528 528.813664537 1040.63809528 562.085709908 c 0
 1040.63809528 596.300492674 1017.64258347 631 971 631 c 2
 575.049260129 631 l 1
 572.349753376 659.78561648 571 690.129423134 571 722 c 0
 571 755.621860557 572.16739027 786.902345147 574.42075518 816 c 1
 976 816 l 2
 1018.89233955 816 1040.63809528 848.813664537 1040.63809528 882.085709908 c 0
 1040.63809528 916.300492674 1017.64258347 951 971 951 c 2
 596.175631115 951 l 1
 651.958138114 1159.5737684 793.473511514 1195 950 1195 c 0
 1057 1195 1157 1159 1226 1129 c 0
 1248.34022063 1119.35008221 1269.42228669 1115.02984702 1288.83502736 1115.02984702 c 0
 1364.95372089 1115.02984702 1415.40690191 1181.45251797 1415.40690191 1253.44274109 c 0
 1415.40690191 1301.981813 1392.47054434 1353.0519318 1339 1388 c 1
 1281 1418 1163 1487 929 1487 c 0
 582.962133626 1487 304.805335826 1292.86014388 217.569426363 951 c 1
 83 951 l 2
 40 951 18.5 917.25 18.5 883.5 c 0
 18.5 849.75 40 816 83 816 c 2
 194.048799054 816 l 1
 190.711620178 782.44078815 189 747.7632986 189 712 c 0
 189 684.271418528 190.04712832 657.269018925 192.095054159 631 c 1
 83 631 l 2
 40 631 18.5 597.25 18.5 563.5 c 0
 18.5 529.75 40 496 83 496 c 2
 212.685512096 496 l 1
 293.989525342 147.713944334 575.073842534 -38 907 -38 c 0
EndSplineSet
EndChar

StartChar: F
Encoding: 70 70 38
Width: 1166
VWidth: 0
GlyphClass: 2
Flags: W
PickledData: "(dp1
S'b'
(dp2
sS'anchors'
p3
(tsS'lib'
p4
(dp5
sS'unicodes'
p6
(tsS'com.fontlab.hintData'
p7
(dp8
S'vhints'
p9
((dp10
S'position'
p11
I150
sS'width'
p12
I953
stp13
ssg12
I1175
sS'contours'
p14
(tsS'components'
p15
(tsS'com.typemytype.robofont.layerData'
p16
(dp17
S'b'
(dp18
S'name'
p19
S'F'
sg4
(dp20
sg6
(tsg12
I1142
sg14
((dp21
S'points'
p22
((dp23
S'segmentType'
p24
S'curve'
p25
sS'x'
I266
sS'smooth'
p26
I1
sS'y'
I0
s(dp27
g24
S'line'
p28
sS'x'
I1035
sg26
I1
sS'y'
I0
s(dp29
S'y'
I0
sS'x'
I1084
sg26
I0
s(dp30
S'y'
I34
sS'x'
I1108
sg26
I0
s(dp31
g24
S'curve'
p32
sS'x'
I1108
sg26
I1
sS'y'
I71
s(dp33
S'y'
I107
sS'x'
I1108
sg26
I0
s(dp34
S'y'
I141
sS'x'
I1084
sg26
I0
s(dp35
g24
S'curve'
p36
sS'x'
I1035
sg26
I1
sS'y'
I141
s(dp37
g24
S'line'
p38
sS'x'
I353
sg26
I0
sS'y'
I141
s(dp39
g24
S'line'
p40
sS'x'
I353
sg26
I0
sS'y'
I665
s(dp41
g24
S'line'
p42
sS'x'
I975
sg26
I1
sS'y'
I665
s(dp43
S'y'
I665
sS'x'
I1024
sg26
I0
s(dp44
S'y'
I698
sS'x'
I1049
sg26
I0
s(dp45
g24
S'curve'
p46
sS'x'
I1049
sg26
I1
sS'y'
I734
s(dp47
S'y'
I770
sS'x'
I1049
sg26
I0
s(dp48
S'y'
I803
sS'x'
I1026
sg26
I0
s(dp49
g24
S'curve'
p50
sS'x'
I975
sg26
I1
sS'y'
I803
s(dp51
g24
S'line'
p52
sS'x'
I353
sg26
I0
sS'y'
I803
s(dp53
g24
S'line'
p54
sS'x'
I353
sg26
I0
sS'y'
I1285
s(dp55
g24
S'line'
p56
sS'x'
I1007
sg26
I1
sS'y'
I1285
s(dp57
S'y'
I1285
sS'x'
I1056
sg26
I0
s(dp58
S'y'
I1319
sS'x'
I1080
sg26
I0
s(dp59
g24
S'curve'
p60
sS'x'
I1080
sg26
I1
sS'y'
I1356
s(dp61
S'y'
I1392
sS'x'
I1080
sg26
I0
s(dp62
S'y'
I1426
sS'x'
I1056
sg26
I0
s(dp63
g24
S'curve'
p64
sS'x'
I1007
sg26
I1
sS'y'
I1426
s(dp65
g24
S'line'
p66
sS'x'
I261
sg26
I1
sS'y'
I1426
s(dp67
S'y'
I1426
sS'x'
I213
sg26
I0
s(dp68
S'y'
I1383
sS'x'
I178
sg26
I0
s(dp69
g24
S'curve'
p70
sS'x'
I178
sg26
I1
sS'y'
I1340
s(dp71
g24
S'line'
p72
sS'x'
I178
sg26
I1
sS'y'
I86
s(dp73
S'y'
I41
sS'x'
I178
sg26
I0
s(dp74
S'y'
I0
sS'x'
I222
sg26
I0
stp75
stp76
sg15
(tsg3
(tsssg19
S'F'
s."
VStem: 150 953<151.5 780.5 704 780.5 704 1259>
LayerCount: 2
Fore
SplineSet
334 0 m 256
 437 0 519 95 519 208 c 258
 520 608 l 257
 974 608 l 258
 1046 608 1103 666 1103 742 c 256
 1103 819 1046 878 974 878 c 258
 520 878 l 257
 520 1185 l 257
 1005 1185 l 258
 1077 1185 1134 1242 1134 1319 c 256
 1134 1395 1077 1455 1005 1455 c 258
 383 1455 l 258
 258 1455 150 1398 150 1259 c 258
 150 208 l 258
 150 95 232 0 334 0 c 256
EndSplineSet
EndChar

StartChar: G
Encoding: 71 71 39
Width: 1528
VWidth: 0
GlyphClass: 2
Flags: W
PickledData: "(dp1
S'b'
(dp2
sS'anchors'
p3
(tsS'lib'
p4
(dp5
sS'unicodes'
p6
(tsS'com.fontlab.hintData'
p7
(dp8
S'vhints'
p9
((dp10
S'position'
p11
I102
sS'width'
p12
I385
stp13
sS'hhints'
p14
((dp15
g11
I-38
sg12
I283
s(dp16
g11
I571
sg12
I213
s(dp17
g11
I1209
sg12
I278
stp18
ssg12
I1538
sS'contours'
p19
(tsS'components'
p20
(tsS'com.typemytype.robofont.layerData'
p21
(dp22
S'b'
(dp23
S'name'
p24
S'G'
sg4
(dp25
sg6
(tsg12
I1448
sg19
((dp26
S'points'
p27
((dp28
S'segmentType'
p29
S'curve'
p30
sS'x'
I783
sS'smooth'
p31
I1
sS'y'
S'-22'
p32
s(dp33
S'y'
S'-22'
p34
sS'x'
I965
sg31
I0
s(dp35
S'y'
I34
sS'x'
I1086
sg31
I0
s(dp36
g29
S'curve'
p37
sS'x'
I1166
sg31
I1
sS'y'
I86
s(dp38
S'y'
I154
sS'x'
I1270
sg31
I0
s(dp39
S'y'
I258
sS'x'
I1186
sg31
I0
s(dp40
g29
S'curve'
p41
sS'x'
I1112
sg31
I1
sS'y'
I214
s(dp42
S'y'
I162
sS'x'
I1024
sg31
I0
s(dp43
S'y'
I120
sS'x'
I939
sg31
I0
s(dp44
g29
S'curve'
p45
sS'x'
I806
sg31
I1
sS'y'
I120
s(dp46
S'y'
I120
sS'x'
I446
sg31
I0
s(dp47
S'y'
I406
sS'x'
I316
sg31
I0
s(dp48
g29
S'curve'
p49
sS'x'
I316
sg31
I1
sS'y'
I706
s(dp50
S'y'
I1005
sS'x'
I316
sg31
I0
s(dp51
S'y'
I1296
sS'x'
I450
sg31
I0
s(dp52
g29
S'curve'
p53
sS'x'
I801
sg31
I1
sS'y'
I1296
s(dp54
S'y'
I1296
sS'x'
I980
sg31
I0
s(dp55
S'y'
I1246
sS'x'
I1053
sg31
I0
s(dp56
g29
S'curve'
p57
sS'x'
I1094
sg31
I1
sS'y'
I1225
s(dp58
S'y'
I1184
sS'x'
I1174
sg31
I0
s(dp59
S'y'
I1300
sS'x'
I1231
sg31
I0
s(dp60
g29
S'curve'
p61
sS'x'
I1156
sg31
I1
sS'y'
I1343
s(dp62
S'y'
I1372
sS'x'
I1106
sg31
I0
s(dp63
S'y'
I1438
sS'x'
I995
sg31
I0
s(dp64
g29
S'curve'
p65
sS'x'
I797
sg31
I1
sS'y'
I1438
s(dp66
S'y'
I1438
sS'x'
I359
sg31
I0
s(dp67
S'y'
I1093
sS'x'
I128
sg31
I0
s(dp68
g29
S'curve'
p69
sS'x'
I128
sg31
I1
sS'y'
I704
s(dp70
S'y'
I307
sS'x'
I128
sg31
I0
s(dp71
S'y'
S'-22'
p72
sS'x'
I350
sg31
I0
stp73
stp74
sg20
(tsg3
(tsssg24
S'G'
s."
HStem: -38 283<771.5 916> 571 213<962 1007.5 901 1098 901 1098> 1209 278<754 940.5>
VStem: 102 385<525.5 866.5 525.5 934>
AnchorPoint: "top" 826 1438 basechar 0
AnchorPoint: "bot" 874 0 basechar 0
LayerCount: 2
Fore
SplineSet
867 -38 m 256
 965 -38 1095 -20 1192 -8 c 257
 1413 32 1444 107 1444 339 c 258
 1444 602 l 258
 1444 724 1425 782 1321 782 c 256
 1191 782 1072 784 943 784 c 256
 859 784 820 744 820 679 c 256
 820 592 881 571 962 571 c 258
 1098 571 l 257
 1098 272 l 257
 1024 255 952 245 884 245 c 256
 659 245 487 346 487 705 c 256
 487 1028 621 1209 887 1209 c 256
 994 1209 1137 1180 1218 1132 c 256
 1240 1118 1261 1111 1281 1111 c 256
 1349 1111 1401 1174 1401 1243 c 256
 1401 1278 1383 1327 1336 1360 c 256
 1226 1437 1035 1487 865 1487 c 256
 340 1487 102 1144 102 724 c 256
 102 195 399 -38 867 -38 c 256
EndSplineSet
EndChar

StartChar: H
Encoding: 72 72 45
Width: 1557
VWidth: 0
GlyphClass: 2
Flags: W
PickledData: "(dp1
S'b'
(dp2
sS'anchors'
p3
(tsS'lib'
p4
(dp5
sS'unicodes'
p6
(tsS'com.fontlab.hintData'
p7
(dp8
S'vhints'
p9
((dp10
S'position'
p11
I150
sS'width'
p12
I369
s(dp13
g11
I1037
sg12
I370
stp14
sS'hhints'
p15
((dp16
g11
I901
sg12
I21
stp17
ssg12
I1524
sS'contours'
p18
(tsS'components'
p19
(tsS'com.typemytype.robofont.layerData'
p20
(dp21
S'b'
(dp22
S'name'
p23
S'H'
sg4
(dp24
sg6
(tsg12
I1464
sg18
(tsg19
(tsg3
(tsssg23
S'H'
s."
HStem: 901 21<519 1037 519 519>
VStem: 150 369<151 602 208 602 901 1248> 1037 370<602 602 901 901 901 1248>
AnchorPoint: "top" 786 1438 basechar 0
LayerCount: 2
Fore
SplineSet
334 0 m 256
 437 0 519 94 519 208 c 258
 519 602 l 257
 1037 602 l 257
 1038 208 l 258
 1038 94 1120 0 1222 0 c 256
 1324 0 1407 94 1407 208 c 258
 1407 1248 l 258
 1407 1362 1324 1456 1222 1456 c 256
 1121 1456 1037 1362 1037 1248 c 258
 1037 901 l 257
 519 901 l 257
 519 1248 l 258
 519 1362 437 1456 334 1456 c 256
 232 1456 150 1362 150 1248 c 258
 150 208 l 258
 150 94 232 0 334 0 c 256
EndSplineSet
EndChar

StartChar: Hbar
Encoding: 294 294 46
Width: 1557
VWidth: 0
GlyphClass: 2
Flags: W
PickledData: "(dp1
S'com.typemytype.robofont.layerData'
p2
(dp3
S'b'
(dp4
S'name'
p5
S'Hbar'
p6
sS'lib'
p7
(dp8
sS'unicodes'
p9
(tsS'width'
p10
I1464
sS'contours'
p11
(tsS'components'
p12
(tsS'anchors'
p13
(tsssS'com.fontlab.hintData'
p14
(dp15
S'vhints'
p16
((dp17
S'position'
p18
I150
sg10
I369
s(dp19
g18
I1037
sg10
I370
stp20
sS'hhints'
p21
((dp22
g18
I901
sg10
I21
s(dp23
g18
I1003
sg10
I145
stp24
ss."
HStem: 901 21 1003 145<101 1455>
VStem: 150 369 1037 370
LayerCount: 2
Fore
SplineSet
101 1003 m 258
 1455 1003 l 258
 1504 1003 1530 1038 1530 1075 c 256
 1530 1113 1506 1148 1455 1148 c 258
 101 1148 l 258
 52 1148 27 1113 27 1075 c 256
 27 1038 52 1003 101 1003 c 258
EndSplineSet
Refer: 45 72 N 1 0 0 1 0 0 2
EndChar

StartChar: I
Encoding: 73 73 48
Width: 688
VWidth: 0
GlyphClass: 2
Flags: W
PickledData: "(dp1
S'b'
(dp2
sS'anchors'
p3
(tsS'lib'
p4
(dp5
sS'unicodes'
p6
(tsS'com.fontlab.hintData'
p7
(dp8
S'vhints'
p9
((dp10
S'position'
p11
I160
sS'width'
p12
I368
stp13
ssg12
I637
sS'contours'
p14
(tsS'components'
p15
(tsS'com.typemytype.robofont.layerData'
p16
(dp17
S'b'
(dp18
S'name'
p19
S'I'
sg4
(dp20
sg6
(tsg12
I592
sg14
(tsg15
(tsg3
(tsssg19
S'I'
s."
VStem: 160 368<151 1247 208 1247>
AnchorPoint: "top" 345 1438 basechar 0
AnchorPoint: "ogonek" 344 23 basechar 0
LayerCount: 2
Fore
SplineSet
343 0 m 256
 446 0 528 94 528 208 c 258
 528 1247 l 258
 528 1361 446 1456 344 1456 c 256
 241 1456 160 1361 160 1247 c 258
 160 208 l 258
 160 94 241 0 343 0 c 256
EndSplineSet
EndChar

StartChar: J
Encoding: 74 74 59
Width: 1171
VWidth: 0
GlyphClass: 2
Flags: W
PickledData: "(dp1
S'b'
(dp2
sS'anchors'
p3
(tsS'lib'
p4
(dp5
sS'unicodes'
p6
(tsS'com.fontlab.hintData'
p7
(dp8
S'vhints'
p9
((dp10
S'position'
p11
I668
sS'width'
p12
I367
stp13
sS'hhints'
p14
((dp15
g11
I-35
sg12
I329
stp16
ssg12
I1126
sS'contours'
p17
(tsS'components'
p18
(tsS'com.typemytype.robofont.layerData'
p19
(dp20
S'b'
(dp21
S'name'
p22
S'J'
sg4
(dp23
sg6
(tsg12
I1003
sg17
(tsg18
(tsg3
(tsssg22
S'J'
s."
HStem: -35 329<445.5 543.5 445.5 677>
VStem: 668 367<480 480 480 511 480 1248>
AnchorPoint: "top" 854 1438 basechar 0
LayerCount: 2
Fore
SplineSet
512 -35 m 256
 842 -35 1034 146 1035 480 c 258
 1036 1248 l 258
 1036 1361 954 1456 851 1456 c 256
 749 1456 668 1361 668 1248 c 258
 668 511 l 258
 668 347 609 294 478 294 c 256
 413 294 351 328 313 357 c 256
 279 387 245 400 214 400 c 256
 134 400 71 326 71 238 c 256
 71 228 72 218 73 208 c 256
 79 175 97 138 130 105 c 256
 221 9 363 -35 512 -35 c 256
EndSplineSet
EndChar

StartChar: K
Encoding: 75 75 61
Width: 1419
VWidth: 0
GlyphClass: 2
Flags: W
PickledData: "(dp1
S'b'
(dp2
sS'anchors'
p3
(tsS'lib'
p4
(dp5
sS'unicodes'
p6
(tsS'com.fontlab.hintData'
p7
(dp8
S'vhints'
p9
((dp10
S'position'
p11
I151
sS'width'
p12
I368
stp13
ssg12
I1329
sS'contours'
p14
(tsS'components'
p15
(tsS'com.typemytype.robofont.layerData'
p16
(dp17
S'b'
(dp18
S'name'
p19
S'K'
sg4
(dp20
sg6
(tsg12
I1210
sg14
(tsg15
(tsg3
(tsssg19
S'K'
s."
VStem: 151 368<152 209 152 1247>
AnchorPoint: "top" 705 1438 basechar 0
AnchorPoint: "bot" 712 0 basechar 0
LayerCount: 2
Fore
SplineSet
334 0 m 256
 437 0 519 95 519 209 c 258
 517 715 l 257
 954 193 l 257
 1012 112 1078 -1 1173 0 c 256
 1256 0 1343 69 1343 161 c 256
 1343 221 1292 301 1247 364 c 257
 904 761 l 257
 1224 1105 l 257
 1268 1163 1318 1234 1318 1293 c 256
 1318 1386 1237 1455 1155 1455 c 256
 1083 1455 1037 1393 974 1310 c 257
 517 796 l 257
 519 1247 l 258
 519 1361 433 1456 334 1456 c 256
 232 1456 151 1361 151 1247 c 258
 151 209 l 258
 151 95 232 0 334 0 c 256
EndSplineSet
EndChar

StartChar: L
Encoding: 76 76 63
Width: 1189
VWidth: 0
GlyphClass: 2
Flags: W
PickledData: "(dp1
S'b'
(dp2
sS'anchors'
p3
(tsS'lib'
p4
(dp5
sS'unicodes'
p6
(tsS'width'
p7
I1169
sS'contours'
p8
(tsS'components'
p9
(tsS'com.typemytype.robofont.layerData'
p10
(dp11
S'b'
(dp12
S'name'
p13
S'L'
sg4
(dp14
sg6
(tsg7
I1095
sg8
((dp15
S'points'
p16
((dp17
S'segmentType'
p18
S'curve'
p19
sS'x'
I266
sS'smooth'
p20
I1
sS'y'
I0
s(dp21
g18
S'line'
p22
sS'x'
I1035
sg20
I1
sS'y'
I0
s(dp23
S'y'
I0
sS'x'
I1084
sg20
I0
s(dp24
S'y'
I34
sS'x'
I1108
sg20
I0
s(dp25
g18
S'curve'
p26
sS'x'
I1108
sg20
I1
sS'y'
I71
s(dp27
S'y'
I107
sS'x'
I1108
sg20
I0
s(dp28
S'y'
I141
sS'x'
I1084
sg20
I0
s(dp29
g18
S'curve'
p30
sS'x'
I1035
sg20
I1
sS'y'
I141
s(dp31
g18
S'line'
p32
sS'x'
I356
sg20
I0
sS'y'
I141
s(dp33
g18
S'line'
p34
sS'x'
I356
sg20
I0
sS'y'
I665
s(dp35
g18
S'line'
p36
sS'x'
I975
sg20
I1
sS'y'
I665
s(dp37
S'y'
I665
sS'x'
I1024
sg20
I0
s(dp38
S'y'
I698
sS'x'
I1049
sg20
I0
s(dp39
g18
S'curve'
p40
sS'x'
I1049
sg20
I1
sS'y'
I734
s(dp41
S'y'
I770
sS'x'
I1049
sg20
I0
s(dp42
S'y'
I803
sS'x'
I1026
sg20
I0
s(dp43
g18
S'curve'
p44
sS'x'
I975
sg20
I1
sS'y'
I803
s(dp45
g18
S'line'
p46
sS'x'
I356
sg20
I0
sS'y'
I803
s(dp47
g18
S'line'
p48
sS'x'
I356
sg20
I0
sS'y'
I1285
s(dp49
g18
S'line'
p50
sS'x'
I1007
sg20
I1
sS'y'
I1285
s(dp51
S'y'
I1285
sS'x'
I1056
sg20
I0
s(dp52
S'y'
I1319
sS'x'
I1080
sg20
I0
s(dp53
g18
S'curve'
p54
sS'x'
I1080
sg20
I1
sS'y'
I1356
s(dp55
S'y'
I1392
sS'x'
I1080
sg20
I0
s(dp56
S'y'
I1426
sS'x'
I1056
sg20
I0
s(dp57
g18
S'curve'
p58
sS'x'
I1007
sg20
I1
sS'y'
I1426
s(dp59
g18
S'line'
p60
sS'x'
I261
sg20
I1
sS'y'
I1426
s(dp61
S'y'
I1426
sS'x'
I213
sg20
I0
s(dp62
S'y'
I1383
sS'x'
I178
sg20
I0
s(dp63
g18
S'curve'
p64
sS'x'
I178
sg20
I1
sS'y'
I1340
s(dp65
g18
S'line'
p66
sS'x'
I178
sg20
I1
sS'y'
I86
s(dp67
S'y'
I41
sS'x'
I178
sg20
I0
s(dp68
S'y'
I0
sS'x'
I222
sg20
I0
stp69
stp70
sg9
(tsg3
(tsssg13
S'L'
s."
AnchorPoint: "top" 449 1453 basechar 0
AnchorPoint: "caron.alt" 435 992 basechar 0
AnchorPoint: "bot" 674 0 basechar 0
AnchorPoint: "mid" 338 743 basechar 0
LayerCount: 2
Fore
SplineSet
335 0 m 258
 1021 0 l 258
 1094 0 1153 61 1153 139 c 256
 1153 216 1094 277 1021 277 c 258
 520 277 l 257
 519 1248 l 258
 519 1362 437 1456 334 1456 c 256
 232 1456 150 1362 150 1248 c 258
 150 301 l 258
 150 153 192 0 335 0 c 258
EndSplineSet
EndChar

StartChar: Lslash
Encoding: 321 321 70
Width: 1197
VWidth: 0
GlyphClass: 2
Flags: HW
LayerCount: 2
Fore
SplineSet
335 0 m 2
 1021 0 l 2
 1094 0 1153 61 1153 139 c 0
 1153 216 1094 277 1021 277 c 2
 520 277 l 1
 519.54640986 717.43602626 l 1
 724 849 l 2
 751.991928056 867.012543996 764 893 764 922 c 0
 764 978 719 1040 665 1040 c 0
 650 1040 635.856591835 1036.22244815 620 1026 c 2
 519.295491568 961.077687116 l 1
 519 1248 l 2
 519 1362 437 1456 334 1456 c 0
 232 1456 150 1362 150 1248 c 2
 150 722.423212567 l 1
 25 641 l 2
 -4.7041015625 621.547851562 -18 589 -18 558 c 0
 -18 503 21 446 74 446 c 1
 74 446 104 453 122 462 c 1
 150 479.924067982 l 1
 150 301 l 2
 150 153 192 0 335 0 c 2
EndSplineSet
EndChar

StartChar: M
Encoding: 77 77 71
Width: 2006
VWidth: 0
GlyphClass: 2
Flags: W
PickledData: "(dp1
S'b'
(dp2
sS'anchors'
p3
(tsS'lib'
p4
(dp5
sS'unicodes'
p6
(tsS'width'
p7
I1984
sS'contours'
p8
(tsS'components'
p9
(tsS'com.typemytype.robofont.layerData'
p10
(dp11
S'b'
(dp12
S'name'
p13
S'M'
sg4
(dp14
sg6
(tsg7
I1899
sg8
(tsg9
(tsg3
(tsssg13
S'M'
s."
AnchorPoint: "top" 1022 1438 basechar 0
LayerCount: 2
Fore
SplineSet
1003 71 m 256
 1121 71 1167 142 1217 278 c 257
 1544 1089 l 257
 1543 128 l 258
 1543 -83 1855 -78 1855 128 c 258
 1856 1196 l 258
 1856 1471 1434 1595 1295 1213 c 257
 1003 494 l 257
 711 1213 l 257
 572 1595 150 1471 150 1196 c 258
 151 128 l 258
 151 -78 463 -83 463 128 c 258
 463 1089 l 257
 789 278 l 257
 839 141 885 71 1003 71 c 256
EndSplineSet
EndChar

StartChar: N
Encoding: 78 78 72
Width: 1609
VWidth: 0
GlyphClass: 2
Flags: W
PickledData: "(dp1
S'b'
(dp2
sS'anchors'
p3
(tsS'lib'
p4
(dp5
sS'unicodes'
p6
(tsS'com.fontlab.hintData'
p7
(dp8
S'hhints'
p9
((dp10
S'position'
p11
I933
sS'width'
p12
I20
stp13
ssg12
I1557
sS'contours'
p14
(tsS'components'
p15
(tsS'com.typemytype.robofont.layerData'
p16
(dp17
S'b'
(dp18
S'name'
p19
S'N'
sg4
(dp20
sg6
(tsg12
I1499
sg14
(tsg15
(tsg3
(tsssg19
S'N'
s."
HStem: 933 20<463 463>
AnchorPoint: "top" 873 1452 basechar 0
AnchorPoint: "bot" 830 0 basechar 0
LayerCount: 2
Fore
SplineSet
306 0 m 256
 392 0 463 76 463 166 c 258
 463 953 l 257
 1060 170 l 257
 1127 75 1198 0 1281 0 c 256
 1435 0 1459 145 1459 302 c 258
 1459 1290 l 258
 1459 1380 1389 1456 1302 1456 c 256
 1215 1456 1147 1380 1147 1290 c 258
 1147 516 l 257
 555 1284 l 257
 493 1377 416 1455 332 1456 c 256
 232 1456 150 1380 150 1243 c 258
 150 166 l 258
 150 77 218 0 306 0 c 256
EndSplineSet
EndChar

StartChar: O
Encoding: 79 79 78
Width: 1633
VWidth: 0
GlyphClass: 2
Flags: W
PickledData: "(dp1
S'b'
(dp2
sS'anchors'
p3
(tsS'com.typemytype.robofont.layerData'
p4
(dp5
S'b'
(dp6
S'name'
p7
S'O'
sS'lib'
p8
(dp9
sS'unicodes'
p10
(tsS'width'
p11
I1597
sS'contours'
p12
(tsS'components'
p13
(tsg3
(tsssg10
(tsS'com.typemytype.robofont.guides'
p14
(tsS'com.fontlab.hintData'
p15
(dp16
S'vhints'
p17
((dp18
S'position'
p19
I102
sg11
I387
s(dp20
g19
I1146
sg11
I385
stp21
sS'hhints'
p22
((dp23
g19
I-38
sg11
I269
s(dp24
g19
I1219
sg11
I268
stp25
ssg11
I1604
sg12
(tsg13
(tsg8
(dp26
sg7
S'O'
s."
HStem: -38 269<700 934.5 700 1051.5> 1219 268<700 934.5>
VStem: 102 387<541.5 908 541.5 979.5> 1146 385<541.5 908>
AnchorPoint: "top" 816 1452 basechar 0
LayerCount: 2
Fore
SplineSet
817 -38 m 256
 1286 -38 1531 215 1531 724 c 256
 1531 1235 1286 1487 817 1487 c 256
 347 1487 102 1235 102 724 c 256
 102 215 347 -38 817 -38 c 256
817 231 m 256
 583 231 489 359 489 724 c 256
 489 1092 583 1219 817 1219 c 256
 1052 1219 1146 1092 1146 724 c 256
 1146 359 1052 231 817 231 c 256
EndSplineSet
EndChar

StartChar: OE
Encoding: 338 338 79
Width: 1999
VWidth: 0
GlyphClass: 2
Flags: W
PickledData: "(dp1
S'com.fontlab.hintData'
p2
(dp3
S'vhints'
p4
((dp5
S'position'
p6
I86
sS'width'
p7
I362
s(dp8
g6
I997
sg7
I849
stp9
sS'hhints'
p10
((dp11
g6
I-17
sg7
I249
s(dp12
g6
I0
sg7
I269
s(dp13
g6
I607
sg7
I268
s(dp14
g6
I1186
sg7
I269
s(dp15
g6
I1223
sg7
I248
stp16
ss."
HStem: -17 249<646.5 747> 0 269<1350 1679 1350 1734 1350 1787.5> 607 268<1350 1620 1620 1647 1350 1689.5> 1186 269<1350 1668 1668 1717> 1223 248<657 826.5 549.5 831>
VStem: 86 362<581.5 886.5 581.5 958.5> 997 849<682 803.5 682 1201 257 803.5>
LayerCount: 2
Fore
SplineSet
761 232 m 256
 532 232 448 430 448 733 c 256
 448 1040 551 1223 763 1223 c 256
 899 1223 980 1208 997 1201 c 257
 997 257 l 257
 986 249 887 231 761 232 c 256
732 -17 m 256
 762 -17 1032 -1 1061 0 c 258
 1734 0 l 258
 1841 0 1910 31 1910 134 c 256
 1910 264 1789 269 1679 269 c 258
 1350 269 l 257
 1350 607 l 257
 1620 607 l 258
 1759 607 1846 624 1846 740 c 256
 1846 867 1742 875 1647 875 c 258
 1350 875 l 257
 1350 1186 l 257
 1668 1186 l 258
 1810 1186 1894 1204 1894 1321 c 256
 1894 1434 1811 1455 1717 1455 c 258
 1107 1455 l 258
 1055 1455 885 1471 768 1471 c 256
 331 1471 86 1191 86 726 c 256
 86 254 345 -17 732 -17 c 256
EndSplineSet
EndChar

StartChar: Omega
Encoding: 8486 8486 87
Width: 1539
VWidth: 0
GlyphClass: 2
Flags: W
PickledData: "(dp1
S'com.fontlab.hintData'
p2
(dp3
S'vhints'
p4
((dp5
S'position'
p6
I47
sS'width'
p7
I391
s(dp8
g6
I1075
sg7
I390
stp9
sS'hhints'
p10
((dp11
g6
I0
sg7
I225
s(dp12
g6
I1100
sg7
I360
stp13
ss."
HStem: 0 225<110 348 1164 1402> 1100 360<635 877.5>
VStem: 47 391<617.5 1058.5> 1075 390<618.5 1058>
LayerCount: 2
Fore
SplineSet
110 0 m 258
 638 0 l 257
 595 105 438 476 438 759 c 256
 438 948 514 1100 756 1100 c 256
 999 1100 1075 950 1075 759 c 256
 1075 478 918 110 874 0 c 257
 1402 0 l 258
 1469 0 1503 56 1503 113 c 256
 1503 169 1469 225 1402 225 c 258
 1164 225 l 257
 1346 463 1465 762 1465 961 c 256
 1465 1155 1354 1460 756 1460 c 256
 158 1460 47 1156 47 961 c 256
 47 762 146 518 348 225 c 257
 110 225 l 258
 43 225 9 169 9 113 c 256
 9 56 43 0 110 0 c 258
EndSplineSet
EndChar

StartChar: Oslash
Encoding: 216 216 88
Width: 1612
VWidth: 0
GlyphClass: 2
Flags: W
PickledData: "(dp1
S'com.typemytype.robofont.layerData'
p2
(dp3
S'b'
(dp4
S'name'
p5
S'Oslash'
p6
sS'lib'
p7
(dp8
sS'unicodes'
p9
(tsS'width'
p10
I1597
sS'contours'
p11
(tsS'components'
p12
(tsS'anchors'
p13
(tsssS'com.fontlab.hintData'
p14
(dp15
S'vhints'
p16
((dp17
S'position'
p18
I102
sg10
I387
s(dp19
g18
I1146
sg10
I385
stp20
sS'hhints'
p21
((dp22
g18
I-38
sg10
I269
s(dp23
g18
I1219
sg10
I268
stp24
ss."
HStem: -38 269 1219 268
VStem: 102 387 1146 385
LayerCount: 2
Fore
SplineSet
316 -231 m 256
 358 -231 380 -192 408 -145 c 258
 1413 1464 l 258
 1430 1491 1443 1523 1443 1553 c 256
 1443 1605 1398 1643 1350 1643 c 256
 1317 1643 1289 1627 1269 1593 c 258
 252 -51 l 258
 235 -79 223 -112 223 -141 c 256
 223 -198 267 -231 316 -231 c 256
EndSplineSet
Refer: 78 79 N 1 0 0 1 0 0 2
EndChar

StartChar: P
Encoding: 80 80 91
Width: 1382
VWidth: 0
GlyphClass: 2
Flags: W
PickledData: "(dp1
S'b'
(dp2
sS'anchors'
p3
(tsS'lib'
p4
(dp5
sS'unicodes'
p6
(tsS'com.fontlab.hintData'
p7
(dp8
S'vhints'
p9
((dp10
S'position'
p11
I978
sS'width'
p12
I362
stp13
sS'hhints'
p14
((dp15
g11
I549
sg12
I227
s(dp16
g11
I1214
sg12
I242
stp17
ssg12
I1319
sS'contours'
p18
(tsS'components'
p19
(tsS'com.typemytype.robofont.layerData'
p20
(dp21
S'b'
(dp22
S'name'
p23
S'P'
sg4
(dp24
sg6
(tsg12
I1201
sg18
((dp25
S'points'
p26
((dp27
S'segmentType'
p28
S'curve'
p29
sS'x'
I266
sS'smooth'
p30
I1
sS'y'
I0
s(dp31
g28
S'line'
p32
sS'x'
I1035
sg30
I1
sS'y'
I0
s(dp33
S'y'
I0
sS'x'
I1084
sg30
I0
s(dp34
S'y'
I34
sS'x'
I1108
sg30
I0
s(dp35
g28
S'curve'
p36
sS'x'
I1108
sg30
I1
sS'y'
I71
s(dp37
S'y'
I107
sS'x'
I1108
sg30
I0
s(dp38
S'y'
I141
sS'x'
I1084
sg30
I0
s(dp39
g28
S'curve'
p40
sS'x'
I1035
sg30
I1
sS'y'
I141
s(dp41
g28
S'line'
p42
sS'x'
I356
sg30
I0
sS'y'
I141
s(dp43
g28
S'line'
p44
sS'x'
I356
sg30
I0
sS'y'
I665
s(dp45
g28
S'line'
p46
sS'x'
I975
sg30
I1
sS'y'
I665
s(dp47
S'y'
I665
sS'x'
I1024
sg30
I0
s(dp48
S'y'
I698
sS'x'
I1049
sg30
I0
s(dp49
g28
S'curve'
p50
sS'x'
I1049
sg30
I1
sS'y'
I734
s(dp51
S'y'
I770
sS'x'
I1049
sg30
I0
s(dp52
S'y'
I803
sS'x'
I1026
sg30
I0
s(dp53
g28
S'curve'
p54
sS'x'
I975
sg30
I1
sS'y'
I803
s(dp55
g28
S'line'
p56
sS'x'
I356
sg30
I0
sS'y'
I803
s(dp57
g28
S'line'
p58
sS'x'
I356
sg30
I0
sS'y'
I1285
s(dp59
g28
S'line'
p60
sS'x'
I1007
sg30
I1
sS'y'
I1285
s(dp61
S'y'
I1285
sS'x'
I1056
sg30
I0
s(dp62
S'y'
I1319
sS'x'
I1080
sg30
I0
s(dp63
g28
S'curve'
p64
sS'x'
I1080
sg30
I1
sS'y'
I1356
s(dp65
S'y'
I1392
sS'x'
I1080
sg30
I0
s(dp66
S'y'
I1426
sS'x'
I1056
sg30
I0
s(dp67
g28
S'curve'
p68
sS'x'
I1007
sg30
I1
sS'y'
I1426
s(dp69
g28
S'line'
p70
sS'x'
I261
sg30
I1
sS'y'
I1426
s(dp71
S'y'
I1426
sS'x'
I213
sg30
I0
s(dp72
S'y'
I1383
sS'x'
I178
sg30
I0
s(dp73
g28
S'curve'
p74
sS'x'
I178
sg30
I1
sS'y'
I1340
s(dp75
g28
S'line'
p76
sS'x'
I178
sg30
I1
sS'y'
I86
s(dp77
S'y'
I41
sS'x'
I178
sg30
I0
s(dp78
S'y'
I0
sS'x'
I222
sg30
I0
stp79
stp80
sg19
(tsg3
(tsssg23
S'P'
s."
HStem: 549 227<520 719 520 779> 1214 242<520 736 736 779>
VStem: 978 362<912.5 1091.5>
AnchorPoint: "top" 735 1438 basechar 0
LayerCount: 2
Fore
SplineSet
520 776 m 257
 520 1214 l 257
 736 1214 l 258
 892 1214 978 1179 978 1004 c 256
 978 821 889 781 719 776 c 257
 520 776 l 257
334 0 m 256
 436 0 520 95 520 208 c 258
 520 549 l 257
 779 549 l 258
 1132 549 1340 700 1340 1004 c 256
 1340 1369 1087 1456 779 1456 c 258
 388 1456 l 258
 176 1456 150 1322 150 1153 c 258
 150 208 l 258
 150 95 232 0 334 0 c 256
EndSplineSet
EndChar

StartChar: Q
Encoding: 81 81 92
Width: 1633
VWidth: 0
GlyphClass: 2
Flags: W
PickledData: "(dp1
S'b'
(dp2
sS'anchors'
p3
(tsS'lib'
p4
(dp5
sS'unicodes'
p6
(tsS'com.fontlab.hintData'
p7
(dp8
S'vhints'
p9
((dp10
S'position'
p11
I102
sS'width'
p12
I387
s(dp13
g11
I1146
sg12
I385
stp14
sS'hhints'
p15
((dp16
g11
I-38
sg12
I269
s(dp17
g11
I1219
sg12
I268
stp18
ssg12
I1604
sS'contours'
p19
(tsS'components'
p20
(tsS'com.typemytype.robofont.layerData'
p21
(dp22
S'b'
(dp23
S'name'
p24
S'Q'
sg4
(dp25
sg6
(tsg12
I1597
sg19
(tsg20
(tsg3
(tsssg24
S'Q'
s."
HStem: -38 269 1219 268
VStem: 102 387 1146 385
LayerCount: 2
Fore
SplineSet
762 69 m 257
 1294 -262 l 258
 1368 -308 1439 -310 1484 -237 c 256
 1534 -153 1499 -99 1431 -54 c 258
 1077 186 l 257
 762 69 l 257
EndSplineSet
Refer: 78 79 N 1 0 0 1 0 0 2
EndChar

StartChar: R
Encoding: 82 82 93
Width: 1448
VWidth: 0
GlyphClass: 2
Flags: W
PickledData: "(dp1
S'b'
(dp2
sS'anchors'
p3
(tsS'com.typemytype.robofont.layerData'
p4
(dp5
S'b'
(dp6
S'name'
p7
S'R'
sS'lib'
p8
(dp9
sS'unicodes'
p10
(tsS'width'
p11
I1363
sS'contours'
p12
((dp13
S'points'
p14
((dp15
S'segmentType'
p16
S'curve'
p17
sS'x'
I267
sS'smooth'
p18
I1
sS'y'
I0
s(dp19
S'y'
I0
sS'x'
I311
sg18
I0
s(dp20
S'y'
I27
sS'x'
I356
sg18
I0
s(dp21
g16
S'curve'
p22
sS'x'
I356
sg18
I1
sS'y'
I84
s(dp23
g16
S'line'
p24
sS'x'
I356
sg18
I0
sS'y'
I628
s(dp25
g16
S'line'
p26
sS'x'
I669
sg18
I1
sS'y'
I628
s(dp27
S'y'
I628
sS'x'
I962
sg18
I0
s(dp28
S'y'
I722
sS'x'
I1182
sg18
I0
s(dp29
g16
S'curve'
p30
sS'x'
I1182
sg18
I1
sS'y'
I1026
s(dp31
S'y'
I1324
sS'x'
I1182
sg18
I0
s(dp32
S'y'
I1426
sS'x'
I993
sg18
I0
s(dp33
g16
S'curve'
p34
sS'x'
I684
sg18
I1
sS'y'
I1426
s(dp35
g16
S'line'
p36
sS'x'
I268
sg18
I1
sS'y'
I1426
s(dp37
S'y'
I1426
sS'x'
I217
sg18
I0
s(dp38
S'y'
I1387
sS'x'
I178
sg18
I0
s(dp39
g16
S'curve'
p40
sS'x'
I178
sg18
I1
sS'y'
I1339
s(dp41
g16
S'line'
p42
sS'x'
I178
sg18
I1
sS'y'
I84
s(dp43
S'y'
I28
sS'x'
I178
sg18
I0
s(dp44
S'y'
I0
sS'x'
I222
sg18
I0
stp45
s(dp46
g14
((dp47
g16
S'line'
p48
sS'x'
I356
sg18
I0
sS'y'
I764
s(dp49
g16
S'line'
p50
sS'x'
I356
sg18
I0
sS'y'
I1285
s(dp51
g16
S'line'
p52
sS'x'
I684
sg18
I1
sS'y'
I1285
s(dp53
S'y'
I1285
sS'x'
I914
sg18
I0
s(dp54
S'y'
I1210
sS'x'
I1008
sg18
I0
s(dp55
g16
S'curve'
p56
sS'x'
I1008
sg18
I1
sS'y'
I1026
s(dp57
S'y'
I838
sS'x'
I1008
sg18
I0
s(dp58
S'y'
I764
sS'x'
I901
sg18
I0
s(dp59
g16
S'curve'
p60
sS'x'
I670
sg18
I1
sS'y'
I764
stp61
stp62
sS'components'
p63
(tsg3
(tsssg10
(tsS'com.typemytype.robofont.guides'
p64
(tsS'com.fontlab.hintData'
p65
(dp66
S'vhints'
p67
((dp68
S'position'
p69
I979
sg11
I362
stp70
sS'hhints'
p71
((dp72
g69
I592
sg11
I238
s(dp73
g69
I1228
sg11
I228
stp74
ssg11
I1408
sg12
(tsg63
(tsg8
(dp75
sg7
S'R'
s."
HStem: 592 238<519 675 513 724 513 804.5> 1228 228<513 667 667 746>
VStem: 979 362<1007.5 1124.5>
AnchorPoint: "top" 735 1438 basechar 0
AnchorPoint: "bot" 762 0 basechar 0
LayerCount: 2
Fore
SplineSet
513 830 m 257
 513 1228 l 257
 667 1228 l 258
 825 1228 979 1222 979 1027 c 256
 979 857 819 830 675 830 c 258
 513 830 l 257
334 0 m 256
 437 0 519 68 519 208 c 258
 519 592 l 257
 724 592 l 258
 885 592 942 524 956 376 c 258
 971 245 l 257
 985 73 1043 0 1163 0 c 256
 1305 0 1353 88 1331 292 c 257
 1312 425 l 257
 1286 644 1231 721 1019 745 c 257
 1019 749 l 257
 1255 790 1341 924 1341 1091 c 256
 1341 1396 1074 1456 779 1456 c 258
 377 1456 l 258
 255 1456 150 1395 150 1261 c 258
 150 208 l 258
 150 74 232 0 334 0 c 256
EndSplineSet
EndChar

StartChar: S
Encoding: 83 83 97
Width: 1334
VWidth: 0
GlyphClass: 2
Flags: W
PickledData: "(dp1
S'b'
(dp2
sS'anchors'
p3
(tsS'lib'
p4
(dp5
sS'unicodes'
p6
(tsS'com.fontlab.hintData'
p7
(dp8
S'vhints'
p9
((dp10
S'position'
p11
I87
sS'width'
p12
I350
s(dp13
g11
I914
sg12
I355
stp14
sS'hhints'
p15
((dp16
g11
I-38
sg12
I269
s(dp17
g11
I1219
sg12
I268
stp18
ssg12
I1317
sS'contours'
p19
(tsS'components'
p20
(tsS'com.typemytype.robofont.layerData'
p21
(dp22
S'b'
(dp23
S'name'
p24
S'S'
sg4
(dp25
sg6
(tsg12
I1274
sg19
(tsg20
(tsg3
(tsssg24
S'S'
s."
HStem: -38 269<599 730.5 599 855.5> 1219 268<632.5 758.5 499.5 765>
VStem: 87 350<1023 1122.5 1023 1176.5> 914 355<332.5 431>
AnchorPoint: "top" 673 1438 basechar 0
AnchorPoint: "bot" 672 0 basechar 0
LayerCount: 2
Fore
SplineSet
672 -38 m 256
 1039 -38 1269 139 1269 421 c 256
 1269 682 1084 779 802 864 c 256
 752 882 695 876 648 894 c 256
 531 933 437 976 437 1070 c 256
 437 1175 568 1219 697 1219 c 256
 833 1219 917 1198 1041 1129 c 257
 1145 1076 1261 1251 1157 1354 c 257
 1054 1450 834 1487 683 1487 c 256
 316 1487 87 1311 87 1042 c 256
 87 839 186 746 428 655 c 257
 760 545 l 258
 845 517 914 473 914 389 c 256
 914 276 799 231 662 231 c 256
 536 231 419 263 325 303 c 257
 165 383 59 152 184 69 c 257
 302 -3 472 -38 672 -38 c 256
EndSplineSet
EndChar

StartChar: Sigma
Encoding: 931 931 103
Width: 1437
VWidth: 0
GlyphClass: 2
Flags: W
LayerCount: 2
Fore
SplineSet
417 -269 m 258
 1163 -268 l 258
 1353 -268 1357 60 1163 60 c 258
 498 60 l 257
 909 412 l 257
 1032 525 1059 651 909 787 c 257
 498 1128 l 257
 1163 1127 l 258
 1357 1127 1353 1455 1163 1455 c 258
 417 1455 l 258
 159 1455 39 1217 270 993 c 257
 715 593 l 257
 270 185 l 257
 80 -4 159 -269 417 -269 c 258
EndSplineSet
EndChar

StartChar: T
Encoding: 84 84 104
Width: 1219
VWidth: 0
GlyphClass: 2
Flags: W
PickledData: "(dp1
S'b'
(dp2
sS'anchors'
p3
(tsS'lib'
p4
(dp5
sS'unicodes'
p6
(tsS'com.fontlab.hintData'
p7
(dp8
S'hhints'
p9
((dp10
S'position'
p11
I1180
sS'width'
p12
I276
stp13
ssg12
I1199
sS'contours'
p14
(tsS'components'
p15
(tsS'com.typemytype.robofont.layerData'
p16
(dp17
S'b'
(dp18
S'name'
p19
S'T'
sg4
(dp20
sg6
(tsg12
I1158
sg14
((dp21
S'points'
p22
((dp23
S'segmentType'
p24
S'curve'
p25
sS'x'
I581
sS'smooth'
p26
I1
sS'y'
I0
s(dp27
g24
S'line'
p28
sS'x'
I1350
sg26
I1
sS'y'
I0
s(dp29
S'y'
I0
sS'x'
I1399
sg26
I0
s(dp30
S'y'
I34
sS'x'
I1423
sg26
I0
s(dp31
g24
S'curve'
p32
sS'x'
I1423
sg26
I1
sS'y'
I71
s(dp33
S'y'
I107
sS'x'
I1423
sg26
I0
s(dp34
S'y'
I141
sS'x'
I1399
sg26
I0
s(dp35
g24
S'curve'
p36
sS'x'
I1350
sg26
I1
sS'y'
I141
s(dp37
g24
S'line'
p38
sS'x'
I671
sg26
I0
sS'y'
I141
s(dp39
g24
S'line'
p40
sS'x'
I671
sg26
I0
sS'y'
I665
s(dp41
g24
S'line'
p42
sS'x'
I1290
sg26
I1
sS'y'
I665
s(dp43
S'y'
I665
sS'x'
I1339
sg26
I0
s(dp44
S'y'
I698
sS'x'
I1364
sg26
I0
s(dp45
g24
S'curve'
p46
sS'x'
I1364
sg26
I1
sS'y'
I734
s(dp47
S'y'
I770
sS'x'
I1364
sg26
I0
s(dp48
S'y'
I803
sS'x'
I1341
sg26
I0
s(dp49
g24
S'curve'
p50
sS'x'
I1290
sg26
I1
sS'y'
I803
s(dp51
g24
S'line'
p52
sS'x'
I671
sg26
I0
sS'y'
I803
s(dp53
g24
S'line'
p54
sS'x'
I671
sg26
I0
sS'y'
I1285
s(dp55
g24
S'line'
p56
sS'x'
I1322
sg26
I1
sS'y'
I1285
s(dp57
S'y'
I1285
sS'x'
I1371
sg26
I0
s(dp58
S'y'
I1319
sS'x'
I1395
sg26
I0
s(dp59
g24
S'curve'
p60
sS'x'
I1395
sg26
I1
sS'y'
I1356
s(dp61
S'y'
I1392
sS'x'
I1395
sg26
I0
s(dp62
S'y'
I1426
sS'x'
I1371
sg26
I0
s(dp63
g24
S'curve'
p64
sS'x'
I1322
sg26
I1
sS'y'
I1426
s(dp65
g24
S'line'
p66
sS'x'
I576
sg26
I1
sS'y'
I1426
s(dp67
S'y'
I1426
sS'x'
I528
sg26
I0
s(dp68
S'y'
I1383
sS'x'
I493
sg26
I0
s(dp69
g24
S'curve'
p70
sS'x'
I493
sg26
I1
sS'y'
I1340
s(dp71
g24
S'line'
p72
sS'x'
I493
sg26
I1
sS'y'
I86
s(dp73
S'y'
I41
sS'x'
I493
sg26
I0
s(dp74
S'y'
I0
sS'x'
I537
sg26
I0
stp75
stp76
sg15
(tsg3
(tsssg19
S'T'
s."
HStem: 1180 276<153 428 428 428 797 1066>
AnchorPoint: "top" 624 1454 basechar 0
AnchorPoint: "bot" 608 0 basechar 0
AnchorPoint: "mid" 617 738 basechar 0
LayerCount: 2
Fore
SplineSet
612 0 m 256
 714 0 797 95 797 208 c 258
 797 1180 l 257
 1066 1180 l 258
 1143 1180 1208 1241 1208 1317 c 256
 1208 1395 1143 1456 1066 1456 c 258
 153 1456 l 258
 76 1456 10 1395 10 1318 c 256
 10 1241 76 1180 153 1180 c 258
 428 1180 l 257
 428 208 l 258
 428 95 509 0 612 0 c 256
EndSplineSet
EndChar

StartChar: Thorn
Encoding: 222 222 109
Width: 1390
VWidth: 0
GlyphClass: 2
Flags: W
PickledData: "(dp1
S'com.fontlab.hintData'
p2
(dp3
S'vhints'
p4
((dp5
S'position'
p6
I152
sS'width'
p7
I370
s(dp8
g6
I980
sg7
I362
stp9
sS'hhints'
p10
((dp11
g6
I314
sg7
I243
s(dp12
g6
I975
sg7
I243
stp13
ss."
HStem: 314 243<522 692 522 752 522 933.5> 975 243<522 709 709 723 522 788.5>
VStem: 152 370<173.5 314 312 314 557 975> 980 362<689.5 846>
LayerCount: 2
Fore
SplineSet
522 557 m 257
 522 975 l 257
 709 975 l 258
 868 975 980 923 980 769 c 256
 980 610 863 557 692 557 c 258
 522 557 l 257
328 5 m 256
 462 5 522 139 522 312 c 258
 522 314 l 257
 752 314 l 258
 1115 314 1342 474 1342 769 c 256
 1342 1090 1061 1218 723 1218 c 258
 522 1218 l 257
 522 1252 l 258
 522 1409 446 1487 327 1487 c 256
 172 1487 152 1342 152 1209 c 258
 152 252 l 258
 152 95 201 5 328 5 c 256
EndSplineSet
EndChar

StartChar: U
Encoding: 85 85 110
Width: 1528
VWidth: 0
GlyphClass: 2
Flags: W
PickledData: "(dp1
S'b'
(dp2
sS'anchors'
p3
(tsS'lib'
p4
(dp5
sS'unicodes'
p6
(tsS'com.fontlab.hintData'
p7
(dp8
S'vhints'
p9
((dp10
S'position'
p11
I139
sS'width'
p12
I369
s(dp13
g11
I1020
sg12
I369
stp14
sS'hhints'
p15
((dp16
g11
I-38
sg12
I269
stp17
ssg12
I1513
sS'contours'
p18
(tsS'components'
p19
(tsS'com.typemytype.robofont.layerData'
p20
(dp21
S'b'
(dp22
S'name'
p23
S'U'
sg4
(dp24
sg6
(tsg12
I1490
sg18
(tsg19
(tsg3
(tsssg23
S'U'
s."
HStem: -38 269<700 826.5 700 945>
VStem: 139 369<312 1246 496 1246 496 1246> 1020 369<490 496 496 1246>
AnchorPoint: "top" 770 1438 basechar 0
AnchorPoint: "ogonek" 941 9 basechar 0
LayerCount: 2
Fore
SplineSet
763 -38 m 256
 1127 -38 1389 140 1389 490 c 258
 1389 1246 l 258
 1389 1360 1306 1454 1204 1454 c 256
 1102 1454 1020 1360 1020 1246 c 258
 1020 496 l 258
 1020 311 890 231 763 231 c 256
 637 231 508 311 508 496 c 258
 508 1246 l 258
 508 1360 425 1454 323 1454 c 256
 220 1454 139 1360 139 1246 c 258
 139 490 l 258
 139 134 404 -38 763 -38 c 256
EndSplineSet
EndChar

StartChar: V
Encoding: 86 86 121
Width: 1449
VWidth: 0
GlyphClass: 2
Flags: W
PickledData: "(dp1
S'b'
(dp2
sS'anchors'
p3
(tsS'com.typemytype.robofont.layerData'
p4
(dp5
S'b'
(dp6
S'name'
p7
S'V'
sS'lib'
p8
(dp9
sS'unicodes'
p10
(tsS'width'
p11
I1289
sS'contours'
p12
((dp13
S'points'
p14
((dp15
S'segmentType'
p16
S'curve'
p17
sS'x'
I644
sS'smooth'
p18
I1
sS'y'
S'-5'
p19
s(dp20
S'y'
S'-5'
p21
sS'x'
I712
sg18
I0
s(dp22
S'y'
I38
sS'x'
I764
sg18
I0
s(dp23
g16
S'curve'
p24
sS'x'
I793
sg18
I1
sS'y'
I117
s(dp25
g16
S'line'
p26
sS'x'
I1243
sg18
I1
sS'y'
I1324
s(dp27
S'y'
I1335
sS'x'
I1247
sg18
I0
s(dp28
S'y'
I1342
sS'x'
I1248
sg18
I0
s(dp29
g16
S'curve'
p30
sS'x'
I1248
sg18
I1
sS'y'
I1351
s(dp31
S'y'
I1395
sS'x'
I1248
sg18
I0
s(dp32
S'y'
I1427
sS'x'
I1203
sg18
I0
s(dp33
g16
S'curve'
p34
sS'x'
I1160
sg18
I1
sS'y'
I1427
s(dp35
S'y'
I1427
sS'x'
I1125
sg18
I0
s(dp36
S'y'
I1408
sS'x'
I1090
sg18
I0
s(dp37
g16
S'curve'
p38
sS'x'
I1076
sg18
I1
sS'y'
I1369
s(dp39
g16
S'line'
p40
sS'x'
I651
sg18
I0
sS'y'
I192
s(dp41
g16
S'line'
p42
sS'x'
I650
sg18
I0
sS'y'
I190
s(dp43
g16
S'line'
p44
sS'x'
I214
sg18
I1
sS'y'
I1370
s(dp45
S'y'
I1407
sS'x'
I200
sg18
I0
s(dp46
S'y'
I1427
sS'x'
I170
sg18
I0
s(dp47
g16
S'curve'
p48
sS'x'
I135
sg18
I1
sS'y'
I1427
s(dp49
S'y'
I1427
sS'x'
I90
sg18
I0
s(dp50
S'y'
I1392
sS'x'
I43
sg18
I0
s(dp51
g16
S'curve'
p52
sS'x'
I43
sg18
I1
sS'y'
I1344
s(dp53
S'y'
I1336
sS'x'
I43
sg18
I0
s(dp54
S'y'
I1326
sS'x'
I44
sg18
I0
s(dp55
g16
S'curve'
p56
sS'x'
I48
sg18
I0
sS'y'
I1318
s(dp57
g16
S'line'
p58
sS'x'
I501
sg18
I1
sS'y'
I117
s(dp59
S'y'
I35
sS'x'
I532
sg18
I0
s(dp60
S'y'
S'-5'
p61
sS'x'
I581
sg18
I0
stp62
stp63
sS'components'
p64
(tsg3
(tsssg10
(tsS'com.typemytype.robofont.guides'
p65
(tsg11
I1365
sg12
(tsg64
(tsg8
(dp66
sg7
S'V'
s."
LayerCount: 2
Fore
SplineSet
716 3 m 256
 917 3 958 115 1057 421 c 257
 1355 1192 l 257
 1448 1465 1115 1578 1022 1271 c 257
 716 392 l 257
 411 1271 l 257
 318 1578 -15 1465 78 1192 c 257
 376 421 l 257
 475 115 516 3 716 3 c 256
EndSplineSet
EndChar

StartChar: W
Encoding: 87 87 122
Width: 2190
VWidth: 0
GlyphClass: 2
Flags: W
PickledData: "(dp1
S'b'
(dp2
sS'anchors'
p3
(tsS'lib'
p4
(dp5
sS'unicodes'
p6
(tsS'width'
p7
I2070
sS'contours'
p8
(tsS'components'
p9
(tsS'com.typemytype.robofont.layerData'
p10
(dp11
S'b'
(dp12
S'name'
p13
S'W'
sg4
(dp14
sg6
(tsg7
I2126
sg8
(tsg9
(tsg3
(tsssg13
S'W'
s."
AnchorPoint: "top" 1093 1438 basechar 0
LayerCount: 2
Fore
SplineSet
1867 162 m 258
 2123 1249 l 258
 2172 1471 1858 1585 1803 1300 c 257
 1599 375 l 257
 1364 1147 l 257
 1317 1327 1260 1455 1095 1455 c 256
 930 1455 872 1327 826 1147 c 257
 590 375 l 257
 387 1300 l 257
 331 1585 18 1471 66 1249 c 257
 322 162 l 258
 373 -61 744 -104 826 204 c 257
 1095 1117 l 257
 1363 204 l 257
 1446 -104 1816 -61 1867 162 c 258
EndSplineSet
EndChar

StartChar: X
Encoding: 88 88 127
Width: 1373
VWidth: 0
GlyphClass: 2
Flags: W
PickledData: "(dp1
S'b'
(dp2
sS'anchors'
p3
(tsS'lib'
p4
(dp5
sS'unicodes'
p6
(tsS'com.fontlab.hintData'
p7
(dp8
S'hhints'
p9
((dp10
S'position'
p11
I980
sS'width'
p12
I21
stp13
ssg12
I1322
sS'contours'
p14
(tsS'components'
p15
(tsS'com.typemytype.robofont.layerData'
p16
(dp17
S'b'
(dp18
S'name'
p19
S'X'
sg4
(dp20
sg6
(tsg12
I1274
sg14
((dp21
S'points'
p22
((dp23
S'segmentType'
p24
S'curve'
p25
sS'x'
I151
sS'smooth'
p26
I1
sS'y'
I0
s(dp27
S'y'
I0
sS'x'
I176
sg26
I0
s(dp28
S'y'
I12
sS'x'
I201
sg26
I0
s(dp29
g24
S'curve'
p30
sS'x'
I222
sg26
I1
sS'y'
I41
s(dp31
g24
S'line'
p32
sS'x'
I641
sg26
I0
sS'y'
I616
s(dp33
g24
S'line'
p34
sS'x'
I746
sg26
I0
sS'y'
I734
s(dp35
g24
S'line'
p36
sS'x'
I1175
sg26
I1
sS'y'
I1310
s(dp37
S'y'
I1325
sS'x'
I1186
sg26
I0
s(dp38
S'y'
I1338
sS'x'
I1190
sg26
I0
s(dp39
g24
S'curve'
p40
sS'x'
I1190
sg26
I1
sS'y'
I1353
s(dp41
S'y'
I1393
sS'x'
I1190
sg26
I0
s(dp42
S'y'
I1426
sS'x'
I1153
sg26
I0
s(dp43
g24
S'curve'
p44
sS'x'
I1110
sg26
I1
sS'y'
I1426
s(dp45
S'y'
I1426
sS'x'
I1083
sg26
I0
s(dp46
S'y'
I1414
sS'x'
I1058
sg26
I0
s(dp47
g24
S'curve'
p48
sS'x'
I1037
sg26
I1
sS'y'
I1385
s(dp49
g24
S'line'
p50
sS'x'
I648
sg26
I0
sS'y'
I844
s(dp51
g24
S'line'
p52
sS'x'
I542
sg26
I0
sS'y'
I732
s(dp53
g24
S'line'
p54
sS'x'
I84
sg26
I1
sS'y'
I121
s(dp55
S'y'
I106
sS'x'
I73
sg26
I0
s(dp56
S'y'
I91
sS'x'
I68
sg26
I0
s(dp57
g24
S'curve'
p58
sS'x'
I68
sg26
I1
sS'y'
I76
s(dp59
S'y'
I35
sS'x'
I68
sg26
I0
s(dp60
S'y'
I0
sS'x'
I108
sg26
I0
stp61
s(dp62
g22
((dp63
g24
S'curve'
p64
sS'x'
I1104
sg26
I1
sS'y'
I0
s(dp65
S'y'
I0
sS'x'
I1151
sg26
I0
s(dp66
S'y'
I40
sS'x'
I1200
sg26
I0
s(dp67
g24
S'curve'
p68
sS'x'
I1200
sg26
I1
sS'y'
I85
s(dp69
S'y'
I98
sS'x'
I1200
sg26
I0
s(dp70
S'y'
I113
sS'x'
I1195
sg26
I0
s(dp71
g24
S'curve'
p72
sS'x'
I1186
sg26
I0
sS'y'
I126
s(dp73
g24
S'line'
p74
sS'x'
I272
sg26
I0
sS'y'
I1385
s(dp75
S'y'
I1414
sS'x'
I252
sg26
I0
s(dp76
S'y'
I1426
sS'x'
I225
sg26
I0
s(dp77
g24
S'curve'
p78
sS'x'
I197
sg26
I1
sS'y'
I1426
s(dp79
S'y'
I1426
sS'x'
I149
sg26
I0
s(dp80
S'y'
I1388
sS'x'
I100
sg26
I0
s(dp81
g24
S'curve'
p82
sS'x'
I100
sg26
I1
sS'y'
I1343
s(dp83
S'y'
I1328
sS'x'
I100
sg26
I0
s(dp84
S'y'
I1315
sS'x'
I105
sg26
I0
s(dp85
g24
S'curve'
p86
sS'x'
I114
sg26
I0
sS'y'
I1303
s(dp87
g24
S'line'
p88
sS'x'
I1033
sg26
I0
sS'y'
I40
s(dp89
S'y'
I13
sS'x'
I1052
sg26
I0
s(dp90
S'y'
I0
sS'x'
I1076
sg26
I0
stp91
stp92
sg15
(tsg3
(tsssg19
S'X'
s."
HStem: 980 21
LayerCount: 2
Fore
SplineSet
982 88 m 257
 1145 -149 1400 79 1266 259 c 258
 895.026 743.85 l 257
 1262 1197 l 257
 1377 1348 1150 1585 988 1342 c 257
 714.22 980.157 l 257
 419 1366 l 257
 269 1582 0 1389 148 1172 c 257
 487.497 730.735 l 257
 130 309 l 257
 -42 82 221 -107 367 97 c 257
 674.02 488.3 l 257
 982 88 l 257
EndSplineSet
EndChar

StartChar: Y
Encoding: 89 89 128
Width: 1327
VWidth: 0
GlyphClass: 2
Flags: W
PickledData: "(dp1
S'b'
(dp2
sS'anchors'
p3
(tsS'com.typemytype.robofont.layerData'
p4
(dp5
S'b'
(dp6
S'name'
p7
S'Y'
sS'lib'
p8
(dp9
sS'unicodes'
p10
(tsS'width'
p11
I1278
sS'contours'
p12
((dp13
S'points'
p14
((dp15
S'segmentType'
p16
S'curve'
p17
sS'x'
I641
sS'smooth'
p18
I1
sS'y'
I0
s(dp19
S'y'
I0
sS'x'
I685
sg18
I0
s(dp20
S'y'
I29
sS'x'
I730
sg18
I0
s(dp21
g16
S'curve'
p22
sS'x'
I730
sg18
I1
sS'y'
I85
s(dp23
g16
S'line'
p24
sS'x'
I730
sg18
I0
sS'y'
I1285
s(dp25
g16
S'line'
p26
sS'x'
I1115
sg18
I1
sS'y'
I1285
s(dp27
S'y'
I1285
sS'x'
I1164
sg18
I0
s(dp28
S'y'
I1319
sS'x'
I1190
sg18
I0
s(dp29
g16
S'curve'
p30
sS'x'
I1190
sg18
I1
sS'y'
I1355
s(dp31
S'y'
I1392
sS'x'
I1190
sg18
I0
s(dp32
S'y'
I1426
sS'x'
I1166
sg18
I0
s(dp33
g16
S'curve'
p34
sS'x'
I1115
sg18
I1
sS'y'
I1426
s(dp35
g16
S'line'
p36
sS'x'
I160
sg18
I1
sS'y'
I1426
s(dp37
S'y'
I1426
sS'x'
I111
sg18
I0
s(dp38
S'y'
I1392
sS'x'
I86
sg18
I0
s(dp39
g16
S'curve'
p40
sS'x'
I86
sg18
I1
sS'y'
I1355
s(dp41
S'y'
I1319
sS'x'
I86
sg18
I0
s(dp42
S'y'
I1285
sS'x'
I111
sg18
I0
s(dp43
g16
S'curve'
p44
sS'x'
I160
sg18
I1
sS'y'
I1285
s(dp45
g16
S'line'
p46
sS'x'
I552
sg18
I0
sS'y'
I1285
s(dp47
g16
S'line'
p48
sS'x'
I552
sg18
I1
sS'y'
I85
s(dp49
S'y'
I29
sS'x'
I552
sg18
I0
s(dp50
S'y'
I0
sS'x'
I596
sg18
I0
stp51
stp52
sS'components'
p53
(tsg3
(tsssg10
(tsS'com.typemytype.robofont.guides'
p54
(tsg11
I1321
sg12
(tsg53
(tsg8
(dp55
sg7
S'Y'
s."
AnchorPoint: "top" 679 1438 basechar 0
LayerCount: 2
Fore
SplineSet
474 195 m 258
 474 -68 845 -68 845 195 c 258
 845 556 l 257
 1229 1182 l 257
 1345 1389 1076 1553 958 1325 c 257
 677 850 l 257
 409 1315 l 257
 271 1587 -32 1401 106 1151 c 257
 474 551 l 257
 474 195 l 258
EndSplineSet
EndChar

StartChar: Z
Encoding: 90 90 133
Width: 1232
VWidth: 0
GlyphClass: 2
Flags: W
PickledData: "(dp1
S'b'
(dp2
sS'anchors'
p3
(tsS'lib'
p4
(dp5
sS'unicodes'
p6
(tsS'width'
p7
I1222
sS'contours'
p8
(tsS'components'
p9
(tsS'com.typemytype.robofont.layerData'
p10
(dp11
S'b'
(dp12
S'name'
p13
S'Z'
sg4
(dp14
sg6
(tsg7
I1165
sg8
((dp15
S'points'
p16
((dp17
S'segmentType'
p18
S'curve'
p19
sS'x'
I266
sS'smooth'
p20
I1
sS'y'
I0
s(dp21
g18
S'line'
p22
sS'x'
I1035
sg20
I1
sS'y'
I0
s(dp23
S'y'
I0
sS'x'
I1084
sg20
I0
s(dp24
S'y'
I34
sS'x'
I1108
sg20
I0
s(dp25
g18
S'curve'
p26
sS'x'
I1108
sg20
I1
sS'y'
I71
s(dp27
S'y'
I107
sS'x'
I1108
sg20
I0
s(dp28
S'y'
I141
sS'x'
I1084
sg20
I0
s(dp29
g18
S'curve'
p30
sS'x'
I1035
sg20
I1
sS'y'
I141
s(dp31
g18
S'line'
p32
sS'x'
I356
sg20
I0
sS'y'
I141
s(dp33
g18
S'line'
p34
sS'x'
I356
sg20
I0
sS'y'
I665
s(dp35
g18
S'line'
p36
sS'x'
I975
sg20
I1
sS'y'
I665
s(dp37
S'y'
I665
sS'x'
I1024
sg20
I0
s(dp38
S'y'
I698
sS'x'
I1049
sg20
I0
s(dp39
g18
S'curve'
p40
sS'x'
I1049
sg20
I1
sS'y'
I734
s(dp41
S'y'
I770
sS'x'
I1049
sg20
I0
s(dp42
S'y'
I803
sS'x'
I1026
sg20
I0
s(dp43
g18
S'curve'
p44
sS'x'
I975
sg20
I1
sS'y'
I803
s(dp45
g18
S'line'
p46
sS'x'
I356
sg20
I0
sS'y'
I803
s(dp47
g18
S'line'
p48
sS'x'
I356
sg20
I0
sS'y'
I1285
s(dp49
g18
S'line'
p50
sS'x'
I1007
sg20
I1
sS'y'
I1285
s(dp51
S'y'
I1285
sS'x'
I1056
sg20
I0
s(dp52
S'y'
I1319
sS'x'
I1080
sg20
I0
s(dp53
g18
S'curve'
p54
sS'x'
I1080
sg20
I1
sS'y'
I1356
s(dp55
S'y'
I1392
sS'x'
I1080
sg20
I0
s(dp56
S'y'
I1426
sS'x'
I1056
sg20
I0
s(dp57
g18
S'curve'
p58
sS'x'
I1007
sg20
I1
sS'y'
I1426
s(dp59
g18
S'line'
p60
sS'x'
I261
sg20
I1
sS'y'
I1426
s(dp61
S'y'
I1426
sS'x'
I213
sg20
I0
s(dp62
S'y'
I1383
sS'x'
I178
sg20
I0
s(dp63
g18
S'curve'
p64
sS'x'
I178
sg20
I1
sS'y'
I1340
s(dp65
g18
S'line'
p66
sS'x'
I178
sg20
I1
sS'y'
I86
s(dp67
S'y'
I41
sS'x'
I178
sg20
I0
s(dp68
S'y'
I0
sS'x'
I222
sg20
I0
stp69
stp70
sg9
(tsg3
(tsssg13
S'Z'
s."
AnchorPoint: "top" 646 1438 basechar 0
LayerCount: 2
Fore
SplineSet
223 0 m 258
 1053 0 l 258
 1125 0 1182 57 1182 134 c 256
 1182 210 1125 269 1053 269 c 258
 512 269 l 257
 1119 1166 l 258
 1150 1217 1180 1280 1180 1328 c 256
 1180 1427 1104 1456 1012 1456 c 258
 218 1456 l 258
 147 1456 90 1397 90 1321 c 256
 90 1244 147 1188 218 1188 c 258
 741 1188 l 257
 137 294 l 258
 103 240 75 172 75 125 c 256
 75 54 126 0 223 0 c 258
EndSplineSet
EndChar

StartChar: a
Encoding: 97 97 137
Width: 1117
VWidth: 0
GlyphClass: 2
Flags: W
PickledData: "(dp1
S'b'
(dp2
sS'anchors'
p3
(tsS'lib'
p4
(dp5
sS'unicodes'
p6
(tsS'com.fontlab.hintData'
p7
(dp8
S'vhints'
p9
((dp10
S'position'
p11
I69
sS'width'
p12
I264
s(dp13
g11
I707
sg12
I292
stp14
sS'hhints'
p15
((dp16
g11
I455
sg12
I142
s(dp17
g11
I814
sg12
I211
stp18
ssg12
I1101
sS'contours'
p19
(tsS'components'
p20
(tsS'com.typemytype.robofont.layerData'
p21
(dp22
S'b'
(dp23
S'name'
p24
S'a'
sg4
(dp25
sg6
(tsg12
I1040
sg19
(tsg20
(tsg3
(tsssg24
S'a'
s."
HStem: 455 142<586.5 706> 814 211<496.5 594.5>
VStem: 69 264 707 292<597 660 597 597>
AnchorPoint: "top" 574 1001 basechar 0
AnchorPoint: "ogonek" 861 31 basechar 0
LayerCount: 2
Fore
SplineSet
459 168 m 256
 377 175 335 230 333 299 c 256
 329 445 467 455 706 455 c 257
 706 415 l 258
 706 262 571 158 459 168 c 256
396 -12 m 256
 502 -13 658 6 718 183 c 257
 718 166 l 258
 718 -58 999 -58 999 163 c 258
 999 590 l 258
 999 917 818 1025 563 1025 c 256
 430 1025 270 989 181 946 c 256
 67 889 143 695 255 742 c 256
 321 770 427 814 544 814 c 256
 645 814 707 767 707 660 c 258
 707 597 l 257
 242 597 69 526 69 274 c 256
 69 106 207 -10 396 -12 c 256
EndSplineSet
EndChar

StartChar: acute
Encoding: 180 180 141
Width: 569
VWidth: 0
GlyphClass: 4
Flags: W
PickledData: "(dp1
S'com.fontlab.hintData'
p2
(dp3
S'vhints'
p4
((dp5
S'position'
p6
I57
sS'width'
p7
I465
stp8
sS'hhints'
p9
((dp10
g6
I1199
sg7
I492
stp11
ss."
HStem: 1199 492<110.5 416.5>
VStem: 57 465<1246 1596.5>
AnchorPoint: "top" 116 1040 mark 0
LayerCount: 2
Fore
SplineSet
128 1199 m 256
 149 1199 166 1206 181 1219 c 258
 476 1471 l 258
 505 1498 522 1527 522 1559 c 256
 522 1634 448 1691 385 1691 c 256
 341 1691 309 1657 281 1611 c 258
 81 1325 l 258
 68 1305 57 1289 57 1269 c 256
 57 1223 93 1199 128 1199 c 256
EndSplineSet
EndChar

StartChar: ae
Encoding: 230 230 143
Width: 1773
VWidth: 0
GlyphClass: 2
Flags: W
PickledData: "(dp1
S'com.typemytype.robofont.layerData'
p2
(dp3
S'b'
(dp4
S'name'
p5
S'ae'
p6
sS'lib'
p7
(dp8
sS'unicodes'
p9
(tsS'width'
p10
I1734
sS'contours'
p11
(tsS'components'
p12
(tsS'anchors'
p13
(tsssS'com.fontlab.hintData'
p14
(dp15
S'vhints'
p16
((dp17
S'position'
p18
I52
sg10
I285
s(dp19
g18
I711
sg10
I302
s(dp20
g18
I1421
sg10
I266
stp21
sS'hhints'
p22
((dp23
g18
I-19
sg10
I219
s(dp24
g18
I-19
sg10
I175
s(dp25
g18
I464
sg10
I153
s(dp26
g18
I809
sg10
I225
s(dp27
g18
I852
sg10
I183
s(dp28
g18
I893
sg10
I21
stp29
ss."
HStem: -19 219<1162 1241> -19 175<452 529> 464 153<451 711> 809 225<531.5 573> 852 183<1156.5 1283> 893 21
VStem: 52 285<253 374.5 253 398.5> 711 302<449 449 449 464 404 449> 1421 266<601 601>
AnchorPoint: "top" 887 991 basechar 0
LayerCount: 2
Fore
SplineSet
1012 601 m 257
 1020 753 1092 852 1221 852 c 256
 1345 852 1414 763 1421 601 c 257
 1012 601 l 257
499 156 m 256
 405 156 337 205 337 301 c 256
 337 448 622 464 711 464 c 257
 711 404 l 257
 707 247 625 156 499 156 c 256
434 -19 m 256
 624 -19 763 33 839 154 c 257
 919 44 1041 -19 1206 -19 c 256
 1276 -19 1641 -13 1641 166 c 256
 1641 211 1613 265 1567 265 c 256
 1560 265 1553 264 1545 263 c 256
 1454 242 1375 200 1260 200 c 256
 1064 200 1016 307 1013 449 c 257
 1574 449 l 258
 1641 449 1687 465 1687 534 c 256
 1687 831 1524 1035 1219 1035 c 256
 1078 1035 962 983 882 893 c 257
 822 989 724 1030 587 1034 c 256
 476 1034 265 1024 177 942 c 256
 154 917 139 884 139 844 c 256
 139 792 177 761 222 761 c 256
 237 761 251 761 268 766 c 256
 339 781 416 809 523 809 c 256
 623 809 712 786 712 663 c 258
 712 615 l 257
 691 614 652 617 629 617 c 256
 273 617 52 523 52 274 c 256
 52 84 196 -19 434 -19 c 256
EndSplineSet
EndChar

StartChar: ampersand
Encoding: 38 38 148
Width: 1580
VWidth: 0
GlyphClass: 2
Flags: W
PickledData: "(dp1
S'com.fontlab.hintData'
p2
(dp3
S'vhints'
p4
((dp5
S'position'
p6
I64
sS'width'
p7
I307
s(dp8
g6
I227
sg7
I266
s(dp9
g6
I805
sg7
I241
s(dp10
g6
I1188
sg7
I242
stp11
sS'hhints'
p12
((dp13
g6
I-25
sg7
I240
s(dp14
g6
I988
sg7
I21
s(dp15
g6
I1333
sg7
I163
stp16
ss."
HStem: -25 240<581 707 581 738> 988 21 1333 163<612.5 688.5>
VStem: 64 307<348.5 480.5 348.5 513> 227 266<1171 1250.5 1171 1293> 805 241<1164.5 1249> 1188 242
LayerCount: 2
Fore
SplineSet
636 988 m 257
 567 1046 493 1133 493 1209 c 256
 493 1292 574 1333 651 1333 c 256
 726 1333 805 1289 805 1209 c 256
 805 1120 710 1053 636 988 c 257
649 215 m 256
 513 215 371 274 371 423 c 256
 371 538 467 597 575 649 c 257
 901 306 l 257
 881 269 765 215 649 215 c 256
624 -25 m 256
 852 -25 972 57 1069 149 c 257
 1214 3 l 258
 1234 -17 1252 -23 1275 -23 c 256
 1346 -23 1436 61 1436 134 c 256
 1436 147 1432 170 1416 186 c 258
 1282 319 l 257
 1380 459 1421 722 1430 854 c 256
 1435 918 1371 961 1311 961 c 256
 1262 961 1203 953 1188 899 c 257
 1177 766 1167 636 1096 514 c 257
 805 807 l 257
 960 913 1046 1044 1046 1207 c 256
 1046 1396 849 1496 655 1496 c 256
 460 1496 227 1390 227 1196 c 256
 227 1052 295 960 405 855 c 257
 202 743 64 630 64 396 c 256
 64 118 306 -25 624 -25 c 256
EndSplineSet
EndChar

StartChar: uni02BC
Encoding: 700 700 150
Width: 600
VWidth: 0
GlyphClass: 4
Flags: W
AnchorPoint: "top.2" 246 -411 mark 0
LayerCount: 2
Fore
SplineSet
138 -359 m 258
 259 -359 l 258
 288 -360 303 -348 315 -316 c 258
 496 190 l 258
 501 204 504 243 462 246 c 258
 271 246 l 258
 239 245 206 237 198 190 c 258
 114 -316 l 258
 112 -328 110 -358 138 -359 c 258
EndSplineSet
EndChar

StartChar: approxequal
Encoding: 8776 8776 151
Width: 1235
VWidth: 0
GlyphClass: 2
Flags: W
PickledData: "(dp1
S'com.fontlab.hintData'
p2
(dp3
S'hhints'
p4
((dp5
S'position'
p6
I191
sS'width'
p7
I222
s(dp8
g6
I322
sg7
I221
s(dp9
g6
I695
sg7
I222
s(dp10
g6
I828
sg7
I221
stp11
ss."
HStem: 191 222<793 869 793 908> 322 221<329.5 362> 695 222<793 869 793 908> 828 221<329.5 362>
LayerCount: 2
Fore
SplineSet
844 695 m 256
 972 695 1079 785 1079 958 c 256
 1079 1011 1030 1049 987 1049 c 256
 869 1049 904 917 834 917 c 256
 752 917 488 1049 336 1049 c 256
 241 1049 94 976 94 785 c 256
 94 736 133 700 182 700 c 256
 202 700 223 701 239 714 c 256
 311 770 297 828 362 828 c 257
 451 821 704 695 844 695 c 256
844 191 m 256
 972 191 1079 280 1079 453 c 256
 1079 505 1030 543 987 543 c 256
 869 543 904 413 834 413 c 256
 752 413 488 543 336 543 c 256
 241 543 94 471 94 280 c 256
 94 231 133 194 182 194 c 256
 202 194 223 195 239 208 c 256
 311 264 297 322 362 322 c 257
 451 315 704 191 844 191 c 256
EndSplineSet
EndChar

StartChar: asciicircum
Encoding: 94 94 153
Width: 1288
VWidth: 0
GlyphClass: 2
Flags: W
LayerCount: 2
Fore
SplineSet
261 540 m 256
 314 540 348 589 378 654 c 258
 660 1214 l 257
 943 654 l 258
 975 593 1007 544 1060 544 c 256
 1117 544 1163 582 1163 643 c 256
 1163 670 1145 710 1131 742 c 258
 819 1352 l 257
 777 1443 732 1495 661 1495 c 256
 581 1495 537 1427 502 1352 c 258
 190 742 l 258
 175 710 157 671 157 645 c 256
 157 581 204 540 261 540 c 256
EndSplineSet
EndChar

StartChar: asciitilde
Encoding: 126 126 154
Width: 1288
VWidth: 0
GlyphClass: 2
Flags: W
PickledData: "(dp1
S'com.fontlab.hintData'
p2
(dp3
S'hhints'
p4
((dp5
S'position'
p6
I1128
sS'width'
p7
I187
s(dp8
g6
I1239
sg7
I186
stp9
ss."
HStem: 1128 187<751.5 814.5 751.5 867> 1239 186<482 509>
LayerCount: 2
Fore
SplineSet
794 1128 m 256
 940 1128 1001 1262 1031 1328 c 256
 1063 1407 945 1458 910 1410 c 257
 874 1351 843 1315 786 1315 c 256
 717 1315 615 1425 488 1425 c 256
 382 1425 322 1339 264 1230 c 256
 232 1171 344 1082 391 1148 c 256
 428 1202 455 1239 509 1239 c 257
 584 1233 677 1128 794 1128 c 256
EndSplineSet
EndChar

StartChar: asterisk
Encoding: 42 42 155
Width: 959
VWidth: 0
GlyphClass: 2
Flags: W
PickledData: "(dp1
S'com.fontlab.hintData'
p2
(dp3
S'hhints'
p4
((dp5
S'position'
p6
I966
sS'width'
p7
I20
s(dp8
g6
I1047
sg7
I145
stp9
ss."
HStem: 966 20<478 478> 1047 145<134 182 777 825>
LayerCount: 2
Fore
SplineSet
403 856 m 257
 478 986 l 257
 554 856 l 258
 608 757 746 816 667 951 c 257
 600 1051 l 257
 777 1047 l 258
 873 1047 873 1192 777 1192 c 258
 601 1187 l 257
 680 1310 l 258
 742 1413 613 1490 555 1382 c 258
 478 1248 l 257
 396 1393 l 258
 349 1481 214 1418 282 1299 c 257
 356 1187 l 257
 182 1192 l 258
 85 1192 86 1047 182 1047 c 258
 358 1051 l 257
 278 929 l 257
 216 822 345 746 403 856 c 257
EndSplineSet
EndChar

StartChar: at
Encoding: 64 64 156
Width: 1638
VWidth: 0
GlyphClass: 2
Flags: W
PickledData: "(dp1
S'com.fontlab.hintData'
p2
(dp3
S'vhints'
p4
((dp5
S'position'
p6
I40
sS'width'
p7
I180
s(dp8
g6
I376
sg7
I205
s(dp9
g6
I1089
sg7
I162
s(dp10
g6
I1399
sg7
I173
stp11
sS'hhints'
p12
((dp13
g6
I-31
sg7
I156
s(dp14
g6
I7
sg7
I154
s(dp15
g6
I300
sg7
I152
s(dp16
g6
I315
sg7
I135
s(dp17
g6
I1016
sg7
I155
s(dp18
g6
I1358
sg7
I151
stp19
ss."
HStem: -31 156<783 843.5 783 858.5> 7 154 300 152<686.5 746> 315 135<1138.5 1215.5 1138.5 1242> 1016 155<784.5 891 703.5 919> 1358 151<726 1031>
VStem: 40 180<526 908.5 526 962> 376 205<573.5 740.5 573.5 779> 1089 162<1070 1070> 1399 173<742.5 1020>
LayerCount: 2
Fore
SplineSet
734 452 m 256
 639 452 581 528 581 619 c 256
 581 862 705 1016 864 1016 c 256
 974 1016 1043 920 1043 920 c 257
 955 578 l 257
 931 505 834 452 734 452 c 256
811 -31 m 256
 906 -31 1000 -17 1101 7 c 256
 1151 21 1176 38 1176 85 c 256
 1176 126 1147 161 1096 161 c 258
 1084 161 l 257
 989 135 904 125 783 125 c 257
 474 148 220 341 220 711 c 256
 220 1106 557 1358 895 1358 c 256
 1167 1358 1399 1189 1399 851 c 256
 1399 634 1276 450 1155 450 c 256
 1122 450 1113 470 1113 503 c 256
 1113 541 1131 618 1152 696 c 258
 1236 988 l 258
 1241 1009 1251 1035 1251 1059 c 256
 1251 1108 1213 1134 1174 1134 c 256
 1135 1134 1102 1114 1089 1070 c 258
 1081 1044 l 257
 1029 1132 941 1171 841 1171 c 256
 566 1171 376 906 376 652 c 256
 376 453 498 300 694 300 c 256
 798 300 893 335 960 403 c 257
 984 341 1052 315 1120 315 c 256
 1364 315 1572 542 1572 884 c 256
 1572 1321 1231 1509 895 1509 c 256
 454 1509 40 1205 40 719 c 256
 40 237 382 -31 811 -31 c 256
EndSplineSet
EndChar

StartChar: b
Encoding: 98 98 158
Width: 1279
VWidth: 0
GlyphClass: 2
Flags: W
PickledData: "(dp1
S'b'
(dp2
sS'anchors'
p3
(tsS'lib'
p4
(dp5
sS'unicodes'
p6
(tsS'com.fontlab.hintData'
p7
(dp8
S'vhints'
p9
((dp10
S'position'
p11
I116
sS'width'
p12
I318
s(dp13
g11
I895
sg12
I304
stp14
sS'hhints'
p15
((dp16
g11
I-19
sg12
I196
s(dp17
g11
I812
sg12
I206
stp18
ssg12
I1203
sS'contours'
p19
(tsS'components'
p20
(tsS'com.typemytype.robofont.layerData'
p21
(dp22
S'b'
(dp23
S'name'
p24
S'b'
sg4
(dp25
sg6
(tsg12
I1181
sg19
((dp26
S'points'
p27
((dp28
S'segmentType'
p29
S'curve'
p30
sS'x'
I238
sS'smooth'
p31
I1
sS'y'
I1425
s(dp32
S'y'
I1425
sS'x'
I198
sg31
I0
s(dp33
S'y'
I1400
sS'x'
I158
sg31
I0
s(dp34
g29
S'curve'
p35
sS'x'
I158
sg31
I1
sS'y'
I1351
s(dp36
g29
S'line'
p37
sS'x'
I158
sg31
I1
sS'y'
I76
s(dp38
S'y'
I27
sS'x'
I158
sg31
I0
s(dp39
S'y'
I3
sS'x'
I197
sg31
I0
s(dp40
g29
S'curve'
p41
sS'x'
I237
sg31
I1
sS'y'
I3
s(dp42
S'y'
I3
sS'x'
I297
sg31
I0
s(dp43
S'y'
I38
sS'x'
I318
sg31
I0
s(dp44
g29
S'curve'
p45
sS'x'
I318
sg31
I1
sS'y'
I76
s(dp46
g29
S'line'
p47
sS'x'
I318
sg31
I0
sS'y'
I183
s(dp48
S'y'
I46
sS'x'
I384
sg31
I0
s(dp49
S'y'
S'-20'
p50
sS'x'
I516
sg31
I0
s(dp51
g29
S'curve'
p52
sS'x'
I666
sg31
I1
sS'y'
S'-20'
p53
s(dp54
S'y'
S'-20'
p55
sS'x'
I957
sg31
I0
s(dp56
S'y'
I225
sS'x'
I1095
sg31
I0
s(dp57
g29
S'curve'
p58
sS'x'
I1095
sg31
I1
sS'y'
I502
s(dp59
S'y'
I777
sS'x'
I1095
sg31
I0
s(dp60
S'y'
I1013
sS'x'
I939
sg31
I0
s(dp61
g29
S'curve'
p62
sS'x'
I650
sg31
I1
sS'y'
I1013
s(dp63
S'y'
I1013
sS'x'
I503
sg31
I0
s(dp64
S'y'
I942
sS'x'
I376
sg31
I0
s(dp65
g29
S'curve'
p66
sS'x'
I318
sg31
I0
sS'y'
I814
s(dp67
g29
S'line'
p68
sS'x'
I318
sg31
I1
sS'y'
I1351
s(dp69
S'y'
I1400
sS'x'
I318
sg31
I0
s(dp70
S'y'
I1425
sS'x'
I278
sg31
I0
stp71
s(dp72
g27
((dp73
g29
S'curve'
p74
sS'x'
I632
sg31
I1
sS'y'
I903
s(dp75
S'y'
I903
sS'x'
I859
sg31
I0
s(dp76
S'y'
I685
sS'x'
I935
sg31
I0
s(dp77
g29
S'curve'
p78
sS'x'
I935
sg31
I1
sS'y'
I496
s(dp79
S'y'
I316
sS'x'
I935
sg31
I0
s(dp80
S'y'
I93
sS'x'
I869
sg31
I0
s(dp81
g29
S'curve'
p82
sS'x'
I645
sg31
I0
sS'y'
I90
s(dp83
S'y'
I90
sS'x'
I395
sg31
I0
s(dp84
S'y'
I279
sS'x'
I319
sg31
I0
s(dp85
g29
S'curve'
p86
sS'x'
I319
sg31
I1
sS'y'
I501
s(dp87
S'y'
I701
sS'x'
I319
sg31
I0
s(dp88
S'y'
I903
sS'x'
I407
sg31
I0
stp89
stp90
sg20
(tsg3
(tsssg24
S'b'
s."
HStem: -19 196<692.5 755 586 887.5> 812 206<677.5 744>
VStem: 116 318<846 1243 846 1243> 895 304<421 588>
LayerCount: 2
Fore
SplineSet
671 177 m 256
 501 177 435 305 435 498 c 256
 435 710 522 812 666 812 c 256
 822 812 895 682 895 494 c 256
 895 348 839 177 671 177 c 256
765 -19 m 256
 1010 -19 1199 154 1199 505 c 256
 1199 854 994 1018 752 1018 c 256
 603 1018 485 954 434 846 c 257
 434 1243 l 258
 434 1381 386 1457 269 1457 c 256
 158 1457 116 1381 116 1243 c 258
 116 226 l 258
 116 88 167 -1 278 -1 c 256
 381 -1 433 68 433 156 c 258
 433 168 l 257
 495 34 620 -19 765 -19 c 256
EndSplineSet
EndChar

StartChar: backslash
Encoding: 92 92 159
Width: 668
VWidth: 0
GlyphClass: 2
Flags: W
PickledData: "(dp1
S'com.fontlab.hintData'
p2
(dp3
S'vhints'
p4
((dp5
S'position'
p6
I1
sS'width'
p7
I218
s(dp8
g6
I451
sg7
I216
stp9
ss."
VStem: 1 218<1366 1439.5> 451 216<1 71>
LayerCount: 2
Fore
SplineSet
563 -66 m 256
 612 -66 667 -30 667 32 c 256
 667 53 660 79 653 104 c 258
 219 1366 l 258
 195 1435 165 1504 103 1504 c 256
 48 1504 1 1473 1 1406 c 256
 1 1395 2 1382 7 1366 c 258
 451 71 l 258
 473 1 503 -66 563 -66 c 256
EndSplineSet
EndChar

StartChar: bar
Encoding: 124 124 160
Width: 455
VWidth: 0
GlyphClass: 2
Flags: W
PickledData: "(dp1
S'com.fontlab.hintData'
p2
(dp3
S'vhints'
p4
((dp5
S'position'
p6
I125
sS'width'
p7
I205
stp8
ss."
VStem: 125 205<-85 -45 -45 1312 1312 1361 -85 1392>
LayerCount: 2
Fore
SplineSet
227 -231 m 256
 306 -231 330 -157 330 -85 c 258
 330 1312 l 258
 330 1410 311 1497 228 1497 c 256
 173 1497 125 1458 125 1392 c 258
 125 -45 l 258
 125 -143 143 -231 227 -231 c 256
EndSplineSet
EndChar

StartChar: braceleft
Encoding: 123 123 161
Width: 787
VWidth: 0
GlyphClass: 2
Flags: W
PickledData: "(dp1
S'com.fontlab.hintData'
p2
(dp3
S'vhints'
p4
((dp5
S'position'
p6
I240
sS'width'
p7
I291
stp8
sS'hhints'
p9
((dp10
g6
I-252
sg7
I234
s(dp11
g6
I490
sg7
I244
s(dp12
g6
I1243
sg7
I236
stp13
ss."
HStem: -252 234<576 627 627 649 649 654 576 686.5> 490 244<117 117> 1243 236<622 638 407 675.5>
VStem: 240 291<-89.5 378 192 314 873 911 911 1022 1022 1094>
LayerCount: 2
Fore
SplineSet
499 -252 m 258
 649 -252 l 258
 724 -252 753 -209 760 -147 c 257
 760 -59 720 -18 654 -18 c 258
 627 -18 l 258
 525 -18 531 62 531 192 c 258
 531 378 l 258
 531 546 396 598 348 611 c 257
 403 625 531 679 531 873 c 258
 531 1022 l 258
 531 1166 531 1243 622 1243 c 258
 638 1243 l 258
 713 1243 758 1284 758 1360 c 256
 758 1464 696 1479 638 1479 c 258
 499 1479 l 258
 315 1479 240 1339 240 1223 c 258
 240 911 l 258
 240 785 209 740 117 734 c 256
 38 726 1 679 1 612 c 256
 1 524 57 496 117 490 c 256
 217 483 240 424 240 314 c 258
 240 -10 l 258
 240 -169 364 -252 499 -252 c 258
EndSplineSet
EndChar

StartChar: braceright
Encoding: 125 125 162
Width: 787
VWidth: 0
GlyphClass: 2
Flags: W
PickledData: "(dp1
S'com.fontlab.hintData'
p2
(dp3
S'vhints'
p4
((dp5
S'position'
p6
I255
sS'width'
p7
I290
stp8
sS'hhints'
p9
((dp10
g6
I-252
sg7
I235
s(dp11
g6
I492
sg7
I242
s(dp12
g6
I1243
sg7
I236
stp13
ss."
HStem: -252 235<136 169 97 291 97 373> 492 242 1243 236<146 164 164 210>
VStem: 255 290<105.5 167 167 314 314 378 911 1035>
LayerCount: 2
Fore
SplineSet
136 -252 m 258
 291 -252 l 258
 455 -252 545 -133 545 2 c 258
 545 314 l 258
 545 442 576 488 681 492 c 256
 747 492 784 549 784 612 c 256
 784 700 726 729 669 734 c 256
 569 742 545 795 545 911 c 258
 545 1236 l 258
 545 1394 422 1479 291 1479 c 258
 136 1479 l 258
 61 1479 25 1431 25 1363 c 256
 25 1274 82 1243 146 1243 c 258
 164 1243 l 258
 256 1243 255 1152 255 1035 c 258
 255 847 l 258
 255 696 413 639 438 611 c 257
 371 589 255 533 255 378 c 258
 255 167 l 258
 255 44 248 -17 169 -17 c 258
 136 -17 l 258
 58 -17 24 -71 24 -135 c 256
 24 -216 74 -252 136 -252 c 258
EndSplineSet
EndChar

StartChar: bracketleft
Encoding: 91 91 163
Width: 787
VWidth: 0
GlyphClass: 2
Flags: W
PickledData: "(dp1
S'com.fontlab.hintData'
p2
(dp3
S'hhints'
p4
((dp5
S'position'
p6
I-250
sS'width'
p7
I236
s(dp8
g6
I1219
sg7
I235
stp9
ss."
HStem: -250 236<459 561 459 562 459 562> 1219 235<459 561 561 583>
LayerCount: 2
Fore
SplineSet
336 -250 m 258
 562 -250 l 258
 649 -247 694 -203 694 -130 c 256
 694 -53 644 -14 561 -14 c 258
 459 -14 l 257
 459 1219 l 257
 561 1219 l 258
 644 1219 694 1258 694 1336 c 256
 694 1401 651 1454 583 1454 c 258
 336 1454 l 258
 239 1454 169 1399 169 1301 c 258
 169 -41 l 258
 169 -203 229 -250 336 -250 c 258
EndSplineSet
EndChar

StartChar: bracketright
Encoding: 93 93 164
Width: 787
VWidth: 0
GlyphClass: 2
Flags: W
PickledData: "(dp1
S'com.fontlab.hintData'
p2
(dp3
S'hhints'
p4
((dp5
S'position'
p6
I-250
sS'width'
p7
I236
s(dp8
g6
I1219
sg7
I235
stp9
ss."
HStem: -250 236<203 225 225 326 180 450 180 497> 1219 235<225 326 326 326>
LayerCount: 2
Fore
SplineSet
203 -250 m 257
 450 -250 l 258
 544 -250 617 -195 617 -98 c 258
 617 1244 l 258
 617 1409 553 1454 450 1454 c 258
 224 1454 l 258
 136 1454 92 1409 92 1336 c 256
 92 1257 141 1219 225 1219 c 258
 326 1219 l 257
 326 -14 l 257
 225 -14 l 258
 135 -14 91 -57 91 -130 c 256
 91 -190 128 -242 203 -250 c 257
EndSplineSet
EndChar

StartChar: breve
Encoding: 728 728 165
Width: 569
VWidth: 0
GlyphClass: 4
Flags: W
PickledData: "(dp1
S'com.fontlab.hintData'
p2
(dp3
S'hhints'
p4
((dp5
S'position'
p6
I1174
sS'width'
p7
I201
stp8
ss."
HStem: 1174 201<250.5 285>
AnchorPoint: "top" 287 1040 mark 0
LayerCount: 2
Fore
SplineSet
285 1174 m 256
 363 1173 428 1181 485 1198 c 257
 549 1238 618 1333 618 1420 c 256
 618 1479 577 1511 528 1511 c 256
 481 1511 449 1468 422 1426 c 257
 390 1387 349 1375 285 1375 c 256
 216 1375 176 1389 144 1434 c 256
 115 1477 83 1511 41 1511 c 256
 -5 1511 -49 1482 -49 1427 c 256
 -49 1395 -39 1368 -25 1338 c 256
 34 1229 144 1174 285 1174 c 256
EndSplineSet
EndChar

StartChar: uni0311
Encoding: 785 785 166
Width: 569
VWidth: 0
GlyphClass: 4
Flags: W
PickledData: "(dp1
S'com.fontlab.hintData'
p2
(dp3
S'hhints'
p4
((dp5
S'position'
p6
I1377
sS'width'
p7
I146
stp8
ss."
HStem: 1377 146<229 341>
AnchorPoint: "top" 286 1040 mark 0
LayerCount: 2
Fore
SplineSet
6 1234 m 256
 30 1234 50 1246 66 1269 c 256
 120 1348 173 1377 285 1377 c 256
 397 1377 447 1348 504 1269 c 256
 521 1246 540 1234 564 1234 c 256
 599 1234 628 1257 628 1292 c 256
 628 1301 625 1313 620 1325 c 256
 566 1450 446 1523 285 1523 c 256
 124 1523 4 1450 -50 1325 c 256
 -55 1313 -58 1301 -58 1292 c 256
 -58 1257 -29 1234 6 1234 c 256
EndSplineSet
EndChar

StartChar: brokenbar
Encoding: 166 166 167
Width: 455
VWidth: 0
GlyphClass: 2
Flags: W
PickledData: "(dp1
S'com.fontlab.hintData'
p2
(dp3
S'vhints'
p4
((dp5
S'position'
p6
I117
sS'width'
p7
I229
stp8
ss."
VStem: 117 229<-100 477 -51 477 477 516 1000 1517 1517 1553>
LayerCount: 2
Fore
SplineSet
231 842 m 256
 319 842 346 921 346 1000 c 258
 346 1517 l 258
 346 1609 309 1674 232 1674 c 256
 166 1674 117 1628 117 1553 c 258
 117 1000 l 258
 117 903 152 842 231 842 c 256
231 -209 m 256
 320 -209 346 -130 346 -51 c 258
 346 477 l 258
 346 573 309 637 232 637 c 256
 164 637 117 587 117 516 c 258
 117 -51 l 258
 117 -149 152 -209 231 -209 c 256
EndSplineSet
EndChar

StartChar: bullet
Encoding: 8226 8226 168
Width: 1024
VWidth: 0
GlyphClass: 2
Flags: W
PickledData: "(dp1
S'com.fontlab.hintData'
p2
(dp3
S'vhints'
p4
((dp5
S'position'
p6
I142
sS'width'
p7
I740
stp8
sS'hhints'
p9
((dp10
g6
I363
sg7
I726
stp11
ss."
HStem: 363 726<411 610 403.5 612.5>
VStem: 142 740<624 818>
LayerCount: 2
Fore
SplineSet
511 363 m 256
 714 363 882 524 882 724 c 256
 882 933 709 1089 511 1089 c 256
 296 1089 142 912 142 724 c 256
 142 520 311 363 511 363 c 256
EndSplineSet
EndChar

StartChar: c
Encoding: 99 99 169
Width: 1042
VWidth: 0
GlyphClass: 2
Flags: W
PickledData: "(dp1
S'b'
(dp2
sS'anchors'
p3
(tsS'lib'
p4
(dp5
sS'unicodes'
p6
(tsS'com.fontlab.hintData'
p7
(dp8
S'vhints'
p9
((dp10
S'position'
p11
I80
sS'width'
p12
I327
stp13
sS'hhints'
p14
((dp15
g11
I-12
sg12
I256
stp16
ssg12
I992
sS'contours'
p17
(tsS'components'
p18
(tsS'com.typemytype.robofont.layerData'
p19
(dp20
S'b'
(dp21
S'name'
p22
S'c'
sg4
(dp23
sg6
(tsg12
F956.14099999999996
sg17
(tsg18
(tsg3
(tsssg22
S'c'
s."
HStem: -12 256<559 668>
VStem: 80 327<441.5 600.5 441.5 661>
AnchorPoint: "top" 603 1029 basechar 0
AnchorPoint: "bot" 587 0 basechar 0
LayerCount: 2
Fore
SplineSet
602 -12 m 256
 734 -12 869 22 934 76 c 256
 1045 167 956 358 832 292 c 256
 777 264 703 244 643 244 c 256
 475 244 407 374 407 509 c 256
 407 692 505 767 642 774 c 256
 712 778 789 747 826 728 c 256
 950 660 1037 842 929 932 c 256
 867 987 746 1027 613 1027 c 256
 310 1027 80 814 80 508 c 256
 80 148 337 -12 602 -12 c 256
EndSplineSet
EndChar

StartChar: caron
Encoding: 711 711 171
Width: 569
VWidth: 0
GlyphClass: 4
Flags: W
AnchorPoint: "top" 282 1040 mark 0
LayerCount: 2
Fore
SplineSet
284 1123 m 256
 335 1123 375 1156 417 1214 c 257
 571 1395 l 258
 593 1425 618 1462 618 1493 c 256
 618 1543 584 1576 533 1576 c 256
 488 1576 445 1537 410 1482 c 257
 283 1323 l 257
 148 1494 l 257
 109 1551 68 1580 27 1580 c 256
 -21 1580 -60 1548 -60 1501 c 256
 -60 1477 -52 1457 -33 1433 c 258
 161 1190 l 258
 195 1146 236 1122 284 1123 c 256
EndSplineSet
EndChar

StartChar: caron.alt
Encoding: 65540 -1 172
Width: 659
VWidth: 0
GlyphClass: 4
Flags: W
AnchorPoint: "caron.alt" -89 300 mark 0
LayerCount: 2
Fore
SplineSet
230 292 m 258
 362 292 l 258
 391 291 407 303 418 335 c 258
 598 813 l 258
 603 827 606 866 564 869 c 258
 362 869 l 258
 330 868 297 860 289 813 c 258
 206 335 l 258
 204 323 202 293 230 292 c 258
EndSplineSet
EndChar

StartChar: cedilla
Encoding: 184 184 177
Width: 569
VWidth: 0
GlyphClass: 4
Flags: W
PickledData: "(dp1
S'com.fontlab.hintData'
p2
(dp3
S'vhints'
p4
((dp5
S'position'
p6
I344
sS'width'
p7
I175
stp8
sS'hhints'
p9
((dp10
g6
I-455
sg7
I106
stp11
ss."
HStem: -455 106<212.5 276 212.5 330.5>
VStem: 344 175<-281 -246.5>
AnchorPoint: "bot" 281 0 mark 0
LayerCount: 2
Fore
SplineSet
267 -455 m 256
 394 -455 514 -401 519 -281 c 257
 519 -167 445 -116 350 -113 c 256
 333 -113 311 -114 285 -116 c 257
 334 -2 l 257
 223 -2 l 257
 167 -130 l 258
 161 -143 158 -156 158 -167 c 256
 158 -196 180 -210 217 -210 c 256
 228 -209 238 -205 249 -204 c 256
 294 -204 344 -221 344 -272 c 256
 344 -318 314 -349 238 -349 c 256
 187 -349 127 -327 82 -315 c 256
 79 -316 77 -315 74 -315 c 256
 43 -315 27 -341 27 -370 c 256
 27 -435 158 -455 267 -455 c 256
EndSplineSet
EndChar

StartChar: cent
Encoding: 162 162 178
Width: 1063
VWidth: 0
GlyphClass: 2
Flags: W
PickledData: "(dp1
S'com.typemytype.robofont.layerData'
p2
(dp3
S'b'
(dp4
S'name'
p5
S'cent'
p6
sS'lib'
p7
(dp8
sS'unicodes'
p9
(tsS'width'
p10
I1046
sS'contours'
p11
(tsS'components'
p12
(tsS'anchors'
p13
(tsssS'com.fontlab.hintData'
p14
(dp15
S'vhints'
p16
((dp17
S'position'
p18
I80
sg10
I327
s(dp19
g18
I533
sg10
I143
stp20
sS'hhints'
p21
((dp22
g18
I-307
sg10
I419
s(dp23
g18
I-12
sg10
I256
s(dp24
g18
I901
sg10
I359
stp25
ss."
HStem: -307 419<533 623> -12 256 901 359<533 623>
VStem: 80 327 533 143<-235 -217 -217 111 -235 112 902 1171>
LayerCount: 2
Fore
SplineSet
533 901 m 257
 676 902 l 257
 676 1189 l 258
 676 1236 641 1260 605 1260 c 256
 561 1260 533 1230 533 1171 c 258
 533 901 l 257
605 -307 m 256
 641 -307 676 -283 676 -235 c 258
 676 111 l 257
 533 112 l 257
 533 -217 l 258
 533 -277 561 -307 605 -307 c 256
EndSplineSet
Refer: 169 99 N 1 0 0 1 0 0 2
EndChar

StartChar: circumflex
Encoding: 710 710 179
Width: 569
VWidth: 0
GlyphClass: 4
Flags: W
PickledData: "(dp1
S'com.fontlab.hintData'
p2
(dp3
S'hhints'
p4
((dp5
S'position'
p6
I1141
sS'width'
p7
I457
stp8
ss."
HStem: 1141 457<1.5 303>
AnchorPoint: "top" 294 1040 mark 0
LayerCount: 2
Fore
SplineSet
24 1141 m 256
 67 1141 110 1183 153 1236 c 258
 283 1398 l 257
 417 1227 l 257
 456 1167 495 1145 537 1145 c 256
 581 1145 619 1175 619 1219 c 256
 619 1251 596 1291 572 1324 c 258
 403 1532 l 258
 368 1577 323 1598 283 1598 c 256
 238 1598 196 1573 161 1532 c 258
 -18 1311 l 258
 -42 1277 -59 1241 -59 1217 c 256
 -59 1171 -21 1141 24 1141 c 256
EndSplineSet
EndChar

StartChar: colon
Encoding: 58 58 180
Width: 648
VWidth: 0
GlyphClass: 2
Flags: W
PickledData: "(dp1
S'com.fontlab.hintData'
p2
(dp3
S'vhints'
p4
((dp5
S'position'
p6
I155
sS'width'
p7
I337
stp8
sS'hhints'
p9
((dp10
g6
I-7
sg7
I342
s(dp11
g6
I718
sg7
I340
stp12
ss."
HStem: -7 342<278 367.5 274.5 371.5> 718 340<278.5 368 274.5 373>
VStem: 155 337<117.5 209.5 842 933>
LayerCount: 2
Fore
SplineSet
324 718 m 256
 422 718 492 796 492 888 c 256
 492 988 412 1058 324 1058 c 256
 225 1058 155 978 155 888 c 256
 155 784 233 718 324 718 c 256
324 -7 m 256
 419 -7 492 71 492 164 c 256
 492 267 411 335 324 335 c 256
 225 335 155 255 155 164 c 256
 155 67 232 -7 324 -7 c 256
EndSplineSet
EndChar

StartChar: comma
Encoding: 44 44 181
Width: 648
VWidth: 0
GlyphClass: 2
Flags: W
PickledData: "(dp1
S'b'
(dp2
sS'anchors'
p3
(tsS'lib'
p4
(dp5
sS'unicodes'
p6
(tsS'width'
p7
I615
sS'contours'
p8
(tsS'components'
p9
(tsS'com.typemytype.robofont.layerData'
p10
(dp11
S'b'
(dp12
S'name'
p13
S'comma'
p14
sg4
(dp15
sg6
(tsg7
I584
sg8
(tsg9
(tsg3
(tsssg13
S'comma'
p16
s."
LayerCount: 2
Fore
SplineSet
137 -299 m 258
 258 -299 l 258
 287 -300 302 -288 314 -256 c 258
 495 250 l 258
 500 264 503 303 461 306 c 258
 270 306 l 258
 238 305 205 297 197 250 c 258
 113 -256 l 258
 111 -268 109 -298 137 -299 c 258
EndSplineSet
EndChar

StartChar: uni0326
Encoding: 806 806 182
Width: 648
VWidth: 0
GlyphClass: 4
Flags: W
PickledData: "(dp1
S'b'
(dp2
sS'anchors'
p3
(tsS'lib'
p4
(dp5
sS'unicodes'
p6
(tsS'width'
p7
I615
sS'contours'
p8
(tsS'components'
p9
(tsS'com.typemytype.robofont.layerData'
p10
(dp11
S'b'
(dp12
S'name'
p13
S'uni0326'
p14
sg4
(dp15
sg6
(tsg7
I584
sg8
(tsg9
(tsg3
(tsssg13
S'uni0326'
p16
s."
AnchorPoint: "bot" 359 0 mark 0
LayerCount: 2
Fore
SplineSet
137 -681 m 258
 269 -681 l 258
 298 -682 314 -670 325 -638 c 258
 506 -160 l 258
 511 -146 514 -107 472 -104 c 258
 270 -104 l 258
 238 -105 205 -113 197 -160 c 258
 113 -638 l 258
 111 -650 109 -680 137 -681 c 258
EndSplineSet
EndChar

StartChar: uni0312
Encoding: 786 786 183
Width: 600
VWidth: 0
GlyphClass: 4
Flags: W
AnchorPoint: "top" 296 991 mark 0
LayerCount: 2
Fore
SplineSet
189 1195 m 258
 380 1195 l 258
 412 1196 445 1204 453 1251 c 258
 537 1757 l 258
 539 1769 541 1799 513 1800 c 258
 392 1800 l 258
 363 1801 348 1789 336 1757 c 258
 155 1251 l 258
 150 1237 147 1198 189 1195 c 258
EndSplineSet
EndChar

StartChar: copyright
Encoding: 169 169 184
Width: 1732
VWidth: 0
GlyphClass: 2
Flags: W
PickledData: "(dp1
S'com.fontlab.hintData'
p2
(dp3
S'vhints'
p4
((dp5
S'position'
p6
I140
sS'width'
p7
I164
s(dp8
g6
I494
sg7
I166
s(dp9
g6
I1442
sg7
I162
stp10
sS'hhints'
p11
((dp12
g6
I61
sg7
I143
s(dp13
g6
I368
sg7
I139
s(dp14
g6
I1021
sg7
I136
s(dp15
g6
I1323
sg7
I149
stp16
ss."
HStem: 61 143<708.5 1028 708.5 1074.5> 368 139<825.5 916.5> 1021 136<831 910> 1323 149<712.5 1038.5>
VStem: 140 164<609 922.5 609 949> 494 166<684 859.5 684 895> 1442 162<598 916.5>
LayerCount: 2
Fore
SplineSet
874 61 m 256
 1275 61 1604 378 1604 763 c 256
 1604 1173 1259 1472 874 1472 c 256
 453 1472 140 1135 140 763 c 256
 140 358 482 61 874 61 c 256
874 204 m 256
 543 204 304 455 304 763 c 256
 304 1082 551 1323 874 1323 c 256
 1203 1323 1442 1070 1442 763 c 256
 1442 433 1182 204 874 204 c 256
880 368 m 256
 953 368 1151 393 1151 488 c 256
 1151 518 1129 549 1100 549 c 256
 1095 549 1090 548 1084 546 c 256
 1017 511 951 507 891 507 c 256
 760 507 660 601 660 767 c 256
 660 952 765 1021 897 1021 c 256
 923 1021 951 1020 980 1019 c 257
 1013 1010 1068 978 1093 978 c 256
 1128 978 1149 1014 1149 1046 c 256
 1149 1126 967 1157 881 1157 c 256
 672 1157 494 1025 494 765 c 256
 494 491 681 368 880 368 c 256
EndSplineSet
EndChar

StartChar: currency
Encoding: 164 164 185
Width: 1257
VWidth: 0
GlyphClass: 2
Flags: W
PickledData: "(dp1
S'com.fontlab.hintData'
p2
(dp3
S'vhints'
p4
((dp5
S'position'
p6
I199
sS'width'
p7
I151
s(dp8
g6
I921
sg7
I152
stp9
sS'hhints'
p10
((dp11
g6
I200
sg7
I126
s(dp12
g6
I906
sg7
I128
s(dp13
g6
I964
sg7
I21
stp14
ss."
HStem: 200 126<585 685> 906 128<582.5 687.5 582.5 729.5> 964 21<379 379 892 892>
VStem: 199 151<568 660.5> 921 152<567 659.5 567 687>
LayerCount: 2
Fore
SplineSet
635 326 m 256
 446 326 350 469 350 615 c 256
 350 758 443 906 635 906 c 256
 824 906 921 759 921 615 c 256
 921 459 817 326 635 326 c 256
247 158 m 256
 277 158 295 174 322 205 c 257
 385 264 l 257
 453 222 535 200 635 200 c 256
 735 200 818 221 885 264 c 257
 957 196 l 258
 972 179 991 162 1010 158 c 257
 1047 158 1082 174 1087 220 c 257
 1086 255 1073 273 1046 303 c 257
 986 356 l 257
 1045 432 1073 519 1073 615 c 256
 1073 704 1046 797 990 868 c 257
 1054 928 l 258
 1074 949 1087 965 1087 1000 c 256
 1084 1033 1053 1061 1021 1061 c 256
 1003 1061 976 1047 957 1026 c 258
 892 964 l 257
 824 1010 740 1034 635 1034 c 256
 530 1034 447 1007 379 964 c 257
 314 1026 l 258
 294 1044 276 1064 253 1064 c 256
 218 1064 185 1033 185 1000 c 256
 185 966 197 951 218 928 c 258
 281 868 l 257
 225 793 199 706 199 615 c 256
 199 521 225 430 285 357 c 257
 205 278 l 258
 194 267 187 255 185 240 c 256
 185 202 205 162 247 158 c 256
EndSplineSet
EndChar

StartChar: d
Encoding: 100 100 186
Width: 1279
VWidth: 0
GlyphClass: 2
Flags: W
PickledData: "(dp1
S'b'
(dp2
sS'anchors'
p3
(tsS'lib'
p4
(dp5
sS'unicodes'
p6
(tsS'com.fontlab.hintData'
p7
(dp8
S'vhints'
p9
((dp10
S'position'
p11
I80
sS'width'
p12
I304
s(dp13
g11
I845
sg12
I317
stp14
sS'hhints'
p15
((dp16
g11
I-19
sg12
I196
s(dp17
g11
I812
sg12
I206
stp18
ssg12
I1207
sS'contours'
p19
(tsS'components'
p20
(tsS'com.typemytype.robofont.layerData'
p21
(dp22
S'b'
(dp23
S'name'
p24
S'd'
sg4
(dp25
sg6
(tsg12
I1181
sg19
(tsg20
(tsg3
(tsssg24
S'd'
s."
HStem: -19 196<523.5 586.5> 812 206<534 601.5 405.5 684>
VStem: 80 304<421 588 421 679.5> 845 317<846 1243 846 846>
AnchorPoint: "caron.alt" 944 992 basechar 0
AnchorPoint: "mid" 989 1177 basechar 0
LayerCount: 2
Fore
SplineSet
607 177 m 256
 440 177 384 348 384 494 c 256
 384 682 456 812 612 812 c 256
 756 812 844 710 844 498 c 256
 844 305 778 177 607 177 c 256
514 -19 m 256
 659 -19 784 34 846 168 c 257
 846 156 l 258
 846 68 898 -1 1001 -1 c 256
 1112 -1 1162 88 1162 226 c 258
 1162 1243 l 258
 1162 1381 1121 1457 1010 1457 c 256
 892 1457 845 1381 845 1243 c 258
 845 846 l 257
 794 954 676 1018 527 1018 c 256
 284 1018 80 854 80 505 c 256
 80 154 268 -19 514 -19 c 256
EndSplineSet
EndChar

StartChar: dagger
Encoding: 8224 8224 187
Width: 1298
VWidth: 0
GlyphClass: 2
Flags: W
PickledData: "(dp1
S'com.fontlab.hintData'
p2
(dp3
S'vhints'
p4
((dp5
S'position'
p6
I509
sS'width'
p7
I280
stp8
sS'hhints'
p9
((dp10
g6
I909
sg7
I241
stp11
ss."
HStem: 909 241<314 509 265 509 789 981>
VStem: 509 280<128 909 231 909 231 909 1150 1253 231 1150>
LayerCount: 2
Fore
SplineSet
648 3 m 256
 757 3 789 110 789 231 c 258
 789 909 l 257
 981 909 l 258
 1072 909 1128 943 1128 1031 c 256
 1128 1127 1057 1150 981 1150 c 258
 789 1150 l 257
 789 1293 l 258
 789 1410 736 1476 648 1476 c 256
 538 1476 509 1366 509 1253 c 258
 509 1150 l 257
 314 1150 l 258
 216 1150 169 1109 169 1028 c 256
 169 934 237 909 314 909 c 258
 509 909 l 257
 509 189 l 258
 509 67 560 3 648 3 c 256
EndSplineSet
EndChar

StartChar: daggerdbl
Encoding: 8225 8225 188
Width: 1298
VWidth: 0
GlyphClass: 2
Flags: W
PickledData: "(dp1
S'com.fontlab.hintData'
p2
(dp3
S'vhints'
p4
((dp5
S'position'
p6
I514
sS'width'
p7
I269
stp8
sS'hhints'
p9
((dp10
g6
I291
sg7
I229
s(dp11
g6
I957
sg7
I228
stp12
ss."
HStem: 291 229<324 514 264 514 783 986> 957 228<310 514 264 514 783 986>
VStem: 514 269<136.5 291 217 291 217 291 520 957 217 520 1185 1259>
LayerCount: 2
Fore
SplineSet
648 2 m 256
 751 2 783 106 783 217 c 258
 783 291 l 257
 986 291 l 258
 1074 291 1128 328 1128 407 c 256
 1128 497 1060 520 986 520 c 258
 783 520 l 257
 783 957 l 257
 986 957 l 258
 1074 957 1128 994 1128 1073 c 256
 1128 1162 1060 1185 986 1185 c 258
 783 1185 l 257
 783 1277 l 258
 783 1404 740 1476 648 1476 c 256
 538 1476 514 1364 514 1259 c 258
 514 1185 l 257
 310 1185 l 258
 218 1185 169 1147 169 1069 c 256
 169 977 234 957 310 957 c 258
 514 957 l 257
 514 520 l 257
 310 520 l 258
 218 520 169 482 169 404 c 256
 169 307 243 291 324 291 c 258
 514 291 l 257
 514 200 l 258
 514 73 556 2 648 2 c 256
EndSplineSet
EndChar

StartChar: uni030F
Encoding: 783 783 189
Width: 569
VWidth: 0
GlyphClass: 4
Flags: W
PickledData: "(dp1
S'com.fontlab.hintData'
p2
(dp3
S'hhints'
p4
((dp5
S'position'
p6
I1238
sS'width'
p7
I490
stp8
ss."
HStem: 1238 490<-35 274.5>
AnchorPoint: "top" 485 1099 mark 0
LayerCount: 2
Fore
SplineSet
704 1238 m 256
 740 1238 766 1267 770 1299 c 257
 769 1324 761 1342 747 1364 c 258
 552 1644 l 258
 517 1695 482 1728 439 1728 c 256
 372 1728 302 1666 302 1598 c 256
 302 1568 313 1544 336 1525 c 258
 615 1285 l 258
 641 1260 677 1238 704 1238 c 256
257 1238 m 256
 292 1238 326 1268 326 1309 c 256
 323 1328 314 1346 301 1366 c 258
 103 1649 l 258
 72 1696 38 1728 -5 1728 c 256
 -65 1728 -142 1673 -142 1600 c 256
 -142 1573 -131 1546 -109 1525 c 258
 184 1272 l 258
 204 1253 238 1238 257 1238 c 256
EndSplineSet
EndChar

StartChar: degree
Encoding: 176 176 192
Width: 819
VWidth: 0
GlyphClass: 2
Flags: W
PickledData: "(dp1
S'com.fontlab.hintData'
p2
(dp3
S'vhints'
p4
((dp5
S'position'
p6
I110
sS'width'
p7
I139
s(dp8
g6
I570
sg7
I139
stp9
sS'hhints'
p10
((dp11
g6
I876
sg7
I141
s(dp12
g6
I1323
sg7
I140
stp13
ss."
HStem: 876 141<363.5 451.5 363.5 492.5> 1323 140<363 456.5>
VStem: 110 139<1128 1212 1128 1246.5> 570 139<1122.5 1209>
LayerCount: 2
Fore
SplineSet
410 876 m 256
 575 876 709 1011 709 1170 c 256
 709 1338 567 1463 410 1463 c 256
 237 1463 110 1323 110 1170 c 256
 110 1001 247 876 410 876 c 256
410 1017 m 256
 317 1017 249 1086 249 1170 c 256
 249 1254 317 1323 409 1323 c 256
 504 1323 570 1248 570 1170 c 256
 570 1075 493 1017 410 1017 c 256
EndSplineSet
EndChar

StartChar: dieresis
Encoding: 168 168 193
Width: 569
VWidth: 0
GlyphClass: 4
Flags: W
PickledData: "(dp1
S'com.fontlab.hintData'
p2
(dp3
S'vhints'
p4
((dp5
S'position'
p6
I-93
sS'width'
p7
I296
s(dp8
g6
I366
sg7
I296
stp9
sS'hhints'
p10
((dp11
g6
I1167
sg7
I297
stp12
ss."
HStem: 1167 297<17.5 94.5 476.5 552.5>
VStem: -93 296<1273 1355.5> 366 296<1273 1354.5>
AnchorPoint: "top" 287 1040 mark 0
LayerCount: 2
Fore
SplineSet
515 1167 m 256
 593 1167 662 1231 662 1315 c 256
 662 1402 590 1464 515 1464 c 256
 429 1464 366 1394 366 1315 c 256
 366 1226 438 1167 515 1167 c 256
55 1167 m 256
 134 1167 203 1231 203 1315 c 256
 203 1400 134 1464 55 1464 c 256
 -27 1464 -93 1396 -93 1315 c 256
 -93 1226 -20 1167 55 1167 c 256
EndSplineSet
EndChar

StartChar: divide
Encoding: 247 247 194
Width: 1288
VWidth: 0
GlyphClass: 2
Flags: W
PickledData: "(dp1
S'com.fontlab.hintData'
p2
(dp3
S'vhints'
p4
((dp5
S'position'
p6
I502
sS'width'
p7
I284
stp8
sS'hhints'
p9
((dp10
g6
I-53
sg7
I284
s(dp11
g6
I411
sg7
I211
s(dp12
g6
I802
sg7
I283
stp13
ss."
HStem: -53 284<604 683 600.5 683.5> 411 211<198 237 237 1061 1061 1081> 802 283<605.5 682 600.5 683.5>
VStem: 502 284<49.5 126 904.5 981.5>
LayerCount: 2
Fore
SplineSet
644 802 m 256
 723 802 786 864 786 945 c 256
 786 1029 720 1085 644 1085 c 256
 557 1085 502 1018 502 945 c 256
 502 861 567 802 644 802 c 256
644 -53 m 256
 723 -53 786 9 786 90 c 256
 786 169 722 231 644 231 c 256
 557 231 502 162 502 90 c 256
 502 7 564 -53 644 -53 c 256
198 411 m 258
 1061 411 l 258
 1147 411 1196 435 1196 516 c 256
 1196 595 1148 622 1081 622 c 258
 237 622 l 258
 143 622 102 590 102 516 c 256
 102 461 133 411 198 411 c 258
EndSplineSet
EndChar

StartChar: dollar
Encoding: 36 36 195
Width: 1073
VWidth: 0
GlyphClass: 2
Flags: W
PickledData: "(dp1
S'com.typemytype.robofont.layerData'
p2
(dp3
S'b'
(dp4
S'name'
p5
S'dollar'
p6
sS'lib'
p7
(dp8
sS'unicodes'
p9
(tsS'width'
p10
I1274
sS'contours'
p11
(tsS'components'
p12
(tsS'anchors'
p13
(tsssS'com.fontlab.hintData'
p14
(dp15
S'vhints'
p16
((dp17
S'position'
p18
I73
sg10
I281
s(dp19
g18
I436
sg10
I138
s(dp20
g18
I455
sg10
I139
s(dp21
g18
I679
sg10
I262
stp22
sS'hhints'
p23
((dp24
g18
I973
sg10
I185
stp25
ss."
HStem: 973 185
VStem: 73 281 436 138<1186 1438 1186 1438> 455 139<-48 250 0 250> 679 262
LayerCount: 2
Fore
SplineSet
436 1186 m 257
 574 1186 l 257
 574 1438 l 258
 574 1528 436 1534 436 1438 c 258
 436 1186 l 257
455 0 m 258
 455 -96 594 -90 594 0 c 258
 594 250 l 257
 455 250 l 257
 455 0 l 258
EndSplineSet
Refer: 346 115 N 1 0 0 1 -8 203 2
EndChar

StartChar: dotaccent
Encoding: 729 729 196
Width: 648
VWidth: 0
GlyphClass: 4
Flags: W
PickledData: "(dp1
S'com.fontlab.hintData'
p2
(dp3
S'vhints'
p4
((dp5
S'position'
p6
I169
sS'width'
p7
I337
stp8
sS'hhints'
p9
((dp10
g6
I1196
sg7
I343
stp11
ss."
HStem: 1196 343<290 378.5 287.5 384.5>
VStem: 169 337<1321 1415>
AnchorPoint: "top" 336 1040 mark 0
LayerCount: 2
Fore
SplineSet
336 1196 m 256
 433 1196 506 1273 506 1369 c 256
 506 1475 421 1539 336 1539 c 256
 239 1539 169 1461 169 1369 c 256
 169 1268 244 1196 336 1196 c 256
EndSplineSet
EndChar

StartChar: dotaccentcmb
Encoding: 65541 -1 197
Width: 600
VWidth: 0
GlyphClass: 2
Flags: W
PickledData: "(dp1
S'com.fontlab.hintData'
p2
(dp3
S'vhints'
p4
((dp5
S'position'
p6
I169
sS'width'
p7
I337
stp8
sS'hhints'
p9
((dp10
g6
I1200
sg7
I341
stp11
ss."
HStem: 1200 341<290 378.5 287.5 384.5>
VStem: 169 337<1324 1417>
LayerCount: 2
Fore
SplineSet
336 1200 m 256
 433 1200 506 1277 506 1371 c 256
 506 1477 421 1541 336 1541 c 256
 239 1541 169 1463 169 1371 c 256
 169 1272 244 1200 336 1200 c 256
EndSplineSet
EndChar

StartChar: dotlessi
Encoding: 305 305 198
Width: 553
VWidth: 0
GlyphClass: 2
Flags: W
PickledData: "(dp1
S'com.fontlab.hintData'
p2
(dp3
S'vhints'
p4
((dp5
S'position'
p6
I117
sS'width'
p7
I319
stp8
ss."
VStem: 117 319<156 781 234 781 781 850>
AnchorPoint: "top" 279 991 basechar 0
LayerCount: 2
Fore
SplineSet
276 0 m 256
 392 0 436 105 436 234 c 258
 436 781 l 258
 436 937 383 1015 278 1015 c 256
 191 1015 117 955 117 850 c 258
 117 234 l 258
 117 78 169 0 276 0 c 256
EndSplineSet
EndChar

StartChar: uni0237
Encoding: 567 567 199
Width: 567
VWidth: 0
GlyphClass: 2
Flags: W
PickledData: "(dp1
S'com.fontlab.hintData'
p2
(dp3
S'vhints'
p4
((dp5
S'position'
p6
I131
sS'width'
p7
I318
stp8
sS'hhints'
p9
((dp10
g6
I-391
sg7
I230
stp11
ss."
HStem: -391 230<-82 -21 -92 187>
VStem: 131 318<7 36 36 804>
AnchorPoint: "top" 291 991 basechar 0
LayerCount: 2
Fore
SplineSet
-15 -391 m 256
 389 -391 449 -253 449 7 c 258
 449 811 l 258
 449 945 410 1008 291 1008 c 256
 180 1008 131 939 131 804 c 258
 131 36 l 258
 131 -132 92 -158 -21 -161 c 256
 -163 -161 -149 -391 -15 -391 c 256
EndSplineSet
EndChar

StartChar: e
Encoding: 101 101 200
Width: 1152
VWidth: 0
GlyphClass: 2
Flags: W
PickledData: "(dp1
S'b'
(dp2
sS'anchors'
p3
(tsS'lib'
p4
(dp5
sS'unicodes'
p6
(tsS'com.fontlab.hintData'
p7
(dp8
S'vhints'
p9
((dp10
S'position'
p11
I80
sS'width'
p12
I315
stp13
sS'hhints'
p14
((dp15
g11
I-12
sg12
I223
s(dp16
g11
I841
sg12
I184
stp17
ssg12
I1132
sS'contours'
p18
(tsS'components'
p19
(tsS'com.typemytype.robofont.layerData'
p20
(dp21
S'b'
(dp22
S'name'
p23
S'e'
sg4
(dp24
sg6
(tsg12
I1132
sg18
(tsg19
(tsg3
(tsssg23
S'e'
s."
HStem: -12 223<569 706 569 731> 841 184<543 684>
VStem: 80 315<455 455 455 654.5>
AnchorPoint: "top" 611 1001 basechar 0
AnchorPoint: "ogonek" 804 33 basechar 0
LayerCount: 2
Fore
SplineSet
397 600 m 257
 405 736 476 841 610 841 c 256
 758 841 802 741 810 600 c 257
 397 600 l 257
620 -12 m 256
 842 -12 957 76 1029 140 c 256
 1111 219 983 372 908 306 c 256
 848 255 755 211 657 211 c 256
 481 211 402 304 395 455 c 257
 975 455 l 258
 1038 455 1076 480 1076 537 c 256
 1073 799 946 1025 606 1025 c 256
 292 1025 80 801 80 508 c 256
 80 160 312 -12 620 -12 c 256
EndSplineSet
EndChar

StartChar: eight
Encoding: 56 56 208
Width: 1297
VWidth: 0
GlyphClass: 2
Flags: W
PickledData: "(dp1
S'com.typemytype.robofont.layerData'
p2
(dp3
S'b'
(dp4
S'name'
p5
S'eight'
p6
sS'lib'
p7
(dp8
sS'unicodes'
p9
(tsS'width'
p10
I1160
sS'contours'
p11
(tsS'components'
p12
(tsS'anchors'
p13
(tsssS'com.fontlab.hintData'
p14
(dp15
S'vhints'
p16
((dp17
S'position'
p18
I111
sg10
I340
s(dp19
g18
I139
sg10
I328
s(dp20
g18
I832
sg10
I328
s(dp21
g18
I847
sg10
I339
stp22
sS'hhints'
p23
((dp24
g18
I-26
sg10
I241
s(dp25
g18
I630
sg10
I221
s(dp26
g18
I1229
sg10
I235
stp27
ss."
HStem: -26 241<585.5 705.5 585.5 825> 630 221<588 712 587 713> 1229 235<593 705>
VStem: 111 340<352.5 470.5> 139 328<971.5 1103.5 971.5 1182> 832 328<971 1104> 847 339<347.5 482.5 266 492.5>
LayerCount: 2
Fore
SplineSet
649 851 m 256
 525 851 467 906 467 1037 c 256
 467 1170 537 1229 649 1229 c 256
 761 1229 832 1171 832 1037 c 256
 832 905 775 851 649 851 c 256
649 215 m 256
 522 215 451 281 451 424 c 256
 451 570 527 630 649 630 c 256
 777 630 847 561 847 424 c 256
 847 271 762 215 649 215 c 256
647 -26 m 256
 1003 -26 1186 146 1186 386 c 256
 1186 579 1087 694 915 741 c 257
 1059 776 1160 876 1160 1056 c 256
 1160 1321 973 1464 647 1464 c 256
 314 1464 139 1308 139 1056 c 256
 139 879 238 761 381 741 c 257
 210 701 111 555 111 386 c 256
 111 151 274 -26 647 -26 c 256
EndSplineSet
EndChar

StartChar: ellipsis
Encoding: 8230 8230 209
Width: 1946
VWidth: 0
GlyphClass: 2
Flags: W
PickledData: "(dp1
S'com.fontlab.hintData'
p2
(dp3
S'vhints'
p4
((dp5
S'position'
p6
I155
sS'width'
p7
I337
s(dp8
g6
I804
sg7
I337
s(dp9
g6
I1453
sg7
I337
stp10
sS'hhints'
p11
((dp12
g6
I-7
sg7
I342
stp13
ss."
HStem: -7 342<278 367.5 274.5 371.5 926 1014.5 1573.5 1665>
VStem: 155 337<117.5 209.5> 804 337<117.5 209.5> 1453 337<117.5 209.5>
LayerCount: 2
Fore
SplineSet
1621 -7 m 256
 1717 -7 1790 71 1790 164 c 256
 1790 267 1709 335 1621 335 c 256
 1523 335 1453 255 1453 164 c 256
 1453 67 1526 -7 1621 -7 c 256
972 -7 m 256
 1070 -7 1141 71 1141 164 c 256
 1141 270 1057 335 972 335 c 256
 873 335 804 255 804 164 c 256
 804 67 880 -7 972 -7 c 256
324 -7 m 256
 419 -7 492 71 492 164 c 256
 492 267 411 335 324 335 c 256
 225 335 155 255 155 164 c 256
 155 67 232 -7 324 -7 c 256
EndSplineSet
EndChar

StartChar: emdash
Encoding: 8212 8212 211
Width: 2048
VWidth: 0
GlyphClass: 2
Flags: W
PickledData: "(dp1
S'com.fontlab.hintData'
p2
(dp3
S'hhints'
p4
((dp5
S'position'
p6
I413
sS'width'
p7
I249
stp8
ss."
HStem: 413 249<131.5 181 181 1865 1865 1902>
LayerCount: 2
Fore
SplineSet
108 413 m 258
 1865 413 l 258
 1964 413 2046 429 2046 538 c 256
 2046 634 1989 662 1902 662 c 258
 181 662 l 258
 82 662 0 644 0 538 c 256
 0 474 35 413 108 413 c 258
EndSplineSet
EndChar

StartChar: emptyset
Encoding: 8709 8709 212
Width: 1745
VWidth: 0
GlyphClass: 2
Flags: W
PickledData: "(dp1
S'com.fontlab.hintData'
p2
(dp3
S'vhints'
p4
((dp5
S'position'
p6
I267
sS'width'
p7
I175
s(dp8
g6
I1304
sg7
I174
stp9
sS'hhints'
p10
((dp11
g6
I103
sg7
I162
s(dp12
g6
I942
sg7
I20
s(dp13
g6
I1095
sg7
I167
stp14
ss."
HStem: 103 162<839.413 990 839.413 1040> 942 20 1095 167<752 913.603>
VStem: 267 175<620.372 798.5 620.372 834> 1304 174<558.5 734.373>
LayerCount: 2
Fore
SplineSet
874 103 m 256
 1206 103 1478 363 1478 680 c 256
 1478 846.29 1407.11 991.263 1296.67 1094.92 c 257
 1378 1200 l 258
 1395 1226 1418 1254 1421 1280 c 256
 1426 1314 1400 1348 1367 1352 c 256
 1344 1355 1321 1346 1301 1320 c 258
 1189.39 1175.38 l 257
 1095.89 1230.7 986.964 1262 874 1262 c 256
 526 1262 267 988 267 680 c 256
 267 503.51 347.947 350.761 472.82 246.84 c 257
 395 146 l 258
 377 123 355 90 352 74 c 256
 347 38 374 2 411 -3 c 256
 446 -7 475 32 501 67 c 258
 583.453 173.521 l 257
 670.814 128.299 770.307 103 874 103 c 256
573.586 377.412 m 257
 491.088 453.149 442 560.744 442 680 c 256
 442 917 630 1095 874 1095 c 256
 953.207 1095 1025.53 1076.18 1087.34 1043.14 c 257
 573.586 377.412 l 257
684.751 304.388 m 257
 1193.65 961.837 l 257
 1263.18 887.797 1304 788.747 1304 680 c 256
 1304 437 1106 265 874 265 c 256
 804.826 265 740.968 279.127 684.751 304.388 c 257
EndSplineSet
EndChar

StartChar: endash
Encoding: 8211 8211 213
Width: 1024
VWidth: 0
GlyphClass: 2
Flags: W
PickledData: "(dp1
S'com.fontlab.hintData'
p2
(dp3
S'hhints'
p4
((dp5
S'position'
p6
I413
sS'width'
p7
I249
stp8
ss."
HStem: 413 249<112 150 150 873>
LayerCount: 2
Fore
SplineSet
112 413 m 258
 873 413 l 258
 975 413 1021 452 1021 537 c 256
 1021 646 949 662 873 662 c 258
 150 662 l 258
 55 662 1 626 1 538 c 256
 1 468 44 413 112 413 c 258
EndSplineSet
EndChar

StartChar: eng
Encoding: 331 331 214
Width: 1237
VWidth: 0
GlyphClass: 2
Flags: HW
PickledData: "(dp1
S'com.typemytype.robofont.layerData'
p2
(dp3
S'b'
(dp4
S'name'
p5
S'eng'
p6
sS'lib'
p7
(dp8
sS'unicodes'
p9
(tsS'width'
p10
I1158
sS'contours'
p11
(tsS'components'
p12
(tsS'anchors'
p13
(tsssS'com.fontlab.hintData'
p14
(dp15
S'vhints'
p16
((dp17
S'position'
p18
I118
sg10
I318
s(dp19
g18
I803
sg10
I316
s(dp20
g18
I803
sg10
I318
stp21
sS'hhints'
p22
((dp23
g18
I-357
sg10
I203
s(dp24
g18
I819
sg10
I208
stp25
ss."
HStem: -357 203 819 208
VStem: 118 318 803 316<-50.5 349 130 349 130 353> 803 318
LayerCount: 2
Fore
SplineSet
369 -357 m 0
 482.869453478 -385.100830794 585.99121664 -400.602980161 676.818718622 -400.602980161 c 0
 957.694203093 -400.602980161 1121 -252.356344507 1121 130 c 2
 1121 641 l 2
 1121 889 980 1027 787 1027 c 0
 613 1027 493 961 435 827 c 1
 435 831 l 2
 435 947 387 1007 279 1007 c 0
 169 1007 118 951 118 833 c 2
 118 214 l 2
 118 76 160 0 271 0 c 0
 388 0 436 76 436 214 c 2
 436 594 l 2
 436 726 527 819 641 819 c 0
 732 819 803 757 803 635 c 2
 803 70 l 2
 803 -105.43223731 753.190455236 -188.133939155 610.370236272 -188.133939155 c 0
 556.991208746 -188.133939155 490.619621606 -176.581428644 409 -154 c 0
 397.756108145 -150.652581814 387.042640361 -149.110078872 376.946224324 -149.110078872 c 0
 318.276755125 -149.110078872 280.443145807 -201.195459627 280.443145807 -253.876688177 c 0
 280.443145807 -297.75428794 306.688456047 -342.045229451 369 -357 c 0
EndSplineSet
EndChar

StartChar: equal
Encoding: 61 61 216
Width: 1288
VWidth: 0
GlyphClass: 2
Flags: W
PickledData: "(dp1
S'com.fontlab.hintData'
p2
(dp3
S'hhints'
p4
((dp5
S'position'
p6
I179
sS'width'
p7
I210
s(dp8
g6
I627
sg7
I211
stp9
ss."
HStem: 179 210<233 269 269 1018 1018 1037> 627 211<234 271 271 1017>
LayerCount: 2
Fore
SplineSet
231 627 m 258
 1017 627 l 258
 1089 627 1158 651 1158 732 c 256
 1158 821 1081 838 1017 838 c 258
 271 838 l 258
 197 838 128 814 128 732 c 256
 128 670 176 627 231 627 c 258
231 179 m 258
 1018 179 l 258
 1088 179 1158 199 1158 283 c 256
 1158 368 1088 389 1037 389 c 258
 269 389 l 258
 197 389 128 364 128 283 c 256
 128 220 178 179 231 179 c 258
EndSplineSet
EndChar

StartChar: estimated
Encoding: 8494 8494 217
Width: 1186
VWidth: 0
GlyphClass: 2
Flags: W
PickledData: "(dp1
S'com.fontlab.hintData'
p2
(dp3
S'vhints'
p4
((dp5
S'position'
p6
I70
sS'width'
p7
I268
s(dp8
g6
I807
sg7
I234
stp9
sS'hhints'
p10
((dp11
g6
I-12
sg7
I51
s(dp12
g6
I968
sg7
I45
stp13
ss."
HStem: -12 51<516 658 516 691> 968 45<506 677.5>
VStem: 70 268<491 491 491 635.5> 807 234<562 562>
LayerCount: 2
Fore
SplineSet
340 562 m 257
 351 796 421 968 591 968 c 256
 764 968 806 817 807 562 c 257
 340 562 l 257
600 -12 m 256
 782 -12 888 35 982 115 c 256
 1008 137 1019 159 1019 177 c 256
 1019 199 1003 214 980 214 c 256
 975 214 969 213 963 211 c 256
 950 207 935 198 921 183 c 256
 826 85 712 39 604 39 c 256
 428 39 350 159 338 491 c 257
 976 491 l 258
 1024 491 1041 541 1041 577 c 256
 1041 786 927 1013 577 1013 c 256
 231 1013 70 759 70 512 c 256
 70 183 268 -12 600 -12 c 256
EndSplineSet
EndChar

StartChar: eth
Encoding: 240 240 218
Width: 1298
VWidth: 0
GlyphClass: 2
Flags: W
PickledData: "(dp1
S'com.typemytype.robofont.layerData'
p2
(dp3
S'b'
(dp4
S'name'
p5
S'eth'
p6
sS'lib'
p7
(dp8
sS'unicodes'
p9
(tsS'width'
p10
I1230
sS'contours'
p11
(tsS'components'
p12
(tsS'anchors'
p13
(tsssS'com.fontlab.hintData'
p14
(dp15
S'vhints'
p16
((dp17
S'position'
p18
I74
sg10
I328
s(dp19
g18
I854
sg10
I369
s(dp20
g18
I880
sg10
I343
stp21
sS'hhints'
p22
((dp23
g18
I-36
sg10
I243
s(dp24
g18
I713
sg10
I211
s(dp25
g18
I1069
sg10
I156
stp26
ss."
HStem: -36 243<554.5 695 554.5 840> 713 211<542.5 599.5 395 692> 1069 156<586 765 1162 1259 1259 1260>
VStem: 74 328<375.5 535.5 375.5 606.5> 854 369<459.5 537.5> 880 343
LayerCount: 2
Fore
SplineSet
628 207 m 256
 481 207 402 293 402 458 c 256
 402 613 470 713 615 713 c 256
 769 713 854 621 854 454 c 256
 854 298 762 207 628 207 c 256
627 -36 m 256
 1053 -36 1223 259 1223 660 c 256
 1223 793 1201 933 1162 1069 c 257
 1259 1069 l 258
 1328 1069 1367 1085 1367 1146 c 256
 1367 1216 1314 1225 1260 1225 c 258
 1104 1225 l 257
 992 1489 903 1586 797 1586 c 256
 720 1586 648 1531 649 1458 c 256
 650 1401 724 1319 765 1225 c 257
 586 1225 l 258
 533 1225 508 1186 508 1146 c 256
 508 1106 533 1069 586 1069 c 258
 829 1069 l 257
 864 956 879 861 880 769 c 257
 803 889 668 924 531 924 c 256
 259 924 74 744 74 469 c 256
 74 160 294 -36 627 -36 c 256
EndSplineSet
EndChar

StartChar: exclam
Encoding: 33 33 219
Width: 776
VWidth: 0
GlyphClass: 2
Flags: W
PickledData: "(dp1
S'com.fontlab.hintData'
p2
(dp3
S'vhints'
p4
((dp5
S'position'
p6
I233
sS'width'
p7
I337
s(dp8
g6
I303
sg7
I193
stp9
sS'hhints'
p10
((dp11
g6
I-7
sg7
I342
stp12
ss."
HStem: -7 342
VStem: 233 337 303 193<593 593>
LayerCount: 2
Fore
SplineSet
303 593 m 258
 318 464 481 464 496 593 c 258
 589 1334 l 258
 618 1579 180 1579 209 1334 c 258
 303 593 l 258
EndSplineSet
Refer: 321 46 N 1 0 0 1 78 0 2
EndChar

StartChar: f
Encoding: 102 102 221
Width: 753
VWidth: 0
GlyphClass: 2
Flags: W
PickledData: "(dp1
S'b'
(dp2
sS'anchors'
p3
(tsS'lib'
p4
(dp5
sS'unicodes'
p6
(tsS'com.fontlab.hintData'
p7
(dp8
S'vhints'
p9
((dp10
S'position'
p11
I197
sS'width'
p12
I319
stp13
sS'hhints'
p14
((dp15
g11
I821
sg12
I193
s(dp16
g11
I1239
sg12
I233
stp17
ssg12
I723
sS'contours'
p18
(tsS'components'
p19
(tsS'com.typemytype.robofont.layerData'
p20
(dp21
S'b'
(dp22
S'name'
p23
S'f'
sg4
(dp24
sg6
(tsg12
I696
sg18
(tsg19
(tsg3
(tsssg23
S'f'
s."
HStem: 821 193<132 197 79 197 516 615 615 626> 1239 233<638 699 452 767>
VStem: 197 319<213 821 1014 1026 1026 1067 213 1014>
LayerCount: 2
Fore
SplineSet
360 0 m 256
 470 0 516 76 516 213 c 258
 516 821 l 257
 615 821 l 258
 695 821 728 850 728 917 c 256
 728 989 685 1014 626 1014 c 258
 516 1014 l 257
 516 1026 l 258
 516 1198 538 1239 638 1239 c 258
 699 1239 l 258
 835 1239 820 1472 699 1472 c 258
 589 1472 l 258
 315 1472 197 1354 197 1067 c 258
 197 1014 l 257
 119 1014 l 258
 39 1014 16 971 16 917 c 256
 16 840 60 821 132 821 c 258
 197 821 l 257
 198 213 l 258
 198 76 249 0 360 0 c 256
EndSplineSet
EndChar

StartChar: uniFB01
Encoding: 64257 64257 225
Width: 1295
VWidth: 0
GlyphClass: 2
Flags: W
PickledData: "(dp1
S'com.fontlab.hintData'
p2
(dp3
S'vhints'
p4
((dp5
S'position'
p6
I179
sS'width'
p7
I317
s(dp8
g6
I844
sg7
I346
s(dp9
g6
I859
sg7
I318
stp10
sS'hhints'
p11
((dp12
g6
I814
sg7
I197
s(dp13
g6
I1190
sg7
I278
s(dp14
g6
I1241
sg7
I229
stp15
ss."
HStem: 814 197<131 179 73 179 496 859 859 859> 1190 278<970.5 1061> 1241 229<394.5 634.5>
VStem: 179 317<157 814 234 814 1011 1037 1037 1049 234 1011> 844 346<1284.5 1369> 859 318<170 776 258 776 776 814>
LayerCount: 2
Fore
SplineSet
1017 1190 m 256
 1105 1190 1190 1236 1190 1329 c 256
 1190 1418 1107 1468 1018 1468 c 256
 918 1468 844 1409 844 1329 c 256
 844 1240 924 1190 1017 1190 c 256
337 1 m 256
 453 1 496 107 496 234 c 258
 496 814 l 257
 859 814 l 257
 859 256 l 258
 859 84 907 4 1021 4 c 256
 1155 4 1177 124 1177 258 c 258
 1177 776 l 258
 1177 991 1091 1011 977 1011 c 258
 496 1011 l 257
 496 1037 l 258
 496 1214 511 1241 621 1241 c 256
 648 1241 673 1245 695 1253 c 256
 735 1268 762 1291 762 1345 c 256
 762 1426 709 1454 642 1466 c 256
 603 1470 560 1470 520 1470 c 256
 269 1470 179 1331 179 1049 c 258
 179 1011 l 257
 115 1011 l 258
 31 1011 -6 971 -6 912 c 256
 -6 839 47 814 131 814 c 258
 179 814 l 257
 179 234 l 258
 179 80 229 1 337 1 c 256
EndSplineSet
EndChar

StartChar: five
Encoding: 53 53 226
Width: 1297
VWidth: 0
GlyphClass: 2
Flags: W
PickledData: "(dp1
S'com.typemytype.robofont.layerData'
p2
(dp3
S'b'
(dp4
S'name'
p5
S'five'
p6
sS'lib'
p7
(dp8
sS'unicodes'
p9
(tsS'width'
p10
I1160
sS'contours'
p11
(tsS'components'
p12
(tsS'anchors'
p13
(tsssS'com.fontlab.hintData'
p14
(dp15
S'vhints'
p16
((dp17
S'position'
p18
I848
sg10
I344
stp19
sS'hhints'
p20
((dp21
g18
I-27
sg10
I251
s(dp22
g18
I679
sg10
I239
s(dp23
g18
I1207
sg10
I249
stp24
ss."
HStem: -27 251<571 692.5 571 791> 679 239<581.5 879> 1207 249<504 966 966 984>
VStem: 848 344<360.5 519.5>
LayerCount: 2
Fore
SplineSet
631 -27 m 256
 951 -27 1192 152 1192 458 c 256
 1192 766 1006 918 752 918 c 256
 607 918 494 856 494 856 c 257
 504 1207 l 257
 966 1207 l 258
 1058 1207 1111 1242 1111 1332 c 256
 1111 1423 1053 1456 984 1456 c 258
 427 1456 l 258
 274 1456 207 1431 207 1282 c 258
 207 762 l 258
 207 595 341 555 414 618 c 257
 476 664 548 679 615 679 c 256
 735 679 848 601 848 438 c 256
 848 283 759 224 626 224 c 256
 516 224 426 273 354 332 c 256
 243 428 93 246 209 134 c 257
 290 65 430 -27 631 -27 c 256
EndSplineSet
EndChar

StartChar: uniFB02
Encoding: 64258 64258 228
Width: 1295
VWidth: 0
GlyphClass: 2
Flags: W
PickledData: "(dp1
S'com.fontlab.hintData'
p2
(dp3
S'vhints'
p4
((dp5
S'position'
p6
I179
sS'width'
p7
I317
s(dp8
g6
I821
sg7
I318
stp9
sS'hhints'
p10
((dp11
g6
I814
sg7
I197
s(dp12
g6
I1277
sg7
I185
stp13
ss."
HStem: 814 197<131 179 73 179 496 552 552 567> 1277 185<509 821>
VStem: 179 317<141 814 234 814 234 814 1011 1055 1055 1071 234 1011> 821 318<169.5 1243 256 1243 1243 1277>
LayerCount: 2
Fore
SplineSet
337 1 m 256
 453 1 496 107 496 234 c 258
 496 814 l 257
 552 814 l 258
 646 814 703 837 703 912 c 256
 703 986 647 1011 567 1011 c 258
 496 1011 l 257
 496 1055 l 258
 496 1222 522 1277 623 1277 c 258
 821 1277 l 257
 821 255 l 258
 821 84 872 4 984 4 c 256
 1122 4 1139 128 1139 256 c 258
 1139 1243 l 258
 1139 1385 1079 1453 981 1453 c 256
 906 1453 846 1410 827 1336 c 257
 795 1395 680 1462 509 1462 c 256
 330 1463 179 1347 179 1071 c 258
 179 1011 l 257
 115 1011 l 258
 31 1011 -6 971 -6 912 c 256
 -6 839 47 814 131 814 c 258
 179 814 l 257
 179 211 l 258
 179 71 237 1 337 1 c 256
EndSplineSet
EndChar

StartChar: florin
Encoding: 402 402 229
Width: 1298
VWidth: 0
GlyphClass: 2
Flags: W
PickledData: "(dp1
S'com.fontlab.hintData'
p2
(dp3
S'vhints'
p4
((dp5
S'position'
p6
I245
sS'width'
p7
I818
stp8
sS'hhints'
p9
((dp10
g6
I-543
sg7
I215
s(dp11
g6
I665
sg7
I251
s(dp12
g6
I1428
sg7
I202
stp13
ss."
HStem: -543 215 665 251<417 490 490 490 773 916 916 946> 1428 202
VStem: 245 818<747.5 824 747.5 827>
LayerCount: 2
Fore
SplineSet
113 -543 m 256
 346 -543 512 -359 611 88 c 256
 659 294 696 486 733 665 c 257
 916 665 l 258
 1007 665 1063 704 1063 791 c 256
 1063 857 1019 916 946 916 c 258
 773 916 l 257
 837 1250 903 1413 1039 1428 c 256
 1134 1439 1202 1466 1202 1543 c 256
 1202 1597 1159 1630 1067 1630 c 256
 800 1630 593 1381 529 916 c 257
 362 916 l 258
 288 916 245 856 245 798 c 256
 245 691 325 665 417 665 c 258
 490 665 l 257
 442 403 403 217 367 87 c 256
 295 -202 232 -318 115 -328 c 256
 39 -334 -30 -372 -30 -451 c 256
 -30 -507 17 -543 113 -543 c 256
EndSplineSet
EndChar

StartChar: foundryicon
Encoding: 65546 -1 230
Width: 1347
VWidth: 0
GlyphClass: 2
Flags: W
LayerCount: 2
Fore
SplineSet
280 2 m 257
 669 278 l 257
 1066 2 l 257
 922 461 l 257
 1313 755 l 257
 828 755 l 257
 669 1215 l 257
 519 755 l 257
 34 755 l 257
 423 461 l 257
 280 2 l 257
485 405 m 257
 485 672 l 257
 591 672 l 257
 761 523 l 257
 761 672 l 257
 867 672 l 257
 867 405 l 257
 761 405 l 257
 591 552 l 257
 591 405 l 257
 485 405 l 257
EndSplineSet
EndChar

StartChar: four
Encoding: 52 52 231
Width: 1297
VWidth: 0
GlyphClass: 2
Flags: W
PickledData: "(dp1
S'com.typemytype.robofont.layerData'
p2
(dp3
S'b'
(dp4
S'name'
p5
S'four'
p6
sS'lib'
p7
(dp8
sS'unicodes'
p9
(tsS'width'
p10
I1160
sS'contours'
p11
(tsS'components'
p12
(tsS'anchors'
p13
(tsssS'com.fontlab.hintData'
p14
(dp15
S'vhints'
p16
((dp17
S'position'
p18
I687
sg10
I338
stp19
sS'hhints'
p20
((dp21
g18
I307
sg10
I259
stp22
ss."
HStem: 307 259<370 370 370 687 1025 1116>
VStem: 687 338<195 1167 566 1167 1167 1201 566 1167>
LayerCount: 2
Fore
SplineSet
370 566 m 257
 687 1201 l 257
 687 566 l 257
 370 566 l 257
853 -9 m 256
 980 -9 1024 76 1024 200 c 258
 1024 307 l 257
 1116 307 l 258
 1218 307 1261 348 1261 437 c 256
 1261 539 1197 566 1116 566 c 258
 1025 566 l 257
 1025 1167 l 258
 1025 1398 932 1453 759 1453 c 256
 625 1453 537 1391 488 1300 c 258
 75 533 l 257
 5 379 77 307 214 307 c 258
 687 307 l 257
 687 195 l 258
 687 64 737 -9 853 -9 c 256
EndSplineSet
EndChar

StartChar: uni2074
Encoding: 8308 8308 232
Width: 782
VWidth: 0
GlyphClass: 2
Flags: W
PickledData: "(dp1
S'com.fontlab.hintData'
p2
(dp3
S'vhints'
p4
((dp5
S'position'
p6
I442
sS'width'
p7
I161
stp8
sS'hhints'
p9
((dp10
g6
I804
sg7
I114
stp11
ss."
HStem: 804 114<212 212 212 442>
VStem: 442 161<757 774 774 804 922 1246 1246 1311 757 918>
LayerCount: 2
Fore
SplineSet
212 918 m 257
 442 1311 l 257
 442 918 l 257
 212 918 l 257
523 630 m 256
 582 630 603 689 603 757 c 258
 603 804 l 257
 654 804 l 258
 697 804 719 830 719 863 c 256
 719 906 686 922 643 922 c 258
 603 922 l 257
 603 1246 l 258
 603 1386 578 1465 487 1465 c 256
 411 1465 365 1432 321 1341 c 257
 61 917 l 258
 52 903 47 887 47 870 c 256
 47 811 99 804 160 804 c 258
 442 804 l 257
 442 774 l 258
 442 692 460 630 523 630 c 256
EndSplineSet
EndChar

StartChar: fraction
Encoding: 8260 8260 233
Width: 668
VWidth: 0
GlyphClass: 2
Flags: W
PickledData: "(dp1
S'com.fontlab.hintData'
p2
(dp3
S'vhints'
p4
((dp5
S'position'
p6
I449
sS'width'
p7
I218
stp8
ss."
VStem: 449 218<1381 1453>
LayerCount: 2
Fore
SplineSet
104 -53 m 256
 141 -53 181 -36 198 17 c 258
 643 1313 l 258
 653 1348 667 1389 667 1419 c 256
 667 1487 619 1520 564 1520 c 256
 503 1520 470 1451 449 1381 c 258
 25 153 l 258
 15 115 0 73 0 43 c 256
 0 -19 57 -53 104 -53 c 256
EndSplineSet
EndChar

StartChar: g
Encoding: 103 103 234
Width: 1264
VWidth: 0
GlyphClass: 2
Flags: W
PickledData: "(dp1
S'b'
(dp2
sS'anchors'
p3
(tsS'lib'
p4
(dp5
sS'unicodes'
p6
(tsS'com.fontlab.hintData'
p7
(dp8
S'vhints'
p9
((dp10
S'position'
p11
I72
sS'width'
p12
I340
s(dp13
g11
I842
sg12
I301
stp14
sS'hhints'
p15
((dp16
g11
I-441
sg12
I649
s(dp17
g11
I-390
sg12
I210
stp18
ssg12
I1207
sS'contours'
p19
(tsS'components'
p20
(tsS'com.typemytype.robofont.layerData'
p21
(dp22
S'b'
(dp23
S'name'
p24
S'g'
sg4
(dp25
sg6
(tsg12
I1167
sg19
(tsg20
(tsg3
(tsssg24
S'g'
s."
HStem: -441 649<555.5 624 555.5 786> -390 210
VStem: 72 340<409 596.5 409 643.5> 842 301<-59 782 114 177 401.5 601.5>
AnchorPoint: "top" 597 991 basechar 0
LayerCount: 2
Fore
SplineSet
624 208 m 256
 487 208 412 311 412 507 c 256
 412 686 458 824 623 824 c 256
 792 824 842 698 842 505 c 256
 842 298 752 211 624 208 c 256
602 -441 m 256
 970 -441 1143 -213 1143 114 c 258
 1143 782 l 258
 1143 926 1106 1007 994 1007 c 256
 902 1007 846 954 846 851 c 258
 846 830 l 257
 795 951 696 1031 499 1019 c 256
 232 1002 72 789 72 498 c 256
 72 185 264 16 519 -2 c 256
 663 -13 793 41 842 177 c 257
 842 50 l 258
 842 -168 761 -198 615 -215 c 256
 509 -227 405 -200 333 -180 c 256
 201 -142 119 -321 262 -390 c 256
 331 -419 475 -441 602 -441 c 256
EndSplineSet
EndChar

StartChar: germandbls
Encoding: 223 223 240
Width: 1409
VWidth: 0
GlyphClass: 2
Flags: W
PickledData: "(dp1
S'com.fontlab.hintData'
p2
(dp3
S'vhints'
p4
((dp5
S'position'
p6
I123
sS'width'
p7
I318
s(dp8
g6
I638
sg7
I322
s(dp9
g6
I875
sg7
I312
s(dp10
g6
I1064
sg7
I296
stp11
sS'hhints'
p12
((dp13
g6
I-20
sg7
I202
s(dp14
g6
I1296
sg7
I193
stp15
ss."
HStem: -20 202<894.5 969 894.5 1047> 1296 193<595 728.5>
VStem: 123 318<142 974 253 884> 638 322<726.5 843.5 726.5 878> 875 312<1073 1200.5> 1064 296<268 417>
LayerCount: 2
Fore
SplineSet
942 -20 m 256
 1152 -20 1360 100 1360 332 c 256
 1360 623 960 650 960 803 c 256
 960 884 1187 949 1187 1151 c 256
 1187 1373 948 1489 704 1489 c 256
 234 1489 123 1233 123 884 c 258
 123 209 l 258
 123 75 169 4 275 4 c 256
 393 4 441 110 441 253 c 258
 441 974 l 258
 444 1159 511 1296 679 1296 c 256
 778 1296 875 1249 875 1152 c 256
 875 994 638 969 638 787 c 256
 638 566 1064 521 1064 313 c 256
 1064 223 1007 182 931 182 c 256
 858 182 812 213 777 262 c 256
 747 308 723 325 688 325 c 256
 630 325 577 274 577 215 c 256
 577 202 579 188 586 175 c 256
 642 38 786 -20 942 -20 c 256
EndSplineSet
EndChar

StartChar: grave
Encoding: 96 96 241
Width: 569
VWidth: 0
GlyphClass: 4
Flags: W
PickledData: "(dp1
S'com.fontlab.hintData'
p2
(dp3
S'vhints'
p4
((dp5
S'position'
p6
I39
sS'width'
p7
I468
stp8
sS'hhints'
p9
((dp10
g6
I1199
sg7
I491
stp11
ss."
HStem: 1199 491<144.5 460>
VStem: 39 468<1253.5 1594>
AnchorPoint: "top" 446 1040 mark 0
LayerCount: 2
Fore
SplineSet
442 1199 m 256
 478 1199 507 1234 507 1273 c 256
 507 1289 495 1308 484 1326 c 258
 291 1604 l 258
 258 1655 221 1690 178 1690 c 256
 111 1690 39 1629 39 1559 c 256
 39 1531 49 1508 73 1487 c 258
 368 1234 l 258
 388 1213 421 1199 442 1199 c 256
EndSplineSet
EndChar

StartChar: greater
Encoding: 62 62 242
Width: 1288
VWidth: 0
GlyphClass: 2
Flags: W
PickledData: "(dp1
S'com.typemytype.robofont.layerData'
p2
(dp3
S'b'
(dp4
S'name'
p5
S'less'
p6
sS'lib'
p7
(dp8
sS'unicodes'
p9
(tsS'width'
p10
I1340
sS'contours'
p11
(tsS'components'
p12
(tsS'anchors'
p13
(tsss."
LayerCount: 2
Fore
SplineSet
214 24 m 258
 1010 354 l 258
 1125 406 1151 604 984 677 c 257
 217 985 l 258
 138 1018 26 807 145 757 c 258
 787 507 l 257
 143 248 l 258
 50 207 135 -9 214 24 c 258
EndSplineSet
EndChar

StartChar: greaterequal
Encoding: 8805 8805 243
Width: 1235
VWidth: 0
GlyphClass: 2
Flags: W
PickledData: "(dp1
S'com.fontlab.hintData'
p2
(dp3
S'hhints'
p4
((dp5
S'position'
p6
I-12
sS'width'
p7
I179
stp8
ss."
HStem: -12 179<201 236 236 1009 1009 1027>
LayerCount: 2
Fore
SplineSet
201 -12 m 258
 1009 -12 l 258
 1080 -12 1127 4 1127 77 c 256
 1127 148 1082 167 1027 167 c 258
 236 167 l 258
 161 167 120 144 120 78 c 256
 120 37 144 -12 201 -12 c 258
194 327 m 256
 205 327 217 327 232 331 c 258
 1049 662 l 258
 1123 695 1160 733 1160 794 c 256
 1160 859 1116 898 1050 927 c 258
 279 1239 l 258
 250 1253 216 1270 192 1270 c 256
 137 1270 101 1219 101 1173 c 256
 101 1113 150 1090 207 1064 c 258
 877 795 l 257
 211 535 l 258
 148 507 102 479 102 425 c 256
 102 372 141 327 194 327 c 256
EndSplineSet
EndChar

StartChar: guillemotleft
Encoding: 171 171 244
Width: 1237
VWidth: 0
GlyphClass: 2
Flags: W
LayerCount: 2
Fore
SplineSet
983 -6 m 256
 1054 -6 1102 40 1102 112 c 256
 1099 129 1093 145 1086 162 c 258
 923 528 l 257
 1078 873 l 258
 1089 899 1101 928 1101 949 c 256
 1101 1012 1049 1060 989 1060 c 256
 944 1060 899 1035 864 977 c 258
 606 528 l 257
 846 110 l 258
 887 36 930 -7 983 -6 c 256
483 -6 m 256
 554 -6 601 41 601 112 c 256
 598 129 592 145 585 162 c 258
 422 528 l 257
 577 873 l 258
 588 899 600 928 600 949 c 256
 600 1012 550 1060 489 1060 c 256
 442 1060 399 1036 363 977 c 258
 106 528 l 257
 347 110 l 258
 387 37 428 -6 483 -6 c 256
EndSplineSet
EndChar

StartChar: guillemotright
Encoding: 187 187 245
Width: 1237
VWidth: 0
GlyphClass: 2
Flags: W
LayerCount: 2
Fore
SplineSet
749 -6 m 256
 804 -6 842 35 886 110 c 258
 1127 528 l 257
 886 944 l 258
 842 1020 801 1059 746 1059 c 256
 686 1059 631 1015 631 952 c 256
 631 927 644 900 655 873 c 258
 811 528 l 257
 655 181 l 258
 644 155 633 128 633 104 c 256
 633 35 688 -6 749 -6 c 256
249 -6 m 256
 302 -6 342 35 386 110 c 258
 627 528 l 257
 386 944 l 258
 343 1020 300 1059 246 1059 c 256
 184 1059 132 1015 132 950 c 256
 132 924 143 900 154 875 c 258
 310 528 l 257
 154 179 l 258
 143 153 132 128 132 103 c 256
 132 32 190 -6 249 -6 c 256
EndSplineSet
EndChar

StartChar: guilsinglleft
Encoding: 8249 8249 246
Width: 648
VWidth: 0
GlyphClass: 2
Flags: W
LayerCount: 2
Fore
SplineSet
441 -7 m 256
 502 -7 560 33 560 100 c 256
 560 121 552 143 544 164 c 258
 381 527 l 257
 536 870 l 258
 546 895 558 927 558 952 c 256
 558 1016 504 1061 446 1061 c 256
 400 1061 358 1039 322 977 c 258
 64 527 l 257
 305 113 l 258
 348 37 386 -7 441 -7 c 256
EndSplineSet
EndChar

StartChar: guilsinglright
Encoding: 8250 8250 247
Width: 648
VWidth: 0
GlyphClass: 2
Flags: W
LayerCount: 2
Fore
SplineSet
211 -7 m 256
 265 -7 306 38 349 116 c 258
 589 527 l 257
 349 937 l 258
 305 1020 262 1059 207 1059 c 256
 138 1059 93 1013 93 950 c 256
 93 924 105 897 116 870 c 258
 271 527 l 257
 116 184 l 258
 105 157 93 128 93 103 c 256
 93 31 147 -7 211 -7 c 256
EndSplineSet
EndChar

StartChar: h
Encoding: 104 104 248
Width: 1238
VWidth: 0
GlyphClass: 2
Flags: W
PickledData: "(dp1
S'segmentType'
p2
S'curve'
p3
sS'b'
(dp4
sS'anchors'
p5
(tsS'lib'
p6
(dp7
sS'unicodes'
p8
(tsS'com.fontlab.hintData'
p9
(dp10
S'vhints'
p11
((dp12
S'position'
p13
I118
sS'width'
p14
I318
s(dp15
g13
I804
sg14
I318
stp16
ssg14
I1195
sS'points'
p17
(dp18
sS'contours'
p19
(dp20
sS'components'
p21
(tsS'y'
I113
sS'x'
I137
sS'com.typemytype.robofont.layerData'
p22
(dp23
S'b'
(dp24
S'name'
p25
S'h'
sg6
(dp26
sg8
(tsg14
I1148
sg19
(tsg21
(tsg5
(tsssg25
S'h'
s."
VStem: 118 318<1241 1309.5> 804 318<145 214 145 635>
LayerCount: 2
Fore
SplineSet
277 0 m 256
 394 0 437 76 437 214 c 258
 437 592 l 258
 437 731 532 819 642 819 c 256
 734 819 804 755 804 635 c 258
 804 214 l 258
 804 76 851 0 962 0 c 256
 1079 0 1122 76 1122 214 c 258
 1123 653 l 258
 1123 899 967 1020 795 1030 c 256
 623 1039 504 977 436 857 c 257
 436 1241 l 258
 436 1378 388 1455 271 1455 c 256
 160 1455 118 1378 118 1241 c 258
 119 214 l 258
 119 76 166 0 277 0 c 256
EndSplineSet
EndChar

StartChar: hungarumlaut
Encoding: 733 733 251
Width: 569
VWidth: 0
GlyphClass: 4
Flags: W
AnchorPoint: "top" 174 1040 mark 0
LayerCount: 2
Fore
SplineSet
401 1216 m 256
 424 1216 435 1219 455 1237 c 258
 750 1488 l 258
 782 1519 799 1544 799 1578 c 256
 799 1647 726 1708 661 1708 c 256
 621 1708 582 1676 555 1630 c 257
 353 1345 l 258
 341 1324 332 1310 332 1290 c 256
 332 1248 358 1216 401 1216 c 256
-43 1217 m 256
 -26 1217 -9 1220 10 1237 c 258
 304 1488 l 258
 335 1518 354 1540 354 1579 c 256
 354 1648 284 1708 216 1708 c 256
 176 1708 140 1676 109 1627 c 258
 -90 1345 l 258
 -103 1324 -115 1306 -115 1284 c 256
 -115 1242 -78 1217 -43 1217 c 256
EndSplineSet
EndChar

StartChar: hyphen
Encoding: 45 45 252
Width: 790
VWidth: 0
GlyphClass: 2
Flags: W
PickledData: "(dp1
S'com.fontlab.hintData'
p2
(dp3
S'vhints'
p4
((dp5
S'position'
p6
I36
sS'width'
p7
I718
stp8
sS'hhints'
p9
((dp10
g6
I425
sg7
I225
stp11
ss."
HStem: 425 225<148 170 170 620>
VStem: 36 718<502 572.5>
LayerCount: 2
Fore
SplineSet
148 425 m 258
 620 425 l 258
 702 425 754 467 754 537 c 256
 754 608 702 650 620 650 c 258
 170 650 l 258
 88 650 36 608 36 537 c 256
 36 467 79 425 148 425 c 258
EndSplineSet
EndChar

StartChar: i
Encoding: 105 105 253
Width: 574
VWidth: 0
GlyphClass: 2
Flags: W
PickledData: "(dp1
S'com.fontlab.hintData'
p2
(dp3
S'vhints'
p4
((dp5
S'position'
p6
I122
sS'width'
p7
I346
s(dp8
g6
I136
sg7
I317
stp9
sS'hhints'
p10
((dp11
g6
I1208
sg7
I318
stp12
ss."
HStem: 1208 318<244 347>
VStem: 122 346<1320 1415> 136 317<144.5 794 213 794>
LayerCount: 2
Fore
SplineSet
295 1208 m 256
 399 1208 468 1272 468 1368 c 256
 468 1462 400 1526 296 1526 c 256
 192 1526 122 1462 122 1368 c 256
 122 1272 192 1208 295 1208 c 256
298 0 m 256
 416 0 453 76 453 213 c 258
 453 794 l 258
 453 931 406 1007 288 1007 c 256
 177 1007 136 931 136 794 c 258
 136 213 l 258
 136 76 179 0 298 0 c 256
EndSplineSet
EndChar

StartChar: infinity
Encoding: 8734 8734 262
Width: 1679
VWidth: 0
GlyphClass: 2
Flags: W
PickledData: "(dp1
S'com.fontlab.hintData'
p2
(dp3
S'vhints'
p4
((dp5
S'position'
p6
I100
sS'width'
p7
I159
s(dp8
g6
I1418
sg7
I159
stp9
sS'hhints'
p10
((dp11
g6
I230
sg7
I158
s(dp12
g6
I814
sg7
I155
stp13
ss."
HStem: 230 158<399.5 462 462 465 399.5 530 1180.5 1287.5> 814 155<396 526.5 1222 1226 1226 1287.5>
VStem: 100 159<543.5 661 543.5 703.5> 1418 159<607 610 610 649.5>
LayerCount: 2
Fore
SplineSet
1233 388 m 256
 1128 388 1051 446 928 603 c 257
 992 674 1091 814 1222 814 c 258
 1226 814 l 258
 1349 814 1418 703 1418 596 c 256
 1418 488 1342 388 1233 388 c 256
462 388 m 258
 337 388 259 491 259 596 c 256
 259 726 337 814 455 814 c 256
 598 814 675 696 755 588 c 257
 676 496 585 388 465 388 c 258
 462 388 l 258
443 230 m 256
 617 230 728 336 840 470 c 257
 984 281 1105 230 1229 230 c 256
 1404 230 1577 367 1577 607 c 258
 1577 610 l 258
 1577 829 1426 969 1235 969 c 256
 1043 969 938 828 852 734 c 257
 737 877 621 969 462 969 c 256
 254 969 100 812 100 595 c 256
 100 379 260 230 443 230 c 256
EndSplineSet
EndChar

StartChar: integral
Encoding: 8747 8747 263
Width: 852
VWidth: 0
GlyphClass: 2
Flags: W
PickledData: "(dp1
S'com.fontlab.hintData'
p2
(dp3
S'vhints'
p4
((dp5
S'position'
p6
I292
sS'width'
p7
I245
s(dp8
g6
I328
sg7
I243
stp9
sS'hhints'
p10
((dp11
g6
I-366
sg7
I214
s(dp12
g6
I1610
sg7
I207
stp13
ss."
HStem: -366 214<182 212.5 122.5 287.5> 1610 207
VStem: 292 245<1058.5 1340.5 1036 1437> 328 243<68.5 393.5 -27 399>
LayerCount: 2
Fore
SplineSet
182 -366 m 257
 393 -366 571 -264 571 210 c 256
 571 577 537 862 537 1210 c 256
 537 1471 570 1592 685 1610 c 256
 774 1625 832 1638 832 1715 c 256
 832 1770 786 1817 688 1817 c 256
 430 1817 292 1633 292 1241 c 256
 292 876 328 586 328 212 c 256
 328 -75 266 -152 159 -152 c 256
 86 -152 39 -194 39 -255 c 256
 39 -309 83 -358 182 -366 c 257
EndSplineSet
EndChar

StartChar: j
Encoding: 106 106 266
Width: 599
VWidth: 0
GlyphClass: 2
Flags: W
PickledData: "(dp1
S'com.fontlab.hintData'
p2
(dp3
S'vhints'
p4
((dp5
S'position'
p6
I132
sS'width'
p7
I346
s(dp8
g6
I160
sg7
I317
stp9
sS'hhints'
p10
((dp11
g6
I-392
sg7
I232
s(dp12
g6
I1208
sg7
I318
stp13
ss."
HStem: -392 232<-53 8 -63 215.5> 1208 318<253.5 357>
VStem: 132 346<1320 1415> 160 317<6 39 39 800>
LayerCount: 2
Fore
SplineSet
305 1208 m 256
 409 1208 478 1272 478 1368 c 256
 478 1462 410 1526 306 1526 c 256
 201 1526 132 1462 132 1368 c 256
 132 1272 201 1208 305 1208 c 256
14 -392 m 256
 417 -392 477 -253 477 6 c 258
 477 807 l 258
 477 944 438 1007 320 1007 c 256
 209 1007 160 937 160 800 c 258
 160 39 l 258
 160 -130 120 -157 8 -160 c 256
 -134 -160 -120 -392 14 -392 c 256
EndSplineSet
EndChar

StartChar: k
Encoding: 107 107 268
Width: 1127
VWidth: 0
GlyphClass: 2
Flags: W
PickledData: "(dp1
S'com.typemytype.robofont.layerData'
p2
(dp3
S'b'
(dp4
S'name'
p5
S'k'
sS'lib'
p6
(dp7
sS'unicodes'
p8
(tsS'width'
p9
I984
sS'contours'
p10
((dp11
S'points'
p12
((dp13
S'segmentType'
p14
S'line'
p15
sS'x'
I318
sS'smooth'
p16
I0
sS'y'
I536
s(dp17
g14
S'line'
p18
sS'x'
I793
sg16
I1
sS'y'
I27
s(dp19
S'y'
I9
sS'x'
I809
sg16
I0
s(dp20
S'y'
I1
sS'x'
I828
sg16
I0
s(dp21
g14
S'curve'
p22
sS'x'
I845
sg16
I1
sS'y'
I1
s(dp23
S'y'
I1
sS'x'
I883
sg16
I0
s(dp24
S'y'
I33
sS'x'
I922
sg16
I0
s(dp25
g14
S'curve'
p26
sS'x'
I922
sg16
I1
sS'y'
I71
s(dp27
S'y'
I84
sS'x'
I922
sg16
I0
s(dp28
S'y'
I99
sS'x'
I918
sg16
I0
s(dp29
g14
S'curve'
p30
sS'x'
I906
sg16
I1
sS'y'
I112
s(dp31
g14
S'line'
p32
sS'x'
I492
sg16
I0
sS'y'
I554
s(dp33
g14
S'line'
p34
sS'x'
I873
sg16
I1
sS'y'
I889
s(dp35
S'y'
I902
sS'x'
I888
sg16
I0
s(dp36
S'y'
I918
sS'x'
I894
sg16
I0
s(dp37
g14
S'curve'
p38
sS'x'
I894
sg16
I1
sS'y'
I933
s(dp39
S'y'
I968
sS'x'
I894
sg16
I0
s(dp40
S'y'
I1002
sS'x'
I858
sg16
I0
s(dp41
g14
S'curve'
p42
sS'x'
I821
sg16
I1
sS'y'
I1002
s(dp43
S'y'
I1002
sS'x'
I802
sg16
I0
s(dp44
S'y'
I994
sS'x'
I785
sg16
I0
s(dp45
g14
S'curve'
p46
sS'x'
I770
sg16
I0
sS'y'
I979
s(dp47
g14
S'line'
p48
sS'x'
I318
sg16
I0
sS'y'
I574
stp49
stp50
sS'components'
p51
(tsS'anchors'
p52
(tsssS'com.fontlab.hintData'
p53
(dp54
S'vhints'
p55
((dp56
S'position'
p57
I120
sg9
I318
stp58
ss."
VStem: 120 318<144.5 503 213 503 570 1242>
AnchorPoint: "bot" 576 0 basechar 0
LayerCount: 2
Fore
SplineSet
273 0 m 256
 390 0 438 76 438 213 c 258
 438 503 l 257
 805 70 l 257
 933 -94 1161 84 1042 229 c 257
 759 538 l 257
 1005 791 l 257
 1120 925 932 1120 805 971 c 257
 438 570 l 257
 438 1242 l 258
 438 1379 390 1455 273 1455 c 256
 162 1455 120 1379 120 1242 c 258
 120 213 l 258
 120 76 162 0 273 0 c 256
EndSplineSet
EndChar

StartChar: kgreenlandic
Encoding: 312 312 270
Width: 1110
VWidth: 0
GlyphClass: 2
Flags: W
PickledData: "(dp1
S'com.typemytype.robofont.layerData'
p2
(dp3
S'b'
(dp4
S'name'
p5
S'kgreenlandic'
p6
sS'lib'
p7
(dp8
sS'unicodes'
p9
(tsS'width'
p10
I1047
sS'contours'
p11
(tsS'components'
p12
(tsS'anchors'
p13
(tsssS'com.fontlab.hintData'
p14
(dp15
S'vhints'
p16
((dp17
S'position'
p18
I123
sg10
I318
stp19
sS'hhints'
p20
((dp21
g18
I0
sg10
I1034
stp22
ss."
HStem: 0 1034<220.5 335>
VStem: 123 318<144.5 514 213 514 581 820 213 820>
LayerCount: 2
Fore
SplineSet
276 0 m 256
 394 0 441 76 441 213 c 258
 441 514 l 257
 803 70 l 257
 927 -97 1155 80 1039 229 c 257
 757 560 l 257
 987 779 l 257
 1105 910 914 1119 790 968 c 257
 441 581 l 257
 441 820 l 258
 441 958 394 1034 276 1034 c 256
 165 1034 123 958 123 820 c 258
 123 213 l 258
 123 76 165 0 276 0 c 256
EndSplineSet
EndChar

StartChar: l
Encoding: 108 108 271
Width: 574
VWidth: 0
GlyphClass: 2
Flags: W
PickledData: "(dp1
S'com.typemytype.robofont.layerData'
p2
(dp3
S'b'
(dp4
S'name'
p5
S'l'
sS'lib'
p6
(dp7
sS'unicodes'
p8
(tsS'width'
p9
I511
sS'contours'
p10
(tsS'components'
p11
(tsS'anchors'
p12
(tsssS'com.fontlab.hintData'
p13
(dp14
S'vhints'
p15
((dp16
S'position'
p17
I138
sg9
I317
stp18
ss."
VStem: 138 317<144.5 1241 213 1241>
AnchorPoint: "top" 288 1452 basechar 0
AnchorPoint: "caron.alt" 302 992 basechar 0
AnchorPoint: "bot" 290 0 basechar 0
LayerCount: 2
Fore
SplineSet
290 0 m 256
 408 0 455 76 455 213 c 258
 455 1241 l 258
 455 1378 408 1454 290 1454 c 256
 179 1454 138 1378 138 1241 c 258
 138 213 l 258
 138 76 179 0 290 0 c 256
EndSplineSet
EndChar

StartChar: less
Encoding: 60 60 276
Width: 1288
VWidth: 0
GlyphClass: 2
Flags: W
PickledData: "(dp1
S'com.typemytype.robofont.layerData'
p2
(dp3
S'b'
(dp4
S'name'
p5
S'less'
p6
sS'lib'
p7
(dp8
sS'unicodes'
p9
(tsS'width'
p10
I1340
sS'contours'
p11
(tsS'components'
p12
(tsS'anchors'
p13
(tsss."
LayerCount: 2
Fore
SplineSet
982 24 m 258
 1061 -9 1146 207 1053 248 c 258
 409 507 l 257
 1051 757 l 258
 1170 807 1058 1018 979 985 c 258
 212 677 l 257
 45 604 72 406 186 354 c 257
 982 24 l 258
EndSplineSet
EndChar

StartChar: lessequal
Encoding: 8804 8804 277
Width: 1235
VWidth: 0
GlyphClass: 2
Flags: W
PickledData: "(dp1
S'com.fontlab.hintData'
p2
(dp3
S'hhints'
p4
((dp5
S'position'
p6
I-12
sS'width'
p7
I179
stp8
ss."
HStem: -12 179<173 208 208 982 982 999>
LayerCount: 2
Fore
SplineSet
173 -12 m 258
 982 -12 l 258
 1053 -12 1100 7 1100 77 c 256
 1100 148 1054 167 999 167 c 258
 208 167 l 258
 133 167 92 144 92 78 c 256
 92 37 116 -12 173 -12 c 258
1035 321 m 256
 1088 321 1127 367 1127 419 c 256
 1127 472 1078 502 1022 528 c 258
 351 797 l 257
 1021 1059 l 258
 1079 1085 1127 1112 1127 1167 c 256
 1127 1222 1084 1266 1033 1266 c 256
 1010 1266 975 1248 948 1236 c 258
 180 931 l 258
 105 898 69 861 69 798 c 256
 69 747 98 703 155 678 c 258
 951 351 l 258
 978 339 1011 321 1035 321 c 256
EndSplineSet
EndChar

StartChar: logicalnot
Encoding: 172 172 278
Width: 1288
VWidth: 0
GlyphClass: 2
Flags: W
PickledData: "(dp1
S'com.fontlab.hintData'
p2
(dp3
S'vhints'
p4
((dp5
S'position'
p6
I955
sS'width'
p7
I204
stp8
sS'hhints'
p9
((dp10
g6
I638
sg7
I212
stp11
ss."
HStem: 638 212<288 955 955 955>
VStem: 955 204<346 393 393 638>
LayerCount: 2
Fore
SplineSet
1057 241 m 256
 1105 241 1159 272 1159 346 c 258
 1159 721 l 258
 1159 832 1093 850 1016 850 c 258
 267 850 l 258
 176 850 130 818 130 745 c 256
 130 645 207 638 288 638 c 258
 955 638 l 257
 955 393 l 258
 955 293 984 241 1057 241 c 256
EndSplineSet
EndChar

StartChar: lozenge
Encoding: 9674 9674 279
Width: 1349
VWidth: 0
GlyphClass: 2
Flags: W
LayerCount: 2
Fore
SplineSet
672 192 m 257
 362 738 l 257
 669 1279 l 257
 676 1279 l 257
 986 724 l 257
 679 192 l 257
 672 192 l 257
669 -111 m 256
 712 -111 757 -86 786 -33 c 258
 1223 731 l 257
 834 1421 l 257
 793 1502 742 1586 676 1586 c 256
 618 1586 580 1539 541 1464 c 258
 129 731 l 257
 516 50 l 258
 556 -26 603 -111 669 -111 c 256
EndSplineSet
EndChar

StartChar: lslash
Encoding: 322 322 280
Width: 767
VWidth: 0
GlyphClass: 2
Flags: HW
PickledData: "(dp1
S'com.fontlab.hintData'
p2
(dp3
S'vhints'
p4
((dp5
S'position'
p6
I138
sS'width'
p7
I317
stp8
ss."
VStem: 138 317
LayerCount: 2
Back
SplineSet
220 840 m 5
 -6 692 l 6
 -36 673 -49 640 -49 609 c 4
 -49 554 -10 497 43 497 c 4
 58 497 73 504 91 513 c 6
 220 594 l 5
 614 849 l 6
 642 867 654 893 654 922 c 4
 654 978 609 1040 555 1040 c 4
 540 1040 526 1036 510 1026 c 6
 220 840 l 5
EndSplineSet
Fore
SplineSet
388 0 m 0
 506 0 553 76 553 213 c 2
 553 738.327148438 l 5
 724 849 l 6
 752 867 764 893 764 922 c 4
 764 978 719 1040 665 1040 c 4
 650 1040 636 1036 620 1026 c 6
 553 983.02734375 l 5
 553 1241 l 2
 553 1378 506 1454 388 1454 c 0
 277 1454 236 1378 236 1241 c 2
 236 778.442382812 l 5
 104 692 l 6
 74 673 61 640 61 609 c 4
 61 554 100 497 153 497 c 4
 168 497 183 504 201 513 c 5
 236 534.9765625 l 5
 236 213 l 2
 236 76 277 0 388 0 c 0
EndSplineSet
EndChar

StartChar: m
Encoding: 109 109 281
Width: 1918
VWidth: 0
GlyphClass: 2
Flags: W
PickledData: "(dp1
S'b'
(dp2
sS'anchors'
p3
(tsS'lib'
p4
(dp5
sS'unicodes'
p6
(tsS'com.fontlab.hintData'
p7
(dp8
S'vhints'
p9
((dp10
S'position'
p11
I121
sS'width'
p12
I318
s(dp13
g11
I800
sg12
I318
s(dp14
g11
I1480
sg12
I318
stp15
sS'hhints'
p16
((dp17
g11
I819
sg12
I206
stp18
ssg12
I1877
sS'contours'
p19
(tsS'components'
p20
(tsS'com.typemytype.robofont.layerData'
p21
(dp22
S'b'
(dp23
S'name'
p24
S'm'
sg4
(dp25
sg6
(tsg12
I1838
sg19
(tsg20
(tsg3
(tsssg24
S'm'
s."
HStem: 819 206<584 846>
VStem: 121 318<145.5 620 214 620 620 686 214 802> 800 318<145 598 214 598 598 613> 1480 318<145.5 653 214 635>
AnchorPoint: "top" 949 992 basechar 0
LayerCount: 2
Fore
SplineSet
274 0 m 256
 391 0 439 77 439 214 c 258
 439 620 l 258
 439 752 526 819 642 819 c 256
 739 819 800 747 800 613 c 258
 800 214 l 258
 800 76 846 0 957 0 c 256
 1074 0 1118 76 1118 214 c 258
 1118 598 l 258
 1118 745 1212 819 1322 819 c 256
 1411 819 1480 750 1480 635 c 258
 1480 214 l 258
 1480 77 1528 0 1639 0 c 256
 1756 0 1798 77 1798 214 c 258
 1798 653 l 258
 1798 902 1655 1025 1464 1025 c 256
 1320 1025 1176 994 1091 810 c 257
 1037 993 916 1025 776 1025 c 256
 619 1025 488 961 439 822 c 257
 439 842 l 258
 439 949 382 1007 278 1007 c 256
 167 1007 121 940 121 802 c 258
 121 214 l 258
 121 77 163 0 274 0 c 256
EndSplineSet
EndChar

StartChar: macron
Encoding: 175 175 282
Width: 569
VWidth: 0
GlyphClass: 4
Flags: W
PickledData: "(dp1
S'com.fontlab.hintData'
p2
(dp3
S'hhints'
p4
((dp5
S'position'
p6
I1172
sS'width'
p7
I191
stp8
ss."
HStem: 1172 191<-14 -2 -2 575>
AnchorPoint: "top" 287 992 mark 0
AnchorPoint: "mid" 293 1301 mark 0
LayerCount: 2
Fore
SplineSet
-14 1172 m 258
 575 1172 l 258
 642 1172 674 1209 674 1268 c 256
 674 1341 626 1363 575 1363 c 258
 -2 1363 l 258
 -68 1363 -103 1324 -103 1268 c 256
 -103 1209 -67 1172 -14 1172 c 258
EndSplineSet
EndChar

StartChar: minus
Encoding: 8722 8722 284
Width: 837
VWidth: 0
GlyphClass: 2
Flags: W
PickledData: "(dp1
S'com.fontlab.hintData'
p2
(dp3
S'vhints'
p4
((dp5
S'position'
p6
I47
sS'width'
p7
I738
stp8
sS'hhints'
p9
((dp10
g6
I413
sg7
I249
stp11
ss."
HStem: 413 249<165 192 192 641>
VStem: 47 738<502 579.5>
LayerCount: 2
Fore
SplineSet
165 413 m 258
 641 413 l 258
 729 413 785 454 785 537 c 256
 785 640 709 662 641 662 c 258
 192 662 l 258
 100 662 47 621 47 538 c 256
 47 466 94 413 165 413 c 258
EndSplineSet
EndChar

StartChar: mu
Encoding: 181 181 285
Width: 1237
VWidth: 0
GlyphClass: 2
Flags: W
PickledData: "(dp1
S'com.fontlab.hintData'
p2
(dp3
S'vhints'
p4
((dp5
S'position'
p6
I117
sS'width'
p7
I318
s(dp8
g6
I802
sg7
I319
stp9
sS'hhints'
p10
((dp11
g6
I4
sg7
I1002
s(dp12
g6
I23
sg7
I163
stp13
ss."
HStem: 4 1002<916.5 1019.5 230 1035> 23 163<540 570.5>
VStem: 117 318<-179 31 -75 31 391 758 758 843.5> 802 319<196 802 382 382 382 757>
LayerCount: 2
Fore
SplineSet
270 -320 m 256
 388 -320 435 -205 435 -75 c 258
 435 31 l 257
 459 26 486 23 513 23 c 256
 628 23 754 86 802 205 c 257
 802 187 803 185 804 168 c 256
 815 57 869 4 964 4 c 256
 1106 4 1121 131 1121 279 c 258
 1121 802 l 258
 1121 932 1073 1006 966 1006 c 256
 842 1006 802 886 802 757 c 258
 802 382 l 257
 794 244 703 186 597 186 c 256
 483 186 435 267 435 391 c 258
 435 758 l 258
 435 929 380 1006 272 1006 c 256
 188 1006 117 944 117 848 c 258
 117 -111 l 258
 117 -247 163 -320 270 -320 c 256
EndSplineSet
EndChar

StartChar: multiply
Encoding: 215 215 286
Width: 1288
VWidth: 0
GlyphClass: 2
Flags: W
LayerCount: 2
Fore
SplineSet
351 115 m 256
 384 115 418 142 452 180 c 257
 643 359 l 257
 839 172 l 258
 866 143 894 118 928 118 c 256
 980 118 1031 171 1031 229 c 256
 1031 267 1003 303 974 334 c 258
 788 509 l 257
 978 688 l 258
 1006 718 1035 754 1035 797 c 256
 1035 855 989 901 937 901 c 256
 899 901 866 869 835 835 c 258
 645 657 l 257
 449 844 l 258
 419 878 394 898 351 898 c 257
 297 892 255 837 255 787 c 256
 255 748 282 717 313 683 c 258
 500 507 l 257
 310 328 l 258
 278 293 252 256 252 217 c 256
 252 162 298 115 351 115 c 256
EndSplineSet
EndChar

StartChar: n
Encoding: 110 110 287
Width: 1229
VWidth: 0
GlyphClass: 2
Flags: W
PickledData: "(dp1
S'segmentType'
p2
S'curve'
p3
sS'b'
(dp4
sS'anchors'
p5
(tsS'lib'
p6
(dp7
sS'unicodes'
p8
(tsS'com.fontlab.hintData'
p9
(dp10
S'vhints'
p11
((dp12
S'position'
p13
I118
sS'width'
p14
I318
s(dp15
g13
I803
sg14
I318
stp16
sS'hhints'
p17
((dp18
g13
I819
sg14
I208
stp19
ssg14
I1195
sS'points'
p20
(dp21
sS'contours'
p22
(dp23
sS'components'
p24
(tsS'y'
I113
sS'x'
I137
sS'com.typemytype.robofont.layerData'
p25
(dp26
S'b'
(dp27
S'name'
p28
S'n'
sg6
(dp29
sg8
(tsg14
I1152
sg22
(tsg24
(tsg5
(tsssg28
S'n'
s."
HStem: 819 208<584 883.5>
VStem: 118 318<145 594 214 594 594 660 214 833> 803 318<145 641 214 635>
AnchorPoint: "top" 642 991 basechar 0
AnchorPoint: "bot" 627 0 basechar 0
LayerCount: 2
Fore
SplineSet
271 0 m 256
 388 0 436 76 436 214 c 258
 436 594 l 258
 436 726 527 819 641 819 c 256
 732 819 803 757 803 635 c 258
 803 214 l 258
 803 76 845 0 956 0 c 256
 1073 0 1121 76 1121 214 c 258
 1121 641 l 258
 1121 889 980 1027 787 1027 c 256
 613 1027 493 961 435 827 c 257
 435 831 l 258
 435 947 387 1007 279 1007 c 256
 169 1007 118 951 118 833 c 258
 118 214 l 258
 118 76 160 0 271 0 c 256
EndSplineSet
EndChar

StartChar: nine
Encoding: 57 57 292
Width: 1297
VWidth: 0
GlyphClass: 2
Flags: W
PickledData: "(dp1
S'com.typemytype.robofont.layerData'
p2
(dp3
S'b'
(dp4
S'name'
p5
S'nine'
p6
sS'lib'
p7
(dp8
sS'unicodes'
p9
(tsS'width'
p10
I1160
sS'contours'
p11
(tsS'components'
p12
(tsS'anchors'
p13
(tsssS'com.fontlab.hintData'
p14
(dp15
S'vhints'
p16
((dp17
S'position'
p18
I81
sg10
I327
s(dp19
g18
I851
sg10
I364
s(dp20
g18
I877
sg10
I338
stp21
sS'hhints'
p22
((dp23
g18
I-35
sg10
I265
s(dp24
g18
I515
sg10
I207
s(dp25
g18
I1239
sg10
I238
stp26
ss."
HStem: -35 265<505 662.5 505 798.5> 515 207<620 669.5> 1239 238<565 699.5>
VStem: 81 327<904 1064.5 904 1116.5> 851 364<902.5 986.5 561 1063> 877 338<561 657>
LayerCount: 2
Fore
SplineSet
620 722 m 256
 484 721 408 826 408 982 c 256
 408 1147 497 1239 633 1239 c 256
 766 1239 851 1140 851 986 c 256
 851 819 774 722 620 722 c 256
547 -35 m 256
 1050 -35 1215 341 1215 781 c 256
 1215 1192 1044 1477 624 1477 c 256
 286 1477 81 1262 81 971 c 256
 81 677 319 515 557 515 c 256
 782 515 847 620 877 657 c 257
 877 394 782 230 543 230 c 256
 467 230 392 249 312 270 c 256
 181 308 122 80 235 33 c 257
 334 -14 450 -35 547 -35 c 256
EndSplineSet
EndChar

StartChar: notequal
Encoding: 8800 8800 293
Width: 1196
VWidth: 0
GlyphClass: 2
Flags: W
PickledData: "(dp1
S'com.fontlab.hintData'
p2
(dp3
S'hhints'
p4
((dp5
S'position'
p6
I249
sS'width'
p7
I211
s(dp8
g6
I699
sg7
I211
stp9
ss."
HStem: 249 211<234 370 370 370 664 1000> 699 211<205 234 234 545 545 545 838 1000>
LayerCount: 2
Fore
SplineSet
394 -48 m 256
 441 -48 480 -12 504 53 c 258
 587 249 l 257
 1001 249 l 258
 1087 249 1130 281 1130 354 c 256
 1130 445 1064 460 1000 460 c 258
 664 460 l 257
 762 699 l 257
 1001 699 l 258
 1084 699 1130 729 1130 803 c 256
 1130 894 1064 910 1000 910 c 258
 838 910 l 257
 896 1039 l 258
 906 1066 914 1093 914 1118 c 256
 914 1170 871 1208 822 1213 c 257
 762 1213 730 1185 705 1113 c 257
 621 910 l 257
 234 910 l 258
 146 910 105 876 105 804 c 256
 105 745 139 699 205 699 c 258
 545 699 l 257
 446 460 l 257
 233 460 l 258
 146 460 106 424 106 354 c 256
 106 266 168 249 234 249 c 258
 370 249 l 257
 315 128 l 258
 304 101 296 72 296 51 c 256
 296 -6 338 -48 394 -48 c 256
EndSplineSet
EndChar

StartChar: numbersign
Encoding: 35 35 295
Width: 1298
VWidth: 0
GlyphClass: 2
Flags: W
PickledData: "(dp1
S'com.typemytype.robofont.layerData'
p2
(dp3
S'b'
(dp4
S'name'
p5
S'numbersign'
p6
sS'lib'
p7
(dp8
sS'unicodes'
p9
(tsS'width'
p10
I1169
sS'contours'
p11
(tsS'components'
p12
(tsS'anchors'
p13
(tsssS'com.fontlab.hintData'
p14
(dp15
S'hhints'
p16
((dp17
S'position'
p18
I426
sg10
I188
s(dp19
g18
I851
sg10
I188
stp20
ss."
HStem: 426 188<250 311.747 311.747 311.747 534 710.57 710.57 710.57 932 988> 851 188<308 376 376 376 597.467 774 774 774 995.115 1046>
LayerCount: 2
Fore
SplineSet
534 614 m 257
 567 851 l 257
 774 851 l 257
 740 614 l 257
 534 614 l 257
353 -27 m 257
 429 -27 449 30 460 102 c 258
 508 426 l 257
 710.57 426 l 257
 698.324 368.718 665 79 665 79 c 258
 656 12 707 -27 761 -27 c 256
 825 -27 848 29 856 86 c 258
 907 426 l 257
 988 426 l 258
 1063 426 1103 451 1103 520 c 256
 1103 599 1045 614 988 614 c 258
 932 614 l 257
 966 851 l 257
 1046 851 l 258
 1121 851 1161 876 1161 945 c 256
 1161 1022 1104 1039 1046 1039 c 258
 995.115 1039 l 257
 1006.24 1090.97 1036 1350 1036 1350 c 258
 1046 1421 1002 1457 954 1456 c 256
 907 1456 855 1421 846 1352 c 258
 799 1039 l 257
 597.467 1039 l 257
 608.672 1089.84 637 1327 637 1327 c 258
 648 1406 603 1446 555 1450 c 256
 508 1452 457 1419 448 1352 c 258
 402 1039 l 257
 308 1039 l 258
 232 1039 194 1009 194 946 c 256
 194 865 252 851 308 851 c 258
 376 851 l 257
 342 614 l 257
 238 614 l 258
 174 614 140 584 137 530 c 256
 137 443 186 426 250 426 c 258
 311.747 426 l 257
 299.236 370.324 269 112 269 112 c 258
 257 19 303 -23 353 -27 c 257
EndSplineSet
EndChar

StartChar: o
Encoding: 111 111 296
Width: 1262
VWidth: 0
GlyphClass: 2
Flags: W
PickledData: "(dp1
S'b'
(dp2
sS'anchors'
p3
(tsS'com.typemytype.robofont.layerData'
p4
(dp5
S'b'
(dp6
S'name'
p7
S'o'
sS'lib'
p8
(dp9
sS'unicodes'
p10
(tsS'width'
p11
I1144
sS'contours'
p12
(tsS'components'
p13
(tsg3
(tsssg10
(tsS'com.typemytype.robofont.guides'
p14
(tsS'com.fontlab.hintData'
p15
(dp16
S'vhints'
p17
((dp18
S'position'
p19
I80
sg11
I327
s(dp20
g19
I854
sg11
I328
stp21
sS'hhints'
p22
((dp23
g19
I-12
sg11
I208
s(dp24
g19
I819
sg11
I208
stp25
ssg11
I1199
sg12
(tsg13
(tsg8
(dp26
sg7
S'o'
s."
HStem: -12 208<556 704.5 556 816> 819 208<556 704.5>
VStem: 80 327<412 604.5 412 648.5> 854 328<410.5 604.5>
AnchorPoint: "top" 630 991 basechar 0
LayerCount: 2
Fore
SplineSet
630 -12 m 256
 1002 -12 1182 220 1182 505 c 256
 1182 813 989 1027 630 1027 c 256
 256 1027 80 792 80 505 c 256
 80 204 264 -12 630 -12 c 256
630 196 m 256
 482 196 407 319 407 505 c 256
 407 704 482 819 630 819 c 256
 779 819 854 704 854 505 c 256
 854 316 779 196 630 196 c 256
EndSplineSet
EndChar

StartChar: oe
Encoding: 339 339 301
Width: 1882
VWidth: 0
GlyphClass: 2
Flags: W
PickledData: "(dp1
S'com.fontlab.hintData'
p2
(dp3
S'vhints'
p4
((dp5
S'position'
p6
I66
sS'width'
p7
I321
s(dp8
g6
I815
sg7
I287
stp9
sS'hhints'
p10
((dp11
g6
I-30
sg7
I230
s(dp12
g6
I-19
sg7
I195
s(dp13
g6
I835
sg7
I199
s(dp14
g6
I852
sg7
I190
stp15
ss."
HStem: -30 230<1263.5 1397.5> -19 195<525.5 677.5 525.5 682> 835 199<527 681> 852 190<1240 1371>
VStem: 66 321<410.5 602.5 410.5 652> 815 287<449 596.5>
LayerCount: 2
Fore
SplineSet
1096 601 m 257
 1104 751 1175 852 1305 852 c 256
 1437 852 1507 762 1516 601 c 257
 1096 601 l 257
604 176 m 256
 447 176 387 316 387 505 c 256
 387 700 450 835 604 835 c 256
 758 835 815 693 815 500 c 256
 812 305 751 176 604 176 c 256
1312 -30 m 256
 1483 -30 1740 14 1740 167 c 256
 1740 216 1712 265 1667 265 c 256
 1659 265 1652 264 1645 263 c 256
 1551 238 1476 200 1366 200 c 256
 1161 200 1105 305 1102 449 c 257
 1675 449 l 258
 1747 449 1797 461 1797 534 c 256
 1794 836 1633 1042 1319 1042 c 256
 1160 1042 1038 977 954 876 c 257
 877 972 761 1034 604 1034 c 256
 240 1034 66 799 66 505 c 256
 66 206 248 -19 604 -19 c 256
 760 -19 871 41 951 142 c 257
 1031 32 1151 -30 1312 -30 c 256
EndSplineSet
EndChar

StartChar: ogonek
Encoding: 731 731 302
Width: 569
VWidth: 0
GlyphClass: 4
Flags: W
PickledData: "(dp1
S'com.fontlab.hintData'
p2
(dp3
S'hhints'
p4
((dp5
S'position'
p6
I-491
sS'width'
p7
I143
stp8
ss."
HStem: -491 143<403 459>
AnchorPoint: "ogonek" 243 0 mark 0
LayerCount: 2
Fore
SplineSet
459 -491 m 257
 459 -348 l 257
 347 -348 167 -272 315 0 c 257
 164 0 l 257
 -110 -321 141 -627 459 -491 c 257
EndSplineSet
EndChar

StartChar: one
Encoding: 49 49 306
Width: 1297
VWidth: 0
GlyphClass: 2
Flags: W
PickledData: "(dp1
S'com.typemytype.robofont.layerData'
p2
(dp3
S'b'
(dp4
S'name'
p5
S'one'
p6
sS'lib'
p7
(dp8
sS'unicodes'
p9
(tsS'width'
p10
I1160
sS'contours'
p11
(tsS'components'
p12
(tsS'anchors'
p13
(tsssS'com.fontlab.hintData'
p14
(dp15
S'vhints'
p16
((dp17
S'position'
p18
I546
sg10
I357
stp19
ss."
VStem: 546 357<264 292 292 1090>
LayerCount: 2
Fore
SplineSet
723 1 m 256
 865 1 903 124 903 264 c 258
 903 1188 l 258
 903 1362 850 1457 732 1457 c 256
 685 1458 644 1432 605 1407 c 258
 273 1224 l 257
 217 1185 192 1154 192 1102 c 256
 192 1035 243 972 312 972 c 256
 332 972 353 978 373 989 c 258
 546 1090 l 257
 546 292 l 258
 546 98 599 1 723 1 c 256
EndSplineSet
EndChar

StartChar: onehalf
Encoding: 189 189 307
Width: 1761
VWidth: 0
GlyphClass: 2
Flags: W
PickledData: "(dp1
S'com.fontlab.hintData'
p2
(dp3
S'vhints'
p4
((dp5
S'position'
p6
I326
sS'width'
p7
I175
s(dp8
g6
I1440
sg7
I191
stp9
sS'hhints'
p10
((dp11
g6
I-1
sg7
I151
s(dp12
g6
I680
sg7
I157
stp13
ss."
HStem: -1 151<1271 1520 1271 1555 1271 1578> 680 157<1301 1350>
VStem: 326 175<772 790 790 1240> 1440 191<555.5 623>
LayerCount: 2
Fore
SplineSet
592 -62 m 256
 627 -62 663 -43 679 6 c 258
 1119 1279 l 258
 1130 1310 1141 1350 1141 1382 c 256
 1141 1444 1092 1475 1045 1475 c 256
 990 1475 960 1409 940 1344 c 258
 518 134 l 258
 507 101 496 64 496 32 c 256
 496 -23 544 -62 592 -62 c 256
412 632 m 256
 490 632 501 700 501 772 c 258
 501 1307 l 258
 501 1395 478 1445 422 1445 c 256
 394 1445 372 1430 351 1416 c 258
 170 1314 l 258
 139 1292 124 1274 124 1245 c 256
 124 1208 150 1172 190 1172 c 256
 203 1172 214 1175 226 1183 c 258
 326 1240 l 257
 326 790 l 258
 326 688 347 632 412 632 c 256
1133 -1 m 258
 1555 -1 l 258
 1601 -1 1635 20 1635 67 c 256
 1635 129 1584 150 1520 150 c 258
 1271 150 l 257
 1455 283 1631 458 1631 616 c 256
 1631 758 1511 837 1347 837 c 256
 1255 837 1060 795 1060 710 c 256
 1060 671 1086 637 1125 637 c 256
 1130 637 1137 637 1144 639 c 256
 1189 654 1255 680 1319 680 c 256
 1381 680 1440 652 1440 594 c 256
 1440 517 1538 605 1128 196 c 257
 1076 166 1033 137 1034 78 c 256
 1034 13 1080 -1 1133 -1 c 258
EndSplineSet
EndChar

StartChar: onequarter
Encoding: 188 188 308
Width: 1735
VWidth: 0
GlyphClass: 2
Flags: W
PickledData: "(dp1
S'com.typemytype.robofont.layerData'
p2
(dp3
S'b'
(dp4
S'name'
p5
S'onequarter'
p6
sS'lib'
p7
(dp8
sS'unicodes'
p9
(tsS'width'
p10
I1543
sS'contours'
p11
(tsS'components'
p12
(tsS'anchors'
p13
(tsssS'com.fontlab.hintData'
p14
(dp15
S'vhints'
p16
((dp17
S'position'
p18
I326
sg10
I175
s(dp19
g18
I1357
sg10
I161
stp20
sS'hhints'
p21
((dp22
g18
I173
sg10
I114
stp23
ss."
HStem: 173 114<1127 1127 1127 1357>
VStem: 326 175<772 790 790 1240> 1357 161<128 144 144 173 293 632 632 681 128 287>
LayerCount: 2
Fore
SplineSet
1127 287 m 257
 1357 681 l 257
 1357 287 l 257
 1127 287 l 257
604 -62 m 256
 638 -62 675 -43 691 6 c 258
 1122 1248 l 258
 1133 1287 1152 1337 1152 1377 c 256
 1152 1442 1106 1475 1056 1475 c 256
 1002 1475 969 1409 951 1344 c 257
 530 134 l 258
 519 102 507 68 507 36 c 256
 507 -21 551 -62 604 -62 c 256
412 632 m 256
 490 632 501 700 501 772 c 258
 501 1307 l 258
 501 1395 478 1445 422 1445 c 256
 394 1445 372 1430 351 1416 c 258
 170 1314 l 258
 139 1292 124 1274 124 1245 c 256
 124 1208 150 1172 190 1172 c 256
 203 1172 214 1175 226 1183 c 258
 326 1240 l 257
 326 790 l 258
 326 688 347 632 412 632 c 256
1437 0 m 256
 1498 0 1518 61 1518 128 c 258
 1518 173 l 257
 1568 173 l 258
 1611 173 1634 201 1634 234 c 256
 1634 277 1602 293 1547 293 c 258
 1518 293 l 257
 1518 632 l 258
 1518 766 1489 834 1399 834 c 256
 1321 834 1281 798 1235 710 c 257
 976 286 l 258
 967 270 962 254 962 238 c 256
 962 182 1014 173 1075 173 c 258
 1357 173 l 257
 1357 144 l 258
 1357 57 1377 0 1437 0 c 256
EndSplineSet
EndChar

StartChar: uni00B9
Encoding: 185 185 309
Width: 714
VWidth: 0
GlyphClass: 2
Flags: W
PickledData: "(dp1
S'com.fontlab.hintData'
p2
(dp3
S'vhints'
p4
((dp5
S'position'
p6
I335
sS'width'
p7
I176
stp8
ss."
VStem: 335 176<772 790 790 1240>
LayerCount: 2
Fore
SplineSet
422 632 m 256
 498 632 511 699 511 772 c 258
 511 1307 l 258
 511 1395 488 1445 431 1445 c 256
 403 1445 382 1430 362 1416 c 258
 180 1314 l 258
 147 1294 134 1274 134 1245 c 256
 134 1208 160 1172 200 1172 c 256
 212 1172 224 1175 235 1183 c 258
 335 1240 l 257
 335 790 l 258
 335 689 359 632 422 632 c 256
EndSplineSet
EndChar

StartChar: ordfeminine
Encoding: 170 170 310
Width: 1122
VWidth: 0
GlyphClass: 2
Flags: W
PickledData: "(dp1
S'com.fontlab.hintData'
p2
(dp3
S'vhints'
p4
((dp5
S'position'
p6
I125
sS'width'
p7
I203
s(dp8
g6
I611
sg7
I208
stp9
sS'hhints'
p10
((dp11
g6
I743
sg7
I124
s(dp12
g6
I872
sg7
I20
s(dp13
g6
I1098
sg7
I109
s(dp14
g6
I1354
sg7
I160
stp15
ss."
HStem: 743 124 872 20<617 617> 1098 109<543 552.5 543 611> 1354 160<438.5 525>
VStem: 125 203<942 1033.5 942 1043.5> 611 208<882.5 1098 882.5 1052>
LayerCount: 2
Fore
SplineSet
451 867 m 256
 379 870 328 907 328 977 c 256
 328 1090 472 1098 611 1098 c 257
 611 1052 l 258
 608 936 544 868 451 867 c 256
366 743 m 256
 465 743 577 781 617 892 c 257
 618 881 l 257
 618 796 662 760 719 760 c 256
 810 760 819 842 819 923 c 258
 820 1192 l 258
 820 1435 689 1514 501 1514 c 256
 341 1514 222 1481 193 1389 c 256
 190 1382 188 1375 188 1369 c 256
 188 1335 214 1308 249 1308 c 256
 253 1308 257 1309 262 1310 c 256
 329 1327 390 1354 487 1354 c 256
 563 1354 611 1325 611 1245 c 258
 611 1206 l 257
 590 1207 562 1207 543 1207 c 256
 269 1202 125 1129 125 958 c 256
 125 819 233 743 366 743 c 256
EndSplineSet
EndChar

StartChar: ordmasculine
Encoding: 186 186 311
Width: 1027
VWidth: 0
GlyphClass: 2
Flags: W
PickledData: "(dp1
S'com.fontlab.hintData'
p2
(dp3
S'vhints'
p4
((dp5
S'position'
p6
I84
sS'width'
p7
I251
s(dp8
g6
I673
sg7
I252
stp9
sS'hhints'
p10
((dp11
g6
I790
sg7
I146
s(dp12
g6
I1368
sg7
I146
stp13
ss."
HStem: 790 146<444 562.5 444 650> 1368 146<445.5 562.5>
VStem: 84 251<1090.5 1208.5 1090.5 1245.5> 673 252<1093 1212>
LayerCount: 2
Fore
SplineSet
503 790 m 256
 797 790 925 958 925 1152 c 256
 925 1362 787 1514 503 1514 c 256
 204 1514 84 1339 84 1152 c 256
 84 948 212 790 503 790 c 256
504 936 m 256
 384 936 335 1033 335 1148 c 256
 335 1269 387 1368 504 1368 c 256
 621 1368 673 1270 673 1154 c 256
 673 1032 621 936 504 936 c 256
EndSplineSet
EndChar

StartChar: oslash
Encoding: 248 248 312
Width: 1262
VWidth: 0
GlyphClass: 2
Flags: W
PickledData: "(dp1
S'com.fontlab.hintData'
p2
(dp3
S'vhints'
p4
((dp5
S'position'
p6
I80
sS'width'
p7
I327
s(dp8
g6
I854
sg7
I328
stp9
sS'hhints'
p10
((dp11
g6
I-12
sg7
I208
s(dp12
g6
I819
sg7
I208
stp13
ss."
HStem: -12 208 819 208
VStem: 80 327 854 328
AnchorPoint: "top" 587 991 basechar 0
LayerCount: 2
Fore
SplineSet
292 -171 m 256
 315 -171 337 -159 353 -132 c 258
 1016 1018 l 258
 1031 1048 1050 1089 1050 1118 c 256
 1050 1161 1014 1189 975 1189 c 256
 946 1189 925 1176 910 1150 c 258
 240 -27 l 258
 226 -51 217 -76 217 -100 c 256
 217 -139 252 -171 292 -171 c 256
EndSplineSet
Refer: 296 111 N 1 0 0 1 0 0 2
EndChar

StartChar: p
Encoding: 112 112 315
Width: 1279
VWidth: 0
GlyphClass: 2
Flags: W
PickledData: "(dp1
S'b'
(dp2
sS'anchors'
p3
(tsS'lib'
p4
(dp5
sS'unicodes'
p6
(tsS'com.fontlab.hintData'
p7
(dp8
S'vhints'
p9
((dp10
S'position'
p11
I116
sS'width'
p12
I318
s(dp13
g11
I895
sg12
I304
stp14
sS'hhints'
p15
((dp16
g11
I-12
sg12
I208
s(dp17
g11
I819
sg12
I208
stp18
ssg12
I1207
sS'contours'
p19
(tsS'components'
p20
(tsS'com.typemytype.robofont.layerData'
p21
(dp22
S'b'
(dp23
S'name'
p24
S'p'
sg4
(dp25
sg6
(tsg12
I1181
sg19
(tsg20
(tsg3
(tsssg24
S'p'
s."
HStem: -12 208<677.5 744 594 873> 819 208<692.5 755>
VStem: 116 318<-223 159 -154 159 -154 780> 895 304<418 585>
LayerCount: 2
Fore
SplineSet
666 196 m 256
 522 196 435 296 435 508 c 256
 435 701 501 819 671 819 c 256
 839 819 895 658 895 512 c 256
 895 324 822 196 666 196 c 256
269 -369 m 256
 386 -369 434 -292 434 -154 c 258
 434 159 l 257
 485 52 603 -12 752 -12 c 256
 994 -12 1199 152 1199 501 c 256
 1199 852 1010 1027 765 1027 c 256
 620 1027 495 971 433 838 c 257
 433 850 l 258
 433 938 381 1007 278 1007 c 256
 167 1007 116 918 116 780 c 258
 116 -154 l 258
 116 -292 158 -369 269 -369 c 256
EndSplineSet
EndChar

StartChar: paragraph
Encoding: 182 182 316
Width: 1299
VWidth: 0
GlyphClass: 2
Flags: W
PickledData: "(dp1
S'com.fontlab.hintData'
p2
(dp3
S'vhints'
p4
((dp5
S'position'
p6
I97
sS'width'
p7
I623
s(dp8
g6
I510
sg7
I210
s(dp9
g6
I904
sg7
I209
stp10
ss."
VStem: 97 623<997.5 1186> 510 210<12 1287 63 738> 904 209<12 21 -23.5 63 -23.5 1287>
LayerCount: 2
Fore
SplineSet
615 -126 m 256
 705 -126 720 -26 720 63 c 258
 720 1287 l 257
 904 1287 l 257
 904 63 l 258
 904 -39 922 -126 1009 -126 c 256
 1084 -126 1113 -68 1113 21 c 258
 1115 1263 l 258
 1115 1366 1100 1454 944 1454 c 258
 489 1451 l 258
 233 1450 97 1277 97 1095 c 256
 97 900 265 738 510 738 c 257
 510 63 l 258
 510 -39 528 -126 615 -126 c 256
EndSplineSet
EndChar

StartChar: parenleft
Encoding: 40 40 317
Width: 688
VWidth: 0
GlyphClass: 2
Flags: W
PickledData: "(dp1
S'com.fontlab.hintData'
p2
(dp3
S'vhints'
p4
((dp5
S'position'
p6
I149
sS'width'
p7
I302
stp8
ss."
VStem: 149 302<495 712 495 716>
LayerCount: 2
Fore
SplineSet
464 -263 m 256
 531 -263 582 -210 582 -131 c 256
 582 -102 571 -68 561 -33 c 256
 489 183 451 389 451 601 c 256
 451 823 492 1040 566 1261 c 256
 576 1294 586 1328 586 1358 c 256
 586 1439 532 1490 466 1490 c 256
 396 1490 340 1411 307 1310 c 257
 213 1066 149 834 149 598 c 256
 149 343 223 94 336 -172 c 256
 362 -241 419 -263 464 -263 c 256
EndSplineSet
EndChar

StartChar: parenright
Encoding: 41 41 318
Width: 688
VWidth: 0
GlyphClass: 2
Flags: W
PickledData: "(dp1
S'com.fontlab.hintData'
p2
(dp3
S'vhints'
p4
((dp5
S'position'
p6
I110
sS'width'
p7
I278
s(dp8
g6
I245
sg7
I302
stp9
ss."
VStem: 110 278 245 302<495 711.5>
LayerCount: 2
Fore
SplineSet
227 -264 m 256
 272 -264 332 -242 359 -172 c 256
 471 89 547 340 547 597 c 256
 547 829 482 1065 388 1310 c 256
 353 1411 300 1490 231 1490 c 256
 164 1490 110 1433 110 1359 c 256
 110 1325 120 1294 130 1261 c 256
 204 1039 245 820 245 603 c 256
 245 387 207 174 135 -34 c 256
 124 -68 113 -102 113 -134 c 256
 113 -210 161 -264 227 -264 c 256
EndSplineSet
EndChar

StartChar: partialdiff
Encoding: 8706 8706 319
Width: 1310
VWidth: 0
GlyphClass: 2
Flags: W
PickledData: "(dp1
S'com.fontlab.hintData'
p2
(dp3
S'vhints'
p4
((dp5
S'position'
p6
I75
sS'width'
p7
I296
s(dp8
g6
I922
sg7
I290
stp9
sS'hhints'
p10
((dp11
g6
I-27
sg7
I239
s(dp12
g6
I793
sg7
I233
s(dp13
g6
I1324
sg7
I295
s(dp14
g6
I1404
sg7
I243
stp15
ss."
HStem: -27 239<533.5 604 604 606 533.5 772.5> 793 233<558 664.5 420.5 706> 1324 295 1404 243<512.5 675.5>
VStem: 75 296<400.5 557.5 400.5 635.5> 922 290<892 1034>
LayerCount: 2
Fore
SplineSet
604 212 m 258
 463 212 371 329 371 472 c 256
 371 643 480 793 636 793 c 256
 776 793 870 678 891 608 c 257
 870 432 771 212 606 212 c 258
 604 212 l 258
577 -27 m 256
 968 -27 1212 321 1212 834 c 256
 1212 1362 936 1647 565 1647 c 256
 460 1647 377 1637 299 1619 c 257
 143 1567 83 1528 83 1447 c 256
 83 1388 128 1324 189 1324 c 256
 201 1324 213 1327 226 1332 c 256
 313 1367 421 1404 549 1404 c 256
 802 1404 922 1166 922 902 c 256
 922 882 920 856 920 845 c 257
 890 883 758 1026 571 1026 c 256
 270 1026 75 795 75 476 c 256
 75 260 227 -27 577 -27 c 256
EndSplineSet
EndChar

StartChar: percent
Encoding: 37 37 320
Width: 2109
VWidth: 0
GlyphClass: 2
Flags: W
PickledData: "(dp1
S'com.fontlab.hintData'
p2
(dp3
S'vhints'
p4
((dp5
S'position'
p6
I141
sS'width'
p7
I236
s(dp8
g6
I657
sg7
I236
s(dp9
g6
I1216
sg7
I236
s(dp10
g6
I1731
sg7
I236
stp11
sS'hhints'
p12
((dp13
g6
I-35
sg7
I176
s(dp14
g6
I588
sg7
I175
s(dp15
g6
I665
sg7
I176
s(dp16
g6
I1287
sg7
I175
stp17
ss."
HStem: -35 176<1539.5 1637.5 1539.5 1707> 588 175<465.5 566.5 465.5 628> 665 176<1541 1643> 1287 175<467.5 566.5>
VStem: 141 236<934 1117.5 934 1154.5> 657 236<933.5 1117.5> 1216 236<312.5 494.5 312.5 532.5> 1731 236<306 490.5>
LayerCount: 2
Fore
SplineSet
1591 -35 m 256
 1823 -35 1967 145 1967 403 c 256
 1967 586 1893 841 1591 841 c 256
 1360 841 1216 662 1216 403 c 256
 1216 112 1357 -35 1591 -35 c 256
1591 141 m 256
 1488 141 1452 222 1452 403 c 256
 1452 586 1491 665 1591 665 c 256
 1695 665 1731 578 1731 403 c 256
 1731 209 1684 141 1591 141 c 256
516 588 m 256
 740 588 893 759 893 1026 c 256
 893 1212 817 1462 516 1462 c 256
 286 1462 141 1283 141 1026 c 256
 141 734 284 588 516 588 c 256
516 763 m 256
 415 763 377 842 377 1026 c 256
 377 1209 419 1287 516 1287 c 256
 617 1287 657 1209 657 1026 c 256
 657 841 617 763 516 763 c 256
660 -61 m 256
 700 -61 727 -8 751 37 c 258
 1453 1310 l 258
 1469 1344 1490 1382 1490 1412 c 256
 1490 1452 1455 1487 1417 1487 c 256
 1390 1487 1366 1473 1348 1440 c 258
 618 109 l 258
 602 80 582 37 582 16 c 256
 582 -25 618 -61 660 -61 c 256
EndSplineSet
EndChar

StartChar: period
Encoding: 46 46 321
Width: 648
VWidth: 0
GlyphClass: 2
Flags: W
PickledData: "(dp1
S'com.fontlab.hintData'
p2
(dp3
S'vhints'
p4
((dp5
S'position'
p6
I155
sS'width'
p7
I337
stp8
sS'hhints'
p9
((dp10
g6
I-7
sg7
I342
stp11
ss."
HStem: -7 342<278 367.5 274.5 371.5>
VStem: 155 337<117.5 209.5>
LayerCount: 2
Fore
SplineSet
324 -7 m 256
 419 -7 492 71 492 164 c 256
 492 267 411 335 324 335 c 256
 225 335 155 255 155 164 c 256
 155 67 232 -7 324 -7 c 256
EndSplineSet
EndChar

StartChar: periodcentered
Encoding: 183 183 322
Width: 648
VWidth: 0
GlyphClass: 2
Flags: W
PickledData: "(dp1
S'com.fontlab.hintData'
p2
(dp3
S'vhints'
p4
((dp5
S'position'
p6
I150
sS'width'
p7
I348
stp8
sS'hhints'
p9
((dp10
g6
I339
sg7
I354
stp11
ss."
HStem: 339 354<274.5 371.5 274.5 374>
VStem: 150 348<469.5 565>
LayerCount: 2
Fore
SplineSet
324 339 m 256
 424 339 498 422 498 517 c 256
 498 618 419 693 324 693 c 256
 225 693 150 613 150 517 c 256
 150 419 223 339 324 339 c 256
EndSplineSet
EndChar

StartChar: perthousand
Encoding: 8240 8240 323
Width: 2344
VWidth: 0
GlyphClass: 2
Flags: W
PickledData: "(dp1
S'com.fontlab.hintData'
p2
(dp3
S'vhints'
p4
((dp5
S'position'
p6
I26
sS'width'
p7
I199
s(dp8
g6
I502
sg7
I199
s(dp9
g6
I872
sg7
I199
s(dp10
g6
I1346
sg7
I200
s(dp11
g6
I1624
sg7
I200
s(dp12
g6
I2100
sg7
I199
stp13
sS'hhints'
p14
((dp15
g6
I-35
sg7
I162
s(dp16
g6
I620
sg7
I162
s(dp17
g6
I646
sg7
I162
s(dp18
g6
I1301
sg7
I161
stp19
ss."
HStem: -35 162<1154.5 1255 1154.5 1319.5 1908.5 2007.5> 620 162<312 409 312 476> 646 162<1156 1259 1914.5 2013.5> 1301 161<310.5 416.5>
VStem: 26 199<957 1122.5 957 1154.5> 502 199<945 1125> 872 199<302.5 468.5 302.5 500.5> 1346 200<291.5 471.5> 1624 200<303.5 479 303.5 500.5> 2100 199<290 469>
LayerCount: 2
Fore
SplineSet
1954 -35 m 256
 2190 -35 2299 149 2299 396 c 256
 2299 642 2173 808 1970 808 c 256
 1732 808 1624 624 1624 377 c 256
 1624 115 1761 -35 1954 -35 c 256
1961 127 m 256
 1856 127 1824 221 1824 386 c 256
 1824 572 1868 646 1961 646 c 256
 2066 646 2100 552 2100 386 c 256
 2100 194 2054 127 1961 127 c 256
1201 -35 m 256
 1438 -35 1546 149 1546 396 c 256
 1546 652 1412 808 1216 808 c 256
 980 808 872 624 872 377 c 256
 872 121 1002 -35 1201 -35 c 256
1208 127 m 256
 1101 127 1071 219 1071 386 c 256
 1071 551 1104 646 1208 646 c 256
 1310 646 1346 557 1346 386 c 256
 1346 197 1302 127 1208 127 c 256
356 620 m 256
 596 620 701 805 701 1051 c 256
 701 1300 571 1462 372 1462 c 256
 133 1462 26 1277 26 1032 c 256
 26 775 160 620 356 620 c 256
364 782 m 256
 260 782 225 872 225 1042 c 256
 225 1203 257 1301 364 1301 c 256
 469 1301 502 1208 502 1042 c 256
 502 848 454 782 364 782 c 256
403 -61 m 256
 441 -61 470 -8 494 37 c 258
 1195 1310 l 258
 1212 1343 1233 1383 1233 1412 c 256
 1233 1454 1198 1487 1159 1487 c 256
 1132 1487 1109 1473 1091 1440 c 258
 361 109 l 258
 347 80 325 41 325 16 c 256
 325 -22 362 -61 403 -61 c 256
EndSplineSet
EndChar

StartChar: pi
Encoding: 960 960 324
Width: 1381
VWidth: 0
GlyphClass: 2
Flags: W
PickledData: "(dp1
S'com.typemytype.robofont.layerData'
p2
(dp3
S'b'
(dp4
S'name'
p5
S'pi'
p6
sS'lib'
p7
(dp8
sS'unicodes'
p9
(tsS'width'
p10
I1285
sS'contours'
p11
(tsS'components'
p12
(tsS'anchors'
p13
(tsssS'com.fontlab.hintData'
p14
(dp15
S'vhints'
p16
((dp17
S'position'
p18
I310
sg10
I271
s(dp19
g18
I847
sg10
I277
stp20
sS'hhints'
p21
((dp22
g18
I857
sg10
I245
stp23
ss."
HStem: 857 245<217 310 310 310 581 847 847 847 1119 1207 1207 1208>
VStem: 310 271<664 857 664 857> 847 277<648 648 648 689 648 857>
LayerCount: 2
Fore
SplineSet
1086 -40 m 256
 1342 -3 1134 126 1124 648 c 258
 1119 857 l 257
 1207 857 l 258
 1279 857 1327 898 1327 985 c 256
 1327 1077 1272 1102 1208 1102 c 258
 201 1102 l 258
 124 1102 83 1047 83 984 c 256
 83 893 141 857 217 857 c 258
 310 857 l 257
 310 451 190 182 150 98 c 257
 105 -28 363 -121 433 54 c 257
 471 127 581 471 581 857 c 257
 847 857 l 257
 847 689 l 258
 847 185 860 -76 1086 -40 c 256
EndSplineSet
EndChar

StartChar: plus
Encoding: 43 43 325
Width: 1288
VWidth: 0
GlyphClass: 2
Flags: W
PickledData: "(dp1
S'com.fontlab.hintData'
p2
(dp3
S'vhints'
p4
((dp5
S'position'
p6
I541
sS'width'
p7
I205
stp8
sS'hhints'
p9
((dp10
g6
I403
sg7
I210
stp11
ss."
HStem: 403 210<261 541 746 1027>
VStem: 541 205<100 403 140 403 613 876>
LayerCount: 2
Fore
SplineSet
643 2 m 256
 727 2 746 81 746 140 c 258
 746 403 l 257
 1027 403 l 258
 1096 403 1159 431 1159 508 c 256
 1159 593 1083 613 1027 613 c 258
 746 613 l 257
 746 876 l 258
 746 947 718 1015 643 1015 c 256
 558 1015 541 933 541 876 c 258
 541 613 l 257
 261 613 l 258
 187 613 128 580 128 508 c 256
 128 420 202 403 261 403 c 258
 541 403 l 257
 541 140 l 258
 541 60 572 2 643 2 c 256
EndSplineSet
EndChar

StartChar: plusminus
Encoding: 177 177 326
Width: 1288
VWidth: 0
GlyphClass: 2
Flags: W
PickledData: "(dp1
S'com.fontlab.hintData'
p2
(dp3
S'vhints'
p4
((dp5
S'position'
p6
I541
sS'width'
p7
I205
stp8
sS'hhints'
p9
((dp10
g6
I0
sg7
I209
s(dp11
g6
I537
sg7
I211
stp12
ss."
HStem: 0 209<251 270 270 1017 1017 1057> 537 211<256 269 269 541 746 1031>
VStem: 541 205<378 424 424 537 748 863>
LayerCount: 2
Fore
SplineSet
251 0 m 258
 1017 0 l 258
 1105 0 1157 26 1157 105 c 256
 1157 162 1120 209 1057 209 c 258
 270 209 l 258
 178 209 131 176 131 105 c 256
 131 24 182 0 251 0 c 258
642 274 m 256
 694 274 746 312 746 378 c 258
 746 537 l 257
 1031 537 l 258
 1108 537 1157 569 1157 643 c 256
 1157 726 1098 748 1031 748 c 258
 746 748 l 257
 746 863 l 258
 746 958 715 1013 643 1013 c 256
 558 1013 541 935 541 863 c 258
 541 748 l 257
 269 748 l 258
 177 748 131 715 131 643 c 256
 131 559 189 537 256 537 c 258
 541 537 l 257
 541 424 l 258
 541 325 571 274 642 274 c 256
EndSplineSet
EndChar

StartChar: product
Encoding: 8719 8719 327
Width: 1628
VWidth: 0
GlyphClass: 2
Flags: W
PickledData: "(dp1
S'com.fontlab.hintData'
p2
(dp3
S'hhints'
p4
((dp5
S'position'
p6
I1204
sS'width'
p7
I261
stp8
ss."
HStem: 1204 261<171 178 178 301 301 301 590 1055 1055 1055 1346 1454 1454 1455>
LayerCount: 2
Fore
SplineSet
448 0 m 256
 520 0 590 50 590 152 c 258
 590 1204 l 257
 1055 1204 l 257
 1055 146 l 258
 1055 48 1126 0 1199 0 c 256
 1272 0 1345 49 1345 146 c 258
 1346 1204 l 257
 1454 1204 l 258
 1522 1204 1556 1270 1556 1335 c 256
 1556 1401 1522 1465 1455 1465 c 258
 178 1465 l 258
 105 1465 71 1401 71 1336 c 256
 71 1270 106 1204 171 1204 c 258
 301 1204 l 257
 301 152 l 258
 301 53 374 0 448 0 c 256
EndSplineSet
EndChar

StartChar: q
Encoding: 113 113 328
Width: 1279
VWidth: 0
GlyphClass: 2
Flags: W
PickledData: "(dp1
S'b'
(dp2
sS'anchors'
p3
(tsS'lib'
p4
(dp5
sS'unicodes'
p6
(tsS'com.fontlab.hintData'
p7
(dp8
S'vhints'
p9
((dp10
S'position'
p11
I80
sS'width'
p12
I304
s(dp13
g11
I845
sg12
I317
stp14
sS'hhints'
p15
((dp16
g11
I-12
sg12
I206
s(dp17
g11
I829
sg12
I198
stp18
ssg12
I1207
sS'contours'
p19
(tsS'components'
p20
(tsS'com.typemytype.robofont.layerData'
p21
(dp22
S'b'
(dp23
S'name'
p24
S'p'
sg4
(dp25
sg6
(tsg12
I1181
sg19
(tsg20
(tsg3
(tsssg24
S'p'
s."
HStem: -12 206<534 601.5> 829 198<523.5 586.5 391 692.5>
VStem: 80 304<418 585 418 676.5> 845 317<-223 780 -154 159>
LayerCount: 2
Fore
SplineSet
612 194 m 256
 456 194 384 324 384 512 c 256
 384 658 440 829 607 829 c 256
 778 829 844 701 844 508 c 256
 844 296 756 194 612 194 c 256
1010 -369 m 256
 1121 -369 1162 -292 1162 -154 c 258
 1162 780 l 258
 1162 918 1112 1007 1001 1007 c 256
 898 1007 846 938 846 850 c 258
 846 838 l 257
 784 971 659 1027 514 1027 c 256
 268 1027 80 852 80 501 c 256
 80 152 284 -12 527 -12 c 256
 676 -12 794 52 845 159 c 257
 845 -154 l 258
 845 -292 892 -369 1010 -369 c 256
EndSplineSet
EndChar

StartChar: question
Encoding: 63 63 329
Width: 1064
VWidth: 0
GlyphClass: 2
Flags: W
PickledData: "(dp1
S'com.fontlab.hintData'
p2
(dp3
S'vhints'
p4
((dp5
S'position'
p6
I261
sS'width'
p7
I336
s(dp8
g6
I597
sg7
I371
stp9
sS'hhints'
p10
((dp11
g6
I-63
sg7
I342
s(dp12
g6
I1206
sg7
I285
stp13
ss."
HStem: -63 342<381 473 378.5 477> 1206 285<439.5 460>
VStem: 261 336<61.5 153.5> 597 371<959.5 1109>
LayerCount: 2
Fore
SplineSet
429 -63 m 256
 525 -63 597 14 597 109 c 256
 597 210 517 279 429 279 c 256
 328 279 261 198 261 109 c 256
 261 14 333 -63 429 -63 c 256
286 497 m 258
 294 320 576 338 572 502 c 258
 571 536 l 258
 567 684 968 737 968 1084 c 256
 968 1370 750 1491 490 1491 c 256
 389 1491 275 1480 171 1449 c 256
 101 1427 70 1373 70 1322 c 256
 70 1241 118 1188 186 1188 c 256
 240 1188 310 1206 412 1206 c 256
 508 1206 597 1164 597 1054 c 256
 597 865 271 760 283 544 c 258
 286 497 l 258
EndSplineSet
EndChar

StartChar: quotedbl
Encoding: 34 34 331
Width: 905
VWidth: 0
GlyphClass: 2
Flags: W
PickledData: "(dp1
S'com.fontlab.hintData'
p2
(dp3
S'vhints'
p4
((dp5
S'position'
p6
I142
sS'width'
p7
I244
stp8
sS'hhints'
p9
((dp10
g6
I918
sg7
I558
stp11
ss."
HStem: 918 558<243 287.5 615 660.5>
VStem: 142 244<1365 1372>
LayerCount: 2
Fore
SplineSet
635 918 m 256
 686 918 717 945 726 1041 c 258
 758 1365 l 258
 764 1440 697 1476 637 1476 c 256
 570 1476 509 1434 514 1372 c 258
 514 1372 548 948 548 1018 c 257
 555 940 595 918 635 918 c 256
263 918 m 256
 312 918 345 949 353 1041 c 258
 386 1365 l 258
 394 1444 325 1476 264 1476 c 256
 197 1476 136 1434 142 1372 c 258
 142 1372 175 948 175 1018 c 257
 182 941 223 918 263 918 c 256
EndSplineSet
EndChar

StartChar: quotedblbase
Encoding: 8222 8222 332
Width: 1178
VWidth: 0
GlyphClass: 2
Flags: W
PickledData: "(dp1
S'b'
(dp2
sS'anchors'
p3
(tsS'lib'
p4
(dp5
sS'unicodes'
p6
(tsS'width'
p7
I1161
sS'contours'
p8
(tsS'components'
p9
(tsS'com.typemytype.robofont.layerData'
p10
(dp11
S'b'
(dp12
S'name'
p13
S'quotedblbase'
p14
sg4
(dp15
sg6
(tsg7
I1146
sg8
(tsg9
(tsg3
(tsssg13
S'quotedblbase'
p16
s."
LayerCount: 2
Fore
SplineSet
678 -307 m 258
 799 -307 l 258
 828 -307 843 -296 855 -264 c 258
 1036 245 l 258
 1041 259 1044 302 1002 301 c 258
 811 301 l 258
 779 300 746 292 738 245 c 258
 654 -264 l 258
 652 -276 650 -307 678 -307 c 258
195 -307 m 258
 316 -307 l 258
 345 -307 360 -296 372 -264 c 258
 553 245 l 258
 558 259 561 302 519 301 c 258
 328 301 l 258
 296 300 263 292 255 245 c 258
 171 -264 l 258
 169 -276 167 -306 195 -307 c 258
EndSplineSet
EndChar

StartChar: quotedblleft
Encoding: 8220 8220 333
Width: 1178
VWidth: 0
GlyphClass: 2
Flags: W
PickledData: "(dp1
S'b'
(dp2
sS'anchors'
p3
(tsS'lib'
p4
(dp5
sS'unicodes'
p6
(tsS'com.fontlab.hintData'
p7
(dp8
S'hhints'
p9
((dp10
S'position'
p11
I887
sS'width'
p12
I609
stp13
ssg12
I1161
sS'contours'
p14
(tsS'components'
p15
(tsS'com.typemytype.robofont.layerData'
p16
(dp17
S'b'
(dp18
S'name'
p19
S'quotedblleft'
p20
sg4
(dp21
sg6
(tsg12
I1146
sg14
(tsg15
(tsg3
(tsssg19
S'quotedblleft'
p22
s."
HStem: 887 609<355.5 358 358 358 838.5 841 841 841>
LayerCount: 2
Fore
SplineSet
650 887 m 258
 841 887 l 258
 873 888 906 896 914 943 c 258
 998 1453 l 258
 1000 1465 1002 1494 974 1496 c 258
 853 1496 l 258
 824 1496 809 1485 797 1453 c 258
 616 943 l 258
 611 929 608 887 650 887 c 258
167 887 m 258
 358 887 l 258
 390 888 423 896 431 943 c 258
 515 1453 l 258
 517 1465 519 1496 491 1496 c 258
 370 1496 l 258
 341 1496 326 1485 314 1453 c 258
 133 943 l 258
 128 929 125 887 167 887 c 258
EndSplineSet
EndChar

StartChar: quotedblright
Encoding: 8221 8221 334
Width: 1178
VWidth: 0
GlyphClass: 2
Flags: W
PickledData: "(dp1
S'b'
(dp2
sS'anchors'
p3
(tsS'lib'
p4
(dp5
sS'unicodes'
p6
(tsS'com.fontlab.hintData'
p7
(dp8
S'hhints'
p9
((dp10
S'position'
p11
I887
sS'width'
p12
I609
stp13
ssg12
I1161
sS'contours'
p14
(tsS'components'
p15
(tsS'com.typemytype.robofont.layerData'
p16
(dp17
S'b'
(dp18
S'name'
p19
S'quotedblright'
p20
sg4
(dp21
sg6
(tsg12
I1146
sg14
(tsg15
(tsg3
(tsssg19
S'quotedblright'
p22
s."
HStem: 887 609<195 519 328 330.5 328 799 811 813.5>
LayerCount: 2
Fore
SplineSet
678 887 m 258
 799 887 l 258
 828 887 843 898 855 930 c 258
 1036 1440 l 258
 1041 1454 1044 1496 1002 1496 c 258
 811 1496 l 258
 779 1495 746 1487 738 1440 c 258
 654 930 l 258
 652 918 650 887 678 887 c 258
195 887 m 258
 316 887 l 258
 345 887 360 898 372 930 c 258
 553 1440 l 258
 558 1454 561 1496 519 1496 c 258
 328 1496 l 258
 296 1495 263 1487 255 1440 c 258
 171 930 l 258
 169 918 167 888 195 887 c 258
EndSplineSet
EndChar

StartChar: quoteleft
Encoding: 8216 8216 335
Width: 648
VWidth: 0
GlyphClass: 2
Flags: W
PickledData: "(dp1
S'b'
(dp2
sS'anchors'
p3
(tsS'lib'
p4
(dp5
sS'unicodes'
p6
(tsS'com.fontlab.hintData'
p7
(dp8
S'hhints'
p9
((dp10
S'position'
p11
I887
sS'width'
p12
I609
stp13
ssg12
I615
sS'contours'
p14
(tsS'components'
p15
(tsS'com.typemytype.robofont.layerData'
p16
(dp17
S'b'
(dp18
S'name'
p19
S'quoteleft'
p20
sg4
(dp21
sg6
(tsg12
I584
sg14
(tsg15
(tsg3
(tsssg19
S'quoteleft'
p22
s."
HStem: 887 609<336.5 339 339 339>
LayerCount: 2
Fore
SplineSet
148 887 m 258
 339 887 l 258
 371 888 404 896 412 943 c 258
 496 1453 l 258
 498 1465 500 1494 472 1496 c 258
 351 1496 l 258
 322 1496 307 1485 295 1453 c 258
 114 943 l 258
 109 929 106 887 148 887 c 258
EndSplineSet
EndChar

StartChar: quoteright
Encoding: 8217 8217 336
Width: 648
VWidth: 0
GlyphClass: 2
Flags: W
PickledData: "(dp1
S'b'
(dp2
sS'anchors'
p3
(tsS'lib'
p4
(dp5
sS'unicodes'
p6
(tsS'com.fontlab.hintData'
p7
(dp8
S'hhints'
p9
((dp10
S'position'
p11
I887
sS'width'
p12
I609
stp13
ssg12
I615
sS'contours'
p14
(tsS'components'
p15
(tsS'com.typemytype.robofont.layerData'
p16
(dp17
S'b'
(dp18
S'name'
p19
S'quoteright'
p20
sg4
(dp21
sg6
(tsg12
I584
sg14
(tsg15
(tsg3
(tsssg19
S'quoteright'
p22
s."
HStem: 887 609<164 488 297 299.5>
LayerCount: 2
Fore
SplineSet
164 887 m 258
 285 887 l 258
 314 887 329 898 341 930 c 258
 522 1440 l 258
 527 1454 530 1496 488 1496 c 258
 297 1496 l 258
 265 1494 232 1487 224 1440 c 258
 140 930 l 258
 138 918 136 888 164 887 c 258
EndSplineSet
EndChar

StartChar: quotesinglbase
Encoding: 8218 8218 337
Width: 648
VWidth: 0
GlyphClass: 2
Flags: W
PickledData: "(dp1
S'com.typemytype.robofont.layerData'
p2
(dp3
S'b'
(dp4
S'name'
p5
S'quotesinglbase'
p6
sS'lib'
p7
(dp8
sS'unicodes'
p9
(tsS'width'
p10
I615
sS'contours'
p11
(tsS'components'
p12
(tsS'anchors'
p13
(tsssS'com.fontlab.hintData'
p14
(dp15
S'hhints'
p16
((dp17
S'position'
p18
I-296
sg10
I609
stp19
ss."
HStem: -296 609<163 487 296 298.5>
LayerCount: 2
Fore
SplineSet
163 -296 m 258
 284 -296 l 258
 313 -296 328 -285 340 -253 c 258
 521 257 l 258
 526 271 529 313 487 313 c 258
 296 313 l 258
 264 311 231 304 223 257 c 258
 139 -253 l 258
 137 -265 135 -295 163 -296 c 258
EndSplineSet
EndChar

StartChar: quotesingle
Encoding: 39 39 338
Width: 648
VWidth: 0
GlyphClass: 2
Flags: W
PickledData: "(dp1
S'com.fontlab.hintData'
p2
(dp3
S'vhints'
p4
((dp5
S'position'
p6
I201
sS'width'
p7
I243
stp8
sS'hhints'
p9
((dp10
g6
I883
sg7
I593
stp11
ss."
HStem: 883 593<290.5 338>
VStem: 201 243<1373 1379>
LayerCount: 2
Fore
SplineSet
313 883 m 256
 363 883 398 894 408 969 c 258
 444 1373 l 258
 451 1449 385 1476 324 1476 c 256
 257 1476 196 1442 201 1379 c 258
 201 1379 230 897 231 966 c 257
 236 899 265 883 313 883 c 256
EndSplineSet
EndChar

StartChar: r
Encoding: 114 114 339
Width: 823
VWidth: 0
GlyphClass: 2
Flags: W
PickledData: "(dp1
S'b'
(dp2
sS'anchors'
p3
(tsS'lib'
p4
(dp5
sS'unicodes'
p6
(tsS'com.fontlab.hintData'
p7
(dp8
S'vhints'
p9
((dp10
S'position'
p11
I117
sS'width'
p12
I318
stp13
sS'hhints'
p14
((dp15
g11
I766
sg12
I262
stp16
ssg12
I763
sS'contours'
p17
(tsS'components'
p18
(tsS'com.typemytype.robofont.layerData'
p19
(dp20
S'b'
(dp21
S'name'
p22
S'r'
sg4
(dp23
sg6
(tsg12
I715
sg17
(tsg18
(tsg3
(tsssg22
S'r'
s."
HStem: 766 262<627 768>
VStem: 117 318<206 214 214 552 552 623.5 813 848 848 850>
AnchorPoint: "top" 378 1001 basechar 0
AnchorPoint: "bot" 276 0 basechar 0
LayerCount: 2
Fore
SplineSet
276 0 m 256
 393 0 435 68 435 206 c 258
 435 552 l 258
 435 695 564 766 690 766 c 256
 846 766 869 1028 687 1028 c 256
 551 1028 469 902 435 813 c 257
 435 848 l 258
 435 1052 117 1064 117 850 c 258
 117 214 l 258
 117 77 165 0 276 0 c 256
EndSplineSet
EndChar

StartChar: radical
Encoding: 8730 8730 341
Width: 1449
VWidth: 0
GlyphClass: 2
Flags: W
LayerCount: 2
Fore
SplineSet
644 -102 m 256
 807 -102 871 51 964 343 c 257
 1331 1315 l 258
 1343 1353 1347 1388 1347 1421 c 256
 1347 1532 1277 1590 1200 1590 c 256
 1126 1590 1050 1532 1011 1413 c 257
 618 340 l 257
 613 339 l 257
 464 585 l 257
 400 704 327 744 255 732 c 256
 172 716 107 633 124 524 c 256
 128 499 133 475 149 448 c 258
 376 91 l 258
 464 -41 515 -102 644 -102 c 256
EndSplineSet
EndChar

StartChar: registered
Encoding: 174 174 344
Width: 1739
VWidth: 0
GlyphClass: 2
Flags: W
PickledData: "(dp1
S'com.fontlab.hintData'
p2
(dp3
S'vhints'
p4
((dp5
S'position'
p6
I133
sS'width'
p7
I166
s(dp8
g6
I594
sg7
I151
s(dp9
g6
I1064
sg7
I155
s(dp10
g6
I1445
sg7
I164
stp11
sS'hhints'
p12
((dp13
g6
I44
sg7
I143
s(dp14
g6
I1012
sg7
I126
s(dp15
g6
I1312
sg7
I151
stp16
ss."
HStem: 44 143<704.5 1030 704.5 1078> 1012 126<745 880> 1312 151<713.5 1040.5>
VStem: 133 166<597 913 597 939> 594 151<415.5 694 481 694 819 1012> 1064 155<877 955.5> 1445 164<587 900.5>
LayerCount: 2
Fore
SplineSet
872 44 m 256
 1284 44 1609 371 1609 750 c 256
 1609 1158 1263 1463 872 1463 c 256
 454 1463 133 1128 133 750 c 256
 133 358 469 44 872 44 c 256
872 187 m 256
 537 187 299 444 299 750 c 256
 299 1076 555 1312 872 1312 c 256
 1209 1312 1445 1051 1445 750 c 256
 1445 424 1188 187 872 187 c 256
745 819 m 257
 745 1012 l 257
 905 1012 l 258
 1004 1012 1064 989 1064 922 c 256
 1064 832 1000 819 904 819 c 258
 745 819 l 257
669 367 m 256
 728 367 745 422 745 481 c 258
 745 694 l 257
 856 694 l 257
 1024 400 l 258
 1071 313 1205 377 1147 486 c 257
 1005 700 l 257
 1133 719 1219 777 1219 910 c 256
 1219 1101 1103 1138 880 1138 c 258
 685 1138 l 258
 624 1138 594 1103 594 1031 c 258
 594 442 l 258
 594 389 630 367 669 367 c 256
EndSplineSet
EndChar

StartChar: ring
Encoding: 730 730 345
Width: 569
VWidth: 0
GlyphClass: 4
Flags: W
PickledData: "(dp1
S'com.fontlab.hintData'
p2
(dp3
S'vhints'
p4
((dp5
S'position'
p6
I48
sS'width'
p7
I127
s(dp8
g6
I373
sg7
I127
stp9
sS'hhints'
p10
((dp11
g6
I1177
sg7
I132
s(dp12
g6
I1501
sg7
I132
stp13
ss."
HStem: 1177 132<245 303 245 340> 1501 132<245 303>
VStem: 48 127<1377 1433.5 1377 1472> 373 127<1377 1433.5>
AnchorPoint: "top" 285 1040 mark 0
LayerCount: 2
Fore
SplineSet
274 1177 m 256
 406 1177 500 1272 500 1405 c 256
 500 1539 406 1633 274 1633 c 256
 141 1633 48 1539 48 1405 c 256
 48 1272 141 1177 274 1177 c 256
274 1309 m 256
 216 1309 175 1349 175 1405 c 256
 175 1462 216 1501 274 1501 c 256
 332 1501 373 1462 373 1405 c 256
 373 1349 332 1309 274 1309 c 256
EndSplineSet
EndChar

StartChar: s
Encoding: 115 115 346
Width: 997
VWidth: 0
GlyphClass: 2
Flags: W
PickledData: "(dp1
S'b'
(dp2
sS'anchors'
p3
(tsS'lib'
p4
(dp5
sS'unicodes'
p6
(tsS'com.fontlab.hintData'
p7
(dp8
S'vhints'
p9
((dp10
S'position'
p11
I81
sS'width'
p12
I281
s(dp13
g11
I687
sg12
I262
stp14
sS'hhints'
p15
((dp16
g11
I770
sg12
I185
stp17
ssg12
F1006.76
sS'contours'
p18
(tsS'components'
p19
(tsS'com.typemytype.robofont.layerData'
p20
(dp21
S'b'
(dp22
S'name'
p23
S's'
sg4
(dp24
sg6
(tsg12
I1007
sg18
(tsg19
(tsg3
(tsssg23
S's'
s."
HStem: 770 185
VStem: 81 281<727 783.5 727 830.5> 687 262
AnchorPoint: "top" 525 1006 basechar 0
AnchorPoint: "bot" 502 0 basechar 0
LayerCount: 2
Fore
SplineSet
504 -11 m 256
 758 -22 954 91 949 320 c 256
 945 508 820 574 613 627 c 258
 476 661 l 258
 395 679 362 703 362 751 c 256
 362 816 479 826 545 818 c 256
 639 807 707 785 748 770 c 256
 883 719 939 898 817 955 c 256
 749 986 675 1019 544 1026 c 256
 262 1043 81 928 81 733 c 256
 81 531 202 482 430 417 c 258
 568 380 l 258
 647 360 687 324 687 291 c 256
 687 199 562 191 480 196 c 256
 350 203 283 256 238 277 c 256
 114 345 30 178 124 110 c 256
 210 50 320 -4 504 -11 c 256
EndSplineSet
EndChar

StartChar: section
Encoding: 167 167 352
Width: 1298
VWidth: 0
GlyphClass: 2
Flags: W
PickledData: "(dp1
S'com.fontlab.hintData'
p2
(dp3
S'vhints'
p4
((dp5
S'position'
p6
I196
sS'width'
p7
I281
s(dp8
g6
I240
sg7
I334
s(dp9
g6
I738
sg7
I318
s(dp10
g6
I823
sg7
I271
stp11
sS'hhints'
p12
((dp13
g6
I-35
sg7
I201
s(dp14
g6
I10
sg7
I192
s(dp15
g6
I888
sg7
I20
s(dp16
g6
I1289
sg7
I189
s(dp17
g6
I1313
sg7
I201
stp18
ss."
HStem: -35 201<543.5 603.5 506.5 747.5> 10 192 888 20 1289 189 1313 201<695 736 536.5 759>
VStem: 196 281<720 773> 240 334<1156.5 1257 1156.5 1316> 738 318<246 328 176.5 360> 823 271<726.5 794>
LayerCount: 2
Fore
SplineSet
674 605 m 257
 554 659 477 682 477 758 c 256
 477 817 528 859 609 908 c 257
 726 863 823 831 823 757 c 256
 823 696 757 650 674 605 c 257
603 -35 m 256
 892 -35 1056 83 1056 270 c 256
 1056 386 980 463 869 508 c 257
 1010 561 1094 661 1094 790 c 256
 1094 1107 574 1091 574 1222 c 256
 574 1292 659 1313 731 1313 c 256
 787 1313 901 1286 948 1289 c 256
 1003 1292 1032 1333 1032 1382 c 256
 1032 1422 1008 1465 952 1478 c 256
 853 1499 788 1514 684 1514 c 256
 389 1514 240 1414 240 1218 c 256
 240 1095 401 975 423 982 c 257
 288 946 196 826 196 720 c 256
 196 393 738 431 738 289 c 256
 738 203 663 166 544 166 c 256
 469 166 368 206 300 202 c 256
 245 199 204 150 204 100 c 256
 204 59 226 27 281 10 c 256
 337 -5 484 -35 603 -35 c 256
EndSplineSet
EndChar

StartChar: semicolon
Encoding: 59 59 353
Width: 648
VWidth: 0
GlyphClass: 2
Flags: W
PickledData: "(dp1
S'com.fontlab.hintData'
p2
(dp3
S'vhints'
p4
((dp5
S'position'
p6
I191
sS'width'
p7
I338
stp8
sS'hhints'
p9
((dp10
g6
I727
sg7
I341
stp11
ss."
HStem: 727 341<316 405 311 410>
VStem: 191 338<851.5 943>
LayerCount: 2
Fore
SplineSet
361 727 m 256
 459 727 529 804 529 899 c 256
 529 998 449 1068 361 1068 c 256
 261 1068 191 987 191 899 c 256
 191 795 271 727 361 727 c 256
EndSplineSet
Refer: 181 44 N 1 0 0 1 22 88 2
EndChar

StartChar: seven
Encoding: 55 55 354
Width: 1297
VWidth: 0
GlyphClass: 2
Flags: W
PickledData: "(dp1
S'com.typemytype.robofont.layerData'
p2
(dp3
S'b'
(dp4
S'name'
p5
S'seven'
p6
sS'lib'
p7
(dp8
sS'unicodes'
p9
(tsS'width'
p10
I1160
sS'contours'
p11
(tsS'components'
p12
(tsS'anchors'
p13
(tsssS'com.fontlab.hintData'
p14
(dp15
S'hhints'
p16
((dp17
S'position'
p18
I1172
sg10
I284
stp19
ss."
HStem: 1172 284<262 263 263 792 792 792>
LayerCount: 2
Fore
SplineSet
520 0 m 256
 583 0 641 35 675 108 c 258
 1099 1028 l 257
 1138 1129 1176 1232 1176 1311 c 256
 1176 1437 1085 1456 949 1456 c 258
 263 1456 l 258
 145 1456 97 1405 97 1310 c 256
 97 1209 158 1172 262 1172 c 258
 792 1172 l 257
 399 349 l 257
 373 285 347 220 348 164 c 256
 348 68 431 0 520 0 c 256
EndSplineSet
EndChar

StartChar: six
Encoding: 54 54 355
Width: 1297
VWidth: 0
GlyphClass: 2
Flags: W
PickledData: "(dp1
S'com.typemytype.robofont.layerData'
p2
(dp3
S'b'
(dp4
S'name'
p5
S'nine'
p6
sS'lib'
p7
(dp8
sS'unicodes'
p9
(tsS'width'
p10
I1160
sS'contours'
p11
(tsS'components'
p12
(tsS'anchors'
p13
(tsssS'com.fontlab.hintData'
p14
(dp15
S'vhints'
p16
((dp17
S'position'
p18
I80
sg10
I363
s(dp19
g18
I80
sg10
I338
s(dp20
g18
I886
sg10
I328
stp21
sS'hhints'
p22
((dp23
g18
I-22
sg10
I238
s(dp24
g18
I734
sg10
I206
s(dp25
g18
I1226
sg10
I265
stp26
ss."
HStem: -22 238<595 729 595 839.5> 734 206<675 742.5> 1226 265<632.5 790>
VStem: 80 363<468.5 553.5 393 894> 80 338<798 894> 886 328<390.5 551.5>
LayerCount: 2
Fore
SplineSet
661 216 m 256
 529 216 443 316 443 470 c 256
 443 637 521 733 675 734 c 256
 810 734 886 630 886 473 c 256
 886 308 797 216 661 216 c 256
670 -22 m 256
 1009 -22 1214 193 1214 484 c 256
 1214 779 976 940 738 940 c 256
 512 940 448 835 418 798 c 257
 418 1061 513 1226 752 1226 c 256
 828 1226 902 1206 982 1186 c 256
 1113 1148 1173 1376 1059 1422 c 257
 960 1470 844 1491 747 1491 c 256
 244 1491 80 1114 80 674 c 256
 80 263 250 -22 670 -22 c 256
EndSplineSet
EndChar

StartChar: slash
Encoding: 47 47 356
Width: 791
VWidth: 0
GlyphClass: 2
Flags: W
PickledData: "(dp1
S'com.fontlab.hintData'
p2
(dp3
S'vhints'
p4
((dp5
S'position'
p6
I62
sS'width'
p7
I667
stp8
ss."
VStem: 62 667
LayerCount: 2
Fore
SplineSet
167 -101 m 256
 204 -101 243 -84 260 -31 c 258
 706 1268 l 258
 717 1300 729 1340 729 1370 c 256
 729 1441 679 1473 626 1473 c 256
 565 1473 533 1407 512 1335 c 258
 87 104 l 258
 76 66 62 25 62 -5 c 256
 62 -67 119 -101 167 -101 c 256
EndSplineSet
EndChar

StartChar: slashbar
Encoding: 65549 -1 357
Width: 600
VWidth: 0
GlyphClass: 2
Flags: W
LayerCount: 2
Fore
SplineSet
67 556 m 258
 773 799 l 258
 904 845 824 1030 711 992 c 258
 10 759 l 258
 -121 714 -52 515 67 556 c 258
EndSplineSet
EndChar

StartChar: sterling
Encoding: 163 163 359
Width: 1399
VWidth: 0
GlyphClass: 2
Flags: W
PickledData: "(dp1
S'com.typemytype.robofont.layerData'
p2
(dp3
S'b'
(dp4
S'name'
p5
S'sterling'
p6
sS'lib'
p7
(dp8
sS'unicodes'
p9
(tsS'width'
p10
I1361
sS'contours'
p11
(tsS'components'
p12
(tsS'anchors'
p13
(tsssS'com.fontlab.hintData'
p14
(dp15
S'vhints'
p16
((dp17
S'position'
p18
I279
sg10
I327
stp19
sS'hhints'
p20
((dp21
g18
I1184
sg10
I229
s(dp22
g18
I1223
sg10
I260
stp23
ss."
HStem: 1184 229 1223 260<697.5 817>
VStem: 279 327<278 662 278 662 273 662 902 962 962 1031 278 902>
LayerCount: 2
Fore
SplineSet
233 -1 m 258
 1122 -1 l 258
 1224 -1 1224 278 1122 278 c 258
 606 278 l 257
 606 662 l 257
 879 662 l 258
 1001 662 967 902 884 902 c 258
 606 902 l 257
 606 962 l 258
 606 1146 619 1223 776 1223 c 256
 858 1223 982 1205 1065 1184 c 256
 1139 1165 1171 1394 1129 1413 c 256
 1070 1437 903 1483 752 1483 c 256
 431 1483 279 1307 279 1031 c 258
 279 902 l 257
 195 902 l 258
 96 902 120 662 195 662 c 258
 279 662 l 257
 279 273 l 257
 233 273 l 258
 141 273 141 -1 233 -1 c 258
EndSplineSet
EndChar

StartChar: summation
Encoding: 8721 8721 360
Width: 1282
VWidth: 0
GlyphClass: 2
Flags: W
PickledData: "(dp1
S'com.fontlab.hintData'
p2
(dp3
S'hhints'
p4
((dp5
S'position'
p6
I-202
sS'width'
p7
I264
s(dp8
g6
I1213
sg7
I252
stp9
ss."
HStem: -202 264<435 1178 435 1211 435 1260.5> 1213 252<480 1137 1137 1168>
LayerCount: 2
Fore
SplineSet
143 -202 m 258
 1211 -202 l 258
 1310 -202 1355 -156 1355 -71 c 256
 1355 45 1269 62 1178 62 c 258
 435 62 l 257
 928 664 l 257
 480 1213 l 257
 1137 1213 l 258
 1244 1213 1311 1242 1311 1339 c 256
 1311 1432 1257 1465 1168 1465 c 258
 202 1465 l 258
 95 1465 50 1438 50 1371 c 256
 50 1323 83 1250 119 1203 c 258
 591 626 l 257
 95 35 l 257
 63 -11 27 -73 27 -121 c 256
 27 -162 62 -202 143 -202 c 258
EndSplineSet
EndChar

StartChar: t
Encoding: 116 116 361
Width: 831
VWidth: 0
GlyphClass: 2
Flags: W
PickledData: "(dp1
S'b'
(dp2
sS'anchors'
p3
(tsS'lib'
p4
(dp5
sS'unicodes'
p6
(tsS'com.fontlab.hintData'
p7
(dp8
S'vhints'
p9
((dp10
S'position'
p11
I19
sS'width'
p12
I718
s(dp13
g11
I191
sg12
I319
s(dp14
g11
I234
sg12
I276
stp15
sS'hhints'
p16
((dp17
g11
I-13
sg12
I232
s(dp18
g11
I794
sg12
I220
stp19
ssg12
I768
sS'contours'
p20
(tsS'components'
p21
(tsS'com.typemytype.robofont.layerData'
p22
(dp23
S'b'
(dp24
S'name'
p25
S't'
sg4
(dp26
sg6
(tsg12
I706
sg20
((dp27
S'points'
p28
((dp29
S'segmentType'
p30
S'curve'
p31
sS'x'
I317
sS'smooth'
p32
I1
sS'y'
I0
s(dp33
S'y'
I0
sS'x'
I358
sg32
I0
s(dp34
S'y'
I27
sS'x'
I398
sg32
I0
s(dp35
g30
S'curve'
p36
sS'x'
I398
sg32
I1
sS'y'
I79
s(dp37
g30
S'line'
p38
sS'x'
I398
sg32
I0
sS'y'
I876
s(dp39
g30
S'line'
p40
sS'x'
I578
sg32
I1
sS'y'
I876
s(dp41
S'y'
I876
sS'x'
I621
sg32
I0
s(dp42
S'y'
I897
sS'x'
I634
sg32
I0
s(dp43
g30
S'curve'
p44
sS'x'
I634
sg32
I1
sS'y'
I928
s(dp45
S'y'
I957
sS'x'
I634
sg32
I0
s(dp46
S'y'
I981
sS'x'
I621
sg32
I0
s(dp47
g30
S'curve'
p48
sS'x'
I578
sg32
I1
sS'y'
I981
s(dp49
g30
S'line'
p50
sS'x'
I398
sg32
I0
sS'y'
I981
s(dp51
g30
S'line'
p52
sS'x'
I398
sg32
I1
sS'y'
I1053
s(dp53
S'y'
I1285
sS'x'
I398
sg32
I0
s(dp54
S'y'
I1318
sS'x'
I432
sg32
I0
s(dp55
g30
S'curve'
p56
sS'x'
I544
sg32
I1
sS'y'
I1318
s(dp57
g30
S'line'
p58
sS'x'
I629
sg32
I1
sS'y'
I1318
s(dp59
S'y'
I1318
sS'x'
I706
sg32
I0
s(dp60
S'y'
I1438
sS'x'
I703
sg32
I0
s(dp61
g30
S'curve'
p62
sS'x'
I630
sg32
I1
sS'y'
I1438
s(dp63
g30
S'line'
p64
sS'x'
I510
sg32
I1
sS'y'
I1438
s(dp65
S'y'
I1438
sS'x'
I357
sg32
I0
s(dp66
S'y'
I1371
sS'x'
I238
sg32
I0
s(dp67
g30
S'curve'
p68
sS'x'
I238
sg32
I1
sS'y'
I1112
s(dp69
g30
S'line'
p70
sS'x'
I238
sg32
I0
sS'y'
I981
s(dp71
g30
S'line'
p72
sS'x'
I98
sg32
I1
sS'y'
I981
s(dp73
S'y'
I981
sS'x'
I55
sg32
I0
s(dp74
S'y'
I957
sS'x'
I39
sg32
I0
s(dp75
g30
S'curve'
p76
sS'x'
I39
sg32
I1
sS'y'
I928
s(dp77
S'y'
I899
sS'x'
I39
sg32
I0
s(dp78
S'y'
I876
sS'x'
I55
sg32
I0
s(dp79
g30
S'curve'
p80
sS'x'
I98
sg32
I1
sS'y'
I876
s(dp81
g30
S'line'
p82
sS'x'
I238
sg32
I0
sS'y'
I876
s(dp83
g30
S'line'
p84
sS'x'
I238
sg32
I1
sS'y'
I79
s(dp85
S'y'
I26
sS'x'
I238
sg32
I0
s(dp86
S'y'
I0
sS'x'
I278
sg32
I0
stp87
stp88
sg21
(tsg3
(tsssg25
S't'
s."
HStem: -13 232<504 708> 794 220<130 191 191 191 510 626 626 632>
VStem: 19 718<867 941> 191 319<226.5 794 438 794 438 794> 234 276<1209 1209>
AnchorPoint: "caron.alt" 332 1290 basechar 0
AnchorPoint: "bot" 488 -1 basechar 0
LayerCount: 2
Fore
SplineSet
504 -13 m 256
 616 -13 689 -4 735 14 c 256
 825 48 807 223 708 219 c 258
 650 216 l 258
 543 210 510 267 510 438 c 258
 510 794 l 257
 626 794 l 258
 702 794 737 828 737 902 c 256
 737 982 700 1014 632 1014 c 258
 510 1014 l 257
 510 1192 l 258
 510 1324 473 1394 386 1394 c 256
 268 1394 242 1291 234 1209 c 258
 212 1014 l 257
 126 1014 l 258
 49 1014 19 973 19 909 c 256
 19 825 58 794 130 794 c 258
 191 794 l 257
 191 369 l 258
 191 84 317 -9 504 -13 c 256
EndSplineSet
EndChar

StartChar: thorn
Encoding: 254 254 366
Width: 1257
VWidth: 0
GlyphClass: 2
Flags: W
PickledData: "(dp1
S'com.fontlab.hintData'
p2
(dp3
S'vhints'
p4
((dp5
S'position'
p6
I114
sS'width'
p7
I319
s(dp8
g6
I860
sg7
I324
stp9
sS'hhints'
p10
((dp11
g6
I-16
sg7
I198
s(dp12
g6
I828
sg7
I203
stp13
ss."
HStem: -16 198<710.5 740 569 904> 828 203<704.5 735>
VStem: 114 319<405.5 606 830 1113 1113 1205> 860 324<425 595.5>
LayerCount: 2
Fore
SplineSet
658 182 m 256
 480 182 433 297 433 514 c 256
 433 698 483 828 651 828 c 256
 819 828 860 680 860 511 c 256
 860 339 822 182 658 182 c 256
265 -338 m 256
 337 -338 430 -286 430 -182 c 258
 430 200 l 257
 510 51 639 -16 782 -16 c 256
 1026 -16 1184 210 1184 513 c 256
 1184 848 1010 1031 776 1031 c 256
 633 1031 497 961 433 830 c 257
 433 1113 l 258
 433 1301 395 1448 267 1448 c 256
 129 1448 114 1321 114 1205 c 258
 114 -123 l 258
 114 -262 155 -338 265 -338 c 256
EndSplineSet
EndChar

StartChar: three
Encoding: 51 51 367
Width: 1297
VWidth: 0
GlyphClass: 2
Flags: W
PickledData: "(dp1
S'com.typemytype.robofont.layerData'
p2
(dp3
S'b'
(dp4
S'name'
p5
S'three'
p6
sS'lib'
p7
(dp8
sS'unicodes'
p9
(tsS'width'
p10
I1160
sS'contours'
p11
(tsS'components'
p12
(tsS'anchors'
p13
(tsssS'com.fontlab.hintData'
p14
(dp15
S'vhints'
p16
((dp17
S'position'
p18
I808
sg10
I347
s(dp19
g18
I827
sg10
I359
stp20
sS'hhints'
p21
((dp22
g18
I-20
sg10
I274
s(dp23
g18
I616
sg10
I231
s(dp24
g18
I1144
sg10
I255
s(dp25
g18
I1196
sg10
I275
stp26
ss."
HStem: -20 274<558.5 654 535 780.5> 616 231<491 562 562 565 455.5 646> 1144 255 1196 275<580 642>
VStem: 808 347<994 1083> 827 359<361.5 486.5>
LayerCount: 2
Fore
SplineSet
624 -20 m 256
 937 -20 1186 105 1186 398 c 256
 1186 583 1066 733 881 757 c 257
 1061 774 1155 912 1155 1076 c 256
 1155 1309 958 1471 613 1471 c 256
 463 1471 339 1430 264 1399 c 257
 108 1321 203 1097 333 1144 c 256
 411 1168 513 1197 580 1196 c 256
 704 1196 808 1138 808 1028 c 256
 808 904 700 847 565 847 c 258
 491 847 l 258
 420 847 383 788 383 730 c 256
 383 667 422 616 491 616 c 258
 562 616 l 258
 730 616 827 548 827 425 c 256
 827 298 722 254 586 254 c 256
 484 254 388 305 331 327 c 256
 217 375 133 128 278 62 c 256
 378 17 493 -20 624 -20 c 256
EndSplineSet
EndChar

StartChar: threequarters
Encoding: 190 190 368
Width: 1854
VWidth: 0
GlyphClass: 2
Flags: W
PickledData: "(dp1
S'com.typemytype.robofont.layerData'
p2
(dp3
S'b'
(dp4
S'name'
p5
S'threequarters'
p6
sS'lib'
p7
(dp8
sS'unicodes'
p9
(tsS'width'
p10
I1603
sS'contours'
p11
(tsS'components'
p12
(tsS'anchors'
p13
(tsssS'com.fontlab.hintData'
p14
(dp15
S'vhints'
p16
((dp17
S'position'
p18
I469
sg10
I156
s(dp19
g18
I481
sg10
I165
s(dp20
g18
I1439
sg10
I161
stp21
sS'hhints'
p22
((dp23
g18
I173
sg10
I114
s(dp24
g18
I598
sg10
I146
s(dp25
g18
I972
sg10
I134
s(dp26
g18
I1320
sg10
I149
stp27
ss."
HStem: 173 114<1209 1209 1209 1439> 598 146<307.5 382.5 307.5 442.5> 972 134<276 325 325 326 255.5 375.5> 1320 149<318 372>
VStem: 469 156<1186 1255> 481 165<808 876.5> 1439 161<128 144 144 173 293 632 632 681 128 287>
LayerCount: 2
Fore
SplineSet
1209 287 m 257
 1439 681 l 257
 1439 287 l 257
 1209 287 l 257
696 -62 m 256
 731 -62 766 -43 782 6 c 258
 1215 1248 l 258
 1226 1285 1245 1339 1245 1376 c 256
 1245 1439 1204 1475 1149 1475 c 256
 1093 1475 1064 1409 1044 1344 c 258
 622 134 l 258
 612 101 600 65 600 32 c 256
 600 -23 646 -62 696 -62 c 256
1520 0 m 256
 1580 0 1600 61 1600 128 c 258
 1600 173 l 257
 1640 173 l 258
 1689 173 1716 192 1716 234 c 256
 1716 277 1685 293 1629 293 c 258
 1600 293 l 257
 1600 632 l 258
 1600 766 1571 834 1481 834 c 256
 1408 834 1360 802 1318 710 c 257
 1057 286 l 258
 1048 271 1043 255 1043 240 c 256
 1043 181 1096 173 1157 173 c 258
 1439 173 l 257
 1439 144 l 258
 1439 59 1459 0 1520 0 c 256
348 598 m 256
 537 598 646 701 646 830 c 256
 646 943 581 1022 477 1045 c 257
 563 1058 625 1135 625 1229 c 256
 625 1373 510 1469 348 1469 c 256
 288 1469 89 1443 89 1360 c 256
 89 1322 116 1293 156 1293 c 256
 174 1293 271 1320 336 1320 c 256
 408 1320 469 1287 469 1223 c 256
 469 1149 407 1105 326 1106 c 258
 273 1106 l 258
 238 1106 217 1082 217 1038 c 256
 217 1002 233 972 276 972 c 258
 325 972 l 258
 426 972 481 908 481 845 c 256
 481 771 421 744 344 744 c 256
 271 744 195 779 163 779 c 256
 111 779 91 740 91 707 c 256
 91 637 253 598 348 598 c 256
EndSplineSet
EndChar

StartChar: uni00B3
Encoding: 179 179 369
Width: 850
VWidth: 0
GlyphClass: 2
Flags: W
PickledData: "(dp1
S'com.typemytype.robofont.layerData'
p2
(dp3
S'b'
(dp4
S'name'
p5
S'threesuperior'
p6
sS'lib'
p7
(dp8
sS'unicodes'
p9
(tsS'width'
p10
I818
sS'contours'
p11
(tsS'components'
p12
(tsS'anchors'
p13
(tsssS'com.fontlab.hintData'
p14
(dp15
S'vhints'
p16
((dp17
S'position'
p18
I538
sg10
I158
s(dp19
g18
I550
sg10
I166
stp20
sS'hhints'
p21
((dp22
g18
I595
sg10
I146
s(dp23
g18
I969
sg10
I133
s(dp24
g18
I1316
sg10
I149
stp25
ss."
HStem: 595 146<380 452 380 509.5> 969 133<349 396 329 446> 1316 149<386.5 441.5>
VStem: 538 158<1182.5 1252> 550 166<805.5 874>
LayerCount: 2
Fore
SplineSet
418 595 m 256
 601 595 716 692 716 826 c 256
 716 940 656 1006 548 1041 c 257
 637 1067 696 1130 696 1225 c 256
 696 1373 579 1465 418 1465 c 256
 355 1465 158 1437 158 1356 c 256
 158 1319 184 1290 227 1290 c 256
 245 1290 339 1316 405 1316 c 256
 478 1316 538 1284 538 1220 c 256
 538 1145 476 1102 396 1102 c 258
 349 1102 l 258
 309 1102 287 1070 287 1035 c 256
 287 1001 308 969 349 969 c 258
 396 969 l 258
 496 969 550 905 550 843 c 256
 550 768 490 741 414 741 c 256
 346 741 265 774 234 774 c 256
 181 774 160 735 160 702 c 256
 160 631 327 595 418 595 c 256
EndSplineSet
EndChar

StartChar: tilde
Encoding: 732 732 370
Width: 569
VWidth: 0
GlyphClass: 4
Flags: W
PickledData: "(dp1
S'com.fontlab.hintData'
p2
(dp3
S'hhints'
p4
((dp5
S'position'
p6
I1216
sS'width'
p7
I187
s(dp8
g6
I1327
sg7
I186
stp9
ss."
HStem: 1216 187<392 452.5 392 487> 1327 186<125.5 178>
AnchorPoint: "top" 293 1040 mark 0
LayerCount: 2
Fore
SplineSet
-6 1215 m 256
 25 1215 53 1225 72 1262 c 256
 89 1294 108 1327 143 1327 c 256
 213 1327 313 1216 433 1216 c 256
 541 1216 632 1297 632 1445 c 256
 632 1489 598 1519 559 1518 c 256
 552 1516 547 1514 544 1513 c 256
 461 1490 478 1403 427 1403 c 256
 357 1403 255 1513 127 1513 c 256
 5 1513 -60 1431 -75 1294 c 256
 -76 1291 -76 1288 -76 1284 c 256
 -76 1239 -44 1215 -6 1215 c 256
EndSplineSet
EndChar

StartChar: trademark
Encoding: 8482 8482 371
Width: 1989
VWidth: 0
GlyphClass: 2
Flags: W
PickledData: "(dp1
S'com.fontlab.hintData'
p2
(dp3
S'vhints'
p4
((dp5
S'position'
p6
I291
sS'width'
p7
I199
s(dp8
g6
I857
sg7
I187
s(dp9
g6
I1605
sg7
I188
stp10
sS'hhints'
p11
((dp12
g6
I894
sg7
I21
s(dp13
g6
I1283
sg7
I145
stp14
ss."
HStem: 894 21<1325 1325> 1283 145<174 291 291 291 490 603>
VStem: 291 199<738 1283 784 1283> 857 187<741.5 1186 792 1186 792 1214> 1605 188<789 792 792 1186>
LayerCount: 2
Fore
SplineSet
391 645 m 256
 462 645 490 708 490 784 c 258
 490 1283 l 257
 606 1283 l 258
 669 1283 710 1300 710 1355 c 256
 710 1422 655 1428 603 1428 c 258
 146 1428 l 258
 94 1428 69 1392 69 1356 c 256
 69 1297 114 1283 174 1283 c 258
 291 1283 l 257
 291 784 l 258
 291 692 324 645 391 645 c 256
950 644 m 256
 1022 644 1044 711 1044 792 c 258
 1044 1186 l 257
 1225 747 l 258
 1247 688 1273 651 1323 651 c 256
 1382 651 1409 705 1432 769 c 258
 1605 1186 l 257
 1605 792 l 258
 1605 700 1630 644 1698 644 c 256
 1770 644 1793 712 1793 789 c 258
 1793 1238 l 258
 1793 1365 1736 1426 1647 1426 c 256
 1563 1426 1515 1350 1484 1272 c 258
 1325 894 l 257
 1166 1272 l 258
 1130 1364 1077 1427 1006 1427 c 256
 879 1427 857 1310 857 1214 c 258
 857 789 l 258
 857 694 883 644 950 644 c 256
EndSplineSet
EndChar

StartChar: two
Encoding: 50 50 372
Width: 1298
VWidth: 0
GlyphClass: 2
Flags: W
PickledData: "(dp1
S'com.typemytype.robofont.layerData'
p2
(dp3
S'b'
(dp4
S'name'
p5
S'two'
p6
sS'lib'
p7
(dp8
sS'unicodes'
p9
(tsS'width'
p10
I1160
sS'contours'
p11
(tsS'components'
p12
(tsS'anchors'
p13
(tsssS'com.fontlab.hintData'
p14
(dp15
S'vhints'
p16
((dp17
S'position'
p18
I789
sg10
I327
stp19
sS'hhints'
p20
((dp21
g18
I1181
sg10
I272
stp22
ss."
HStem: 1181 272
VStem: 789 327<990 1065>
LayerCount: 2
Fore
SplineSet
263 0 m 258
 994 0 l 258
 1057 0 1089 70 1089 139 c 256
 1089 207 1058 273 994 273 c 258
 481 273 l 257
 875 586 l 258
 1043 724 1116 886 1116 1028 c 256
 1116 1256 932 1444 651 1453 c 256
 476 1459 322 1403 193 1329 c 256
 39 1237 206 1028 300 1076 c 256
 388 1124 459 1181 592 1181 c 256
 697 1181 789 1113 789 1017 c 256
 789 963 760 897 687 831 c 258
 172 327 l 258
 65 219 95 0 263 0 c 258
EndSplineSet
EndChar

StartChar: uni00B2
Encoding: 178 178 373
Width: 764
VWidth: 0
GlyphClass: 2
Flags: W
PickledData: "(dp1
S'com.fontlab.hintData'
p2
(dp3
S'vhints'
p4
((dp5
S'position'
p6
I479
sS'width'
p7
I192
stp8
sS'hhints'
p9
((dp10
g6
I630
sg7
I151
s(dp11
g6
I1313
sg7
I155
stp12
ss."
HStem: 630 151<311 554 311 581 311 611> 1313 155<340.5 389>
VStem: 479 192<1168 1255.5>
LayerCount: 2
Fore
SplineSet
174 630 m 258
 581 630 l 258
 641 630 678 650 678 705 c 256
 678 772 617 781 554 781 c 258
 311 781 l 257
 496 919 671 1088 671 1248 c 256
 671 1384 556 1468 388 1468 c 256
 293 1468 99 1428 99 1341 c 256
 99 1300 126 1267 165 1267 c 256
 176 1267 185 1267 193 1272 c 256
 238 1289 299 1313 358 1313 c 256
 420 1313 479 1285 479 1226 c 256
 479 1105 300 944 137 797 c 257
 95 778 73 739 73 707 c 256
 73 646 122 630 174 630 c 258
EndSplineSet
EndChar

